<?xml version="1.0" encoding="UTF-8" standalone="no"?>
<!DOCTYPE svg PUBLIC "-//W3C//DTD SVG 1.1//EN"
 "http://www.w3.org/Graphics/SVG/1.1/DTD/svg11.dtd">
<!-- Generated by graphviz version 2.47.3 (20210619.1520)
 -->
<!-- Title: dependencies Pages: 1 -->
<svg width="656pt" height="247pt"
 viewBox="0.00 0.00 656.00 246.80" xmlns="http://www.w3.org/2000/svg" xmlns:xlink="http://www.w3.org/1999/xlink">
<g id="graph0" class="graph" transform="scale(1 1) rotate(0) translate(4 242.8)">
<title>dependencies</title>
<polygon fill="white" stroke="transparent" points="-4,4 -4,-242.8 652,-242.8 652,4 -4,4"/>
<text text-anchor="middle" x="324" y="-8.2" font-family="sans-serif" font-size="14.00">dependencies</text>
<g id="clust1" class="cluster">
<title>cluster_EntityFormModule</title>
<polygon fill="none" stroke="black" stroke-dasharray="1,5" points="8,-32.8 8,-230.8 640,-230.8 640,-32.8 8,-32.8"/>
</g>
<g id="clust5" class="cluster">
<title>cluster_EntityFormModule_exports</title>
<polygon fill="none" stroke="black" points="193,-170.8 193,-222.8 359,-222.8 359,-170.8 193,-170.8"/>
</g>
<g id="clust7" class="cluster">
<title>cluster_EntityFormModule_providers</title>
<polygon fill="none" stroke="black" points="446,-40.8 446,-92.8 632,-92.8 632,-40.8 446,-40.8"/>
</g>
<g id="clust2" class="cluster">
<title>cluster_EntityFormModule_declarations</title>
<polygon fill="none" stroke="black" points="276,-40.8 276,-92.8 438,-92.8 438,-40.8 276,-40.8"/>
</g>
<g id="clust4" class="cluster">
<title>cluster_EntityFormModule_imports</title>
<polygon fill="none" stroke="black" points="16,-40.8 16,-92.8 268,-92.8 268,-40.8 16,-40.8"/>
</g>
<!-- EntityFormComponent -->
<g id="node1" class="node">
<title>EntityFormComponent</title>
<polygon fill="#ffffb3" stroke="black" points="429.89,-84.8 284.11,-84.8 284.11,-48.8 429.89,-48.8 429.89,-84.8"/>
<text text-anchor="middle" x="357" y="-62.6" font-family="Times,serif" font-size="14.00">EntityFormComponent</text>
</g>
<!-- EntityFormModule -->
<g id="node2" class="node">
<title>EntityFormModule</title>
<polygon fill="#8dd3c7" stroke="black" points="338.11,-149.8 335.11,-153.8 314.11,-153.8 311.11,-149.8 213.89,-149.8 213.89,-113.8 338.11,-113.8 338.11,-149.8"/>
<text text-anchor="middle" x="276" y="-127.6" font-family="Times,serif" font-size="14.00">EntityFormModule</text>
</g>
<!-- EntityFormComponent&#45;&gt;EntityFormModule -->
<g id="edge1" class="edge">
<title>EntityFormComponent&#45;&gt;EntityFormModule</title>
<path fill="none" stroke="black" d="M311.05,-84.91C311.05,-84.91 311.05,-103.79 311.05,-103.79"/>
<polygon fill="black" stroke="black" points="307.55,-103.79 311.05,-113.79 314.55,-103.79 307.55,-103.79"/>
</g>
<!-- EntityFormComponent  -->
<g id="node5" class="node">
<title>EntityFormComponent </title>
<polygon fill="#fb8072" stroke="black" points="350.89,-214.8 201.11,-214.8 201.11,-178.8 350.89,-178.8 350.89,-214.8"/>
<text text-anchor="middle" x="276" y="-192.6" font-family="Times,serif" font-size="14.00">EntityFormComponent </text>
</g>
<!-- EntityFormModule&#45;&gt;EntityFormComponent  -->
<g id="edge4" class="edge">
<title>EntityFormModule&#45;&gt;EntityFormComponent </title>
<path fill="none" stroke="black" stroke-dasharray="5,2" d="M276,-149.91C276,-149.91 276,-168.79 276,-168.79"/>
<polygon fill="black" stroke="black" points="272.5,-168.79 276,-178.79 279.5,-168.79 272.5,-168.79"/>
</g>
<!-- PermissionsModule -->
<g id="node3" class="node">
<title>PermissionsModule</title>
<polygon fill="#8dd3c7" stroke="black" points="259.71,-84.8 256.71,-88.8 235.71,-88.8 232.71,-84.8 132.29,-84.8 132.29,-48.8 259.71,-48.8 259.71,-84.8"/>
<text text-anchor="middle" x="196" y="-62.6" font-family="Times,serif" font-size="14.00">PermissionsModule</text>
</g>
<!-- PermissionsModule&#45;&gt;EntityFormModule -->
<g id="edge2" class="edge">
<title>PermissionsModule&#45;&gt;EntityFormModule</title>
<path fill="none" stroke="black" d="M236.78,-84.91C236.78,-84.91 236.78,-103.79 236.78,-103.79"/>
<polygon fill="black" stroke="black" points="233.28,-103.79 236.78,-113.79 240.28,-103.79 233.28,-103.79"/>
</g>
<!-- ViewModule -->
<g id="node4" class="node">
<title>ViewModule</title>
<polygon fill="#8dd3c7" stroke="black" points="113.87,-84.8 110.87,-88.8 89.87,-88.8 86.87,-84.8 24.13,-84.8 24.13,-48.8 113.87,-48.8 113.87,-84.8"/>
<text text-anchor="middle" x="69" y="-62.6" font-family="Times,serif" font-size="14.00">ViewModule</text>
</g>
<!-- ViewModule&#45;&gt;EntityFormModule -->
<g id="edge3" class="edge">
<title>ViewModule&#45;&gt;EntityFormModule</title>
<path fill="none" stroke="black" d="M69,-84.91C69,-104.14 69,-131.8 69,-131.8 69,-131.8 203.89,-131.8 203.89,-131.8"/>
<polygon fill="black" stroke="black" points="203.89,-135.3 213.89,-131.8 203.89,-128.3 203.89,-135.3"/>
</g>
<!-- EntityFormService -->
<g id="node6" class="node">
<title>EntityFormService</title>
<ellipse fill="#fdb462" stroke="black" cx="539" cy="-66.8" rx="84.55" ry="18"/>
<text text-anchor="middle" x="539" y="-62.6" font-family="Times,serif" font-size="14.00">EntityFormService</text>
</g>
<!-- EntityFormService&#45;&gt;EntityFormModule -->
<g id="edge5" class="edge">
<title>EntityFormService&#45;&gt;EntityFormModule</title>
<path fill="none" stroke="black" d="M539,-84.91C539,-104.14 539,-131.8 539,-131.8 539,-131.8 348.33,-131.8 348.33,-131.8"/>
<polygon fill="black" stroke="black" points="348.33,-128.3 338.33,-131.8 348.33,-135.3 348.33,-128.3"/>
</g>
</g>
</svg>
