<?xml version="1.0" encoding="UTF-8" standalone="no"?>
<!DOCTYPE svg PUBLIC "-//W3C//DTD SVG 1.1//EN"
 "http://www.w3.org/Graphics/SVG/1.1/DTD/svg11.dtd">
<!-- Generated by graphviz version 2.47.3 (20210619.1520)
 -->
<!-- Title: dependencies Pages: 1 -->
<svg width="310pt" height="247pt"
 viewBox="0.00 0.00 310.00 246.80" xmlns="http://www.w3.org/2000/svg" xmlns:xlink="http://www.w3.org/1999/xlink">
<g id="graph0" class="graph" transform="scale(1 1) rotate(0) translate(4 242.8)">
<title>dependencies</title>
<polygon fill="white" stroke="transparent" points="-4,4 -4,-242.8 306,-242.8 306,4 -4,4"/>
<text text-anchor="middle" x="151" y="-8.2" font-family="sans-serif" font-size="14.00">dependencies</text>
<g id="clust1" class="cluster">
<title>cluster_AlertsModule</title>
<polygon fill="none" stroke="black" stroke-dasharray="1,5" points="8,-32.8 8,-230.8 294,-230.8 294,-32.8 8,-32.8"/>
</g>
<g id="clust5" class="cluster">
<title>cluster_AlertsModule_exports</title>
<polygon fill="none" stroke="black" points="84,-170.8 84,-222.8 214,-222.8 214,-170.8 84,-170.8"/>
</g>
<g id="clust7" class="cluster">
<title>cluster_AlertsModule_providers</title>
<polygon fill="none" stroke="black" points="150,-40.8 150,-92.8 286,-92.8 286,-40.8 150,-40.8"/>
</g>
<g id="clust2" class="cluster">
<title>cluster_AlertsModule_declarations</title>
<polygon fill="none" stroke="black" points="16,-40.8 16,-92.8 142,-92.8 142,-40.8 16,-40.8"/>
</g>
<!-- AlertComponent -->
<g id="node1" class="node">
<title>AlertComponent</title>
<polygon fill="#ffffb3" stroke="black" points="134.1,-84.8 23.9,-84.8 23.9,-48.8 134.1,-48.8 134.1,-84.8"/>
<text text-anchor="middle" x="79" y="-62.6" font-family="Times,serif" font-size="14.00">AlertComponent</text>
</g>
<!-- AlertsModule -->
<g id="node2" class="node">
<title>AlertsModule</title>
<polygon fill="#8dd3c7" stroke="black" points="195.76,-149.8 192.76,-153.8 171.76,-153.8 168.76,-149.8 102.24,-149.8 102.24,-113.8 195.76,-113.8 195.76,-149.8"/>
<text text-anchor="middle" x="149" y="-127.6" font-family="Times,serif" font-size="14.00">AlertsModule</text>
</g>
<!-- AlertComponent&#45;&gt;AlertsModule -->
<g id="edge1" class="edge">
<title>AlertComponent&#45;&gt;AlertsModule</title>
<path fill="none" stroke="black" d="M118.08,-84.91C118.08,-84.91 118.08,-103.79 118.08,-103.79"/>
<polygon fill="black" stroke="black" points="114.58,-103.79 118.08,-113.79 121.58,-103.79 114.58,-103.79"/>
</g>
<!-- AlertComponent  -->
<g id="node3" class="node">
<title>AlertComponent </title>
<polygon fill="#fb8072" stroke="black" points="205.6,-214.8 92.4,-214.8 92.4,-178.8 205.6,-178.8 205.6,-214.8"/>
<text text-anchor="middle" x="149" y="-192.6" font-family="Times,serif" font-size="14.00">AlertComponent </text>
</g>
<!-- AlertsModule&#45;&gt;AlertComponent  -->
<g id="edge2" class="edge">
<title>AlertsModule&#45;&gt;AlertComponent </title>
<path fill="none" stroke="black" stroke-dasharray="5,2" d="M149,-149.91C149,-149.91 149,-168.79 149,-168.79"/>
<polygon fill="black" stroke="black" points="145.5,-168.79 149,-178.79 152.5,-168.79 145.5,-168.79"/>
</g>
<!-- AlertService -->
<g id="node4" class="node">
<title>AlertService</title>
<ellipse fill="#fdb462" stroke="black" cx="218" cy="-66.8" rx="59.66" ry="18"/>
<text text-anchor="middle" x="218" y="-62.6" font-family="Times,serif" font-size="14.00">AlertService</text>
</g>
<!-- AlertService&#45;&gt;AlertsModule -->
<g id="edge3" class="edge">
<title>AlertService&#45;&gt;AlertsModule</title>
<path fill="none" stroke="black" d="M177.02,-79.95C177.02,-79.95 177.02,-103.49 177.02,-103.49"/>
<polygon fill="black" stroke="black" points="173.52,-103.49 177.02,-113.49 180.52,-103.49 173.52,-103.49"/>
</g>
</g>
</svg>
