<?xml version="1.0" encoding="UTF-8" standalone="no"?>
<!DOCTYPE svg PUBLIC "-//W3C//DTD SVG 1.1//EN"
 "http://www.w3.org/Graphics/SVG/1.1/DTD/svg11.dtd">
<!-- Generated by graphviz version 2.47.3 (20210619.1520)
 -->
<!-- Title: dependencies Pages: 1 -->
<svg width="532pt" height="174pt"
 viewBox="0.00 0.00 532.00 173.80" xmlns="http://www.w3.org/2000/svg" xmlns:xlink="http://www.w3.org/1999/xlink">
<g id="graph0" class="graph" transform="scale(1 1) rotate(0) translate(4 169.8)">
<title>dependencies</title>
<polygon fill="white" stroke="transparent" points="-4,4 -4,-169.8 528,-169.8 528,4 -4,4"/>
<text text-anchor="middle" x="262" y="-8.2" font-family="sans-serif" font-size="14.00">dependencies</text>
<g id="clust1" class="cluster">
<title>cluster_UserModule</title>
<polygon fill="none" stroke="black" stroke-dasharray="1,5" points="8,-32.8 8,-157.8 516,-157.8 516,-32.8 8,-32.8"/>
</g>
<g id="clust4" class="cluster">
<title>cluster_UserModule_imports</title>
<polygon fill="none" stroke="black" points="196,-40.8 196,-92.8 508,-92.8 508,-40.8 196,-40.8"/>
</g>
<g id="clust2" class="cluster">
<title>cluster_UserModule_declarations</title>
<polygon fill="none" stroke="black" points="16,-40.8 16,-92.8 188,-92.8 188,-40.8 16,-40.8"/>
</g>
<!-- UserAccountComponent -->
<g id="node1" class="node">
<title>UserAccountComponent</title>
<polygon fill="#ffffb3" stroke="black" points="179.69,-84.8 24.31,-84.8 24.31,-48.8 179.69,-48.8 179.69,-84.8"/>
<text text-anchor="middle" x="102" y="-62.6" font-family="Times,serif" font-size="14.00">UserAccountComponent</text>
</g>
<!-- UserModule -->
<g id="node2" class="node">
<title>UserModule</title>
<polygon fill="#8dd3c7" stroke="black" points="299.98,-149.8 296.98,-153.8 275.98,-153.8 272.98,-149.8 214.02,-149.8 214.02,-113.8 299.98,-113.8 299.98,-149.8"/>
<text text-anchor="middle" x="257" y="-127.6" font-family="Times,serif" font-size="14.00">UserModule</text>
</g>
<!-- UserAccountComponent&#45;&gt;UserModule -->
<g id="edge1" class="edge">
<title>UserAccountComponent&#45;&gt;UserModule</title>
<path fill="none" stroke="black" d="M102,-84.91C102,-104.14 102,-131.8 102,-131.8 102,-131.8 203.82,-131.8 203.82,-131.8"/>
<polygon fill="black" stroke="black" points="203.82,-135.3 213.82,-131.8 203.82,-128.3 203.82,-135.3"/>
</g>
<!-- FontAwesomeIconsModule -->
<g id="node3" class="node">
<title>FontAwesomeIconsModule</title>
<polygon fill="#8dd3c7" stroke="black" points="499.52,-84.8 496.52,-88.8 475.52,-88.8 472.52,-84.8 328.48,-84.8 328.48,-48.8 499.52,-48.8 499.52,-84.8"/>
<text text-anchor="middle" x="414" y="-62.6" font-family="Times,serif" font-size="14.00">FontAwesomeIconsModule</text>
</g>
<!-- FontAwesomeIconsModule&#45;&gt;UserModule -->
<g id="edge2" class="edge">
<title>FontAwesomeIconsModule&#45;&gt;UserModule</title>
<path fill="none" stroke="black" d="M414,-84.91C414,-104.14 414,-131.8 414,-131.8 414,-131.8 310.32,-131.8 310.32,-131.8"/>
<polygon fill="black" stroke="black" points="310.32,-128.3 300.32,-131.8 310.32,-135.3 310.32,-128.3"/>
</g>
<!-- WebdavModule -->
<g id="node4" class="node">
<title>WebdavModule</title>
<polygon fill="#8dd3c7" stroke="black" points="310.19,-84.8 307.19,-88.8 286.19,-88.8 283.19,-84.8 203.81,-84.8 203.81,-48.8 310.19,-48.8 310.19,-84.8"/>
<text text-anchor="middle" x="257" y="-62.6" font-family="Times,serif" font-size="14.00">WebdavModule</text>
</g>
<!-- WebdavModule&#45;&gt;UserModule -->
<g id="edge3" class="edge">
<title>WebdavModule&#45;&gt;UserModule</title>
<path fill="none" stroke="black" d="M257,-84.91C257,-84.91 257,-103.79 257,-103.79"/>
<polygon fill="black" stroke="black" points="253.5,-103.79 257,-113.79 260.5,-103.79 253.5,-103.79"/>
</g>
</g>
</svg>
