<?xml version="1.0" encoding="UTF-8" standalone="no"?>
<!DOCTYPE svg PUBLIC "-//W3C//DTD SVG 1.1//EN"
 "http://www.w3.org/Graphics/SVG/1.1/DTD/svg11.dtd">
<!-- Generated by graphviz version 2.47.3 (20210619.1520)
 -->
<!-- Title: dependencies Pages: 1 -->
<svg width="1308pt" height="247pt"
 viewBox="0.00 0.00 1308.00 246.80" xmlns="http://www.w3.org/2000/svg" xmlns:xlink="http://www.w3.org/1999/xlink">
<g id="graph0" class="graph" transform="scale(1 1) rotate(0) translate(4 242.8)">
<title>dependencies</title>
<polygon fill="white" stroke="transparent" points="-4,4 -4,-242.8 1304,-242.8 1304,4 -4,4"/>
<text text-anchor="middle" x="650" y="-8.2" font-family="sans-serif" font-size="14.00">dependencies</text>
<g id="clust1" class="cluster">
<title>cluster_LatestChangesModule</title>
<polygon fill="none" stroke="black" stroke-dasharray="1,5" points="8,-32.8 8,-230.8 1292,-230.8 1292,-32.8 8,-32.8"/>
</g>
<g id="clust2" class="cluster">
<title>cluster_LatestChangesModule_declarations</title>
<polygon fill="none" stroke="black" points="958,-40.8 958,-92.8 1284,-92.8 1284,-40.8 958,-40.8"/>
</g>
<g id="clust5" class="cluster">
<title>cluster_LatestChangesModule_imports</title>
<polygon fill="none" stroke="black" points="720,-40.8 720,-92.8 950,-92.8 950,-40.8 720,-40.8"/>
</g>
<g id="clust8" class="cluster">
<title>cluster_LatestChangesModule_providers</title>
<polygon fill="none" stroke="black" points="16,-40.8 16,-92.8 712,-92.8 712,-40.8 16,-40.8"/>
</g>
<g id="clust6" class="cluster">
<title>cluster_LatestChangesModule_exports</title>
<polygon fill="none" stroke="black" points="694,-170.8 694,-222.8 864,-222.8 864,-170.8 694,-170.8"/>
</g>
<!-- AppVersionComponent -->
<g id="node1" class="node">
<title>AppVersionComponent</title>
<polygon fill="#ffffb3" stroke="black" points="1275.76,-84.8 1126.24,-84.8 1126.24,-48.8 1275.76,-48.8 1275.76,-84.8"/>
<text text-anchor="middle" x="1201" y="-62.6" font-family="Times,serif" font-size="14.00">AppVersionComponent</text>
</g>
<!-- LatestChangesModule -->
<g id="node3" class="node">
<title>LatestChangesModule</title>
<polygon fill="#8dd3c7" stroke="black" points="849.97,-149.8 846.97,-153.8 825.97,-153.8 822.97,-149.8 708.03,-149.8 708.03,-113.8 849.97,-113.8 849.97,-149.8"/>
<text text-anchor="middle" x="779" y="-127.6" font-family="Times,serif" font-size="14.00">LatestChangesModule</text>
</g>
<!-- AppVersionComponent&#45;&gt;LatestChangesModule -->
<g id="edge1" class="edge">
<title>AppVersionComponent&#45;&gt;LatestChangesModule</title>
<path fill="none" stroke="black" d="M1201,-85.08C1201,-106.12 1201,-137.8 1201,-137.8 1201,-137.8 860.11,-137.8 860.11,-137.8"/>
<polygon fill="black" stroke="black" points="860.11,-134.3 850.11,-137.8 860.11,-141.3 860.11,-134.3"/>
</g>
<!-- ChangelogComponent -->
<g id="node2" class="node">
<title>ChangelogComponent</title>
<polygon fill="#ffffb3" stroke="black" points="1107.99,-84.8 966.01,-84.8 966.01,-48.8 1107.99,-48.8 1107.99,-84.8"/>
<text text-anchor="middle" x="1037" y="-62.6" font-family="Times,serif" font-size="14.00">ChangelogComponent</text>
</g>
<!-- ChangelogComponent&#45;&gt;LatestChangesModule -->
<g id="edge2" class="edge">
<title>ChangelogComponent&#45;&gt;LatestChangesModule</title>
<path fill="none" stroke="black" d="M1037,-84.82C1037,-102.17 1037,-125.8 1037,-125.8 1037,-125.8 860.18,-125.8 860.18,-125.8"/>
<polygon fill="black" stroke="black" points="860.18,-122.3 850.18,-125.8 860.18,-129.3 860.18,-122.3"/>
</g>
<!-- AppVersionComponent  -->
<g id="node6" class="node">
<title>AppVersionComponent </title>
<polygon fill="#fb8072" stroke="black" points="855.76,-214.8 702.24,-214.8 702.24,-178.8 855.76,-178.8 855.76,-214.8"/>
<text text-anchor="middle" x="779" y="-192.6" font-family="Times,serif" font-size="14.00">AppVersionComponent </text>
</g>
<!-- LatestChangesModule&#45;&gt;AppVersionComponent  -->
<g id="edge5" class="edge">
<title>LatestChangesModule&#45;&gt;AppVersionComponent </title>
<path fill="none" stroke="black" stroke-dasharray="5,2" d="M779,-149.91C779,-149.91 779,-168.79 779,-168.79"/>
<polygon fill="black" stroke="black" points="775.5,-168.79 779,-178.79 782.5,-168.79 775.5,-168.79"/>
</g>
<!-- AlertsModule -->
<g id="node4" class="node">
<title>AlertsModule</title>
<polygon fill="#8dd3c7" stroke="black" points="941.76,-84.8 938.76,-88.8 917.76,-88.8 914.76,-84.8 848.24,-84.8 848.24,-48.8 941.76,-48.8 941.76,-84.8"/>
<text text-anchor="middle" x="895" y="-62.6" font-family="Times,serif" font-size="14.00">AlertsModule</text>
</g>
<!-- AlertsModule&#45;&gt;LatestChangesModule -->
<g id="edge3" class="edge">
<title>AlertsModule&#45;&gt;LatestChangesModule</title>
<path fill="none" stroke="black" d="M848.12,-66.8C842.74,-66.8 839.14,-66.8 839.14,-66.8 839.14,-66.8 839.14,-103.69 839.14,-103.69"/>
<polygon fill="black" stroke="black" points="835.64,-103.69 839.14,-113.69 842.64,-103.69 835.64,-103.69"/>
</g>
<!-- SessionModule -->
<g id="node5" class="node">
<title>SessionModule</title>
<polygon fill="#8dd3c7" stroke="black" points="830.33,-84.8 827.33,-88.8 806.33,-88.8 803.33,-84.8 727.67,-84.8 727.67,-48.8 830.33,-48.8 830.33,-84.8"/>
<text text-anchor="middle" x="779" y="-62.6" font-family="Times,serif" font-size="14.00">SessionModule</text>
</g>
<!-- SessionModule&#45;&gt;LatestChangesModule -->
<g id="edge4" class="edge">
<title>SessionModule&#45;&gt;LatestChangesModule</title>
<path fill="none" stroke="black" d="M779,-84.91C779,-84.91 779,-103.79 779,-103.79"/>
<polygon fill="black" stroke="black" points="775.5,-103.79 779,-113.79 782.5,-103.79 775.5,-103.79"/>
</g>
<!-- LatestChangesDialogService -->
<g id="node7" class="node">
<title>LatestChangesDialogService</title>
<ellipse fill="#fdb462" stroke="black" cx="581" cy="-66.8" rx="123.25" ry="18"/>
<text text-anchor="middle" x="581" y="-62.6" font-family="Times,serif" font-size="14.00">LatestChangesDialogService</text>
</g>
<!-- LatestChangesDialogService&#45;&gt;LatestChangesModule -->
<g id="edge6" class="edge">
<title>LatestChangesDialogService&#45;&gt;LatestChangesModule</title>
<path fill="none" stroke="black" d="M704.3,-66.8C712.7,-66.8 717.93,-66.8 717.93,-66.8 717.93,-66.8 717.93,-103.69 717.93,-103.69"/>
<polygon fill="black" stroke="black" points="714.43,-103.69 717.93,-113.69 721.43,-103.69 714.43,-103.69"/>
</g>
<!-- LatestChangesService -->
<g id="node8" class="node">
<title>LatestChangesService</title>
<ellipse fill="#fdb462" stroke="black" cx="343" cy="-66.8" rx="96.68" ry="18"/>
<text text-anchor="middle" x="343" y="-62.6" font-family="Times,serif" font-size="14.00">LatestChangesService</text>
</g>
<!-- LatestChangesService&#45;&gt;LatestChangesModule -->
<g id="edge7" class="edge">
<title>LatestChangesService&#45;&gt;LatestChangesModule</title>
<path fill="none" stroke="black" d="M343,-84.82C343,-102.17 343,-125.8 343,-125.8 343,-125.8 697.98,-125.8 697.98,-125.8"/>
<polygon fill="black" stroke="black" points="697.98,-129.3 707.98,-125.8 697.98,-122.3 697.98,-129.3"/>
</g>
<!-- UpdateManagerService -->
<g id="node9" class="node">
<title>UpdateManagerService</title>
<ellipse fill="#fdb462" stroke="black" cx="126" cy="-66.8" rx="102.39" ry="18"/>
<text text-anchor="middle" x="126" y="-62.6" font-family="Times,serif" font-size="14.00">UpdateManagerService</text>
</g>
<!-- UpdateManagerService&#45;&gt;LatestChangesModule -->
<g id="edge8" class="edge">
<title>UpdateManagerService&#45;&gt;LatestChangesModule</title>
<path fill="none" stroke="black" d="M126,-85.08C126,-106.12 126,-137.8 126,-137.8 126,-137.8 697.87,-137.8 697.87,-137.8"/>
<polygon fill="black" stroke="black" points="697.87,-141.3 707.87,-137.8 697.87,-134.3 697.87,-141.3"/>
</g>
</g>
</svg>
