<?xml version="1.0" encoding="UTF-8" standalone="no"?>
<!DOCTYPE svg PUBLIC "-//W3C//DTD SVG 1.1//EN"
 "http://www.w3.org/Graphics/SVG/1.1/DTD/svg11.dtd">
<!-- Generated by graphviz version 2.47.3 (20210619.1520)
 -->
<!-- Title: dependencies Pages: 1 -->
<svg width="350pt" height="247pt"
 viewBox="0.00 0.00 350.00 246.80" xmlns="http://www.w3.org/2000/svg" xmlns:xlink="http://www.w3.org/1999/xlink">
<g id="graph0" class="graph" transform="scale(1 1) rotate(0) translate(4 242.8)">
<title>dependencies</title>
<polygon fill="white" stroke="transparent" points="-4,4 -4,-242.8 346,-242.8 346,4 -4,4"/>
<text text-anchor="middle" x="171" y="-8.2" font-family="sans-serif" font-size="14.00">dependencies</text>
<g id="clust1" class="cluster">
<title>cluster_DemoDataModule</title>
<polygon fill="none" stroke="black" stroke-dasharray="1,5" points="8,-32.8 8,-230.8 334,-230.8 334,-32.8 8,-32.8"/>
</g>
<g id="clust5" class="cluster">
<title>cluster_DemoDataModule_exports</title>
<polygon fill="none" stroke="black" points="16,-170.8 16,-222.8 326,-222.8 326,-170.8 16,-170.8"/>
</g>
<g id="clust2" class="cluster">
<title>cluster_DemoDataModule_declarations</title>
<polygon fill="none" stroke="black" points="18,-40.8 18,-92.8 324,-92.8 324,-40.8 18,-40.8"/>
</g>
<!-- DemoDataGeneratingProgressDialogComponent -->
<g id="node1" class="node">
<title>DemoDataGeneratingProgressDialogComponent</title>
<polygon fill="#ffffb3" stroke="black" points="316.47,-84.8 25.53,-84.8 25.53,-48.8 316.47,-48.8 316.47,-84.8"/>
<text text-anchor="middle" x="171" y="-62.6" font-family="Times,serif" font-size="14.00">DemoDataGeneratingProgressDialogComponent</text>
</g>
<!-- DemoDataModule -->
<g id="node2" class="node">
<title>DemoDataModule</title>
<polygon fill="#8dd3c7" stroke="black" points="231.19,-149.8 228.19,-153.8 207.19,-153.8 204.19,-149.8 110.81,-149.8 110.81,-113.8 231.19,-113.8 231.19,-149.8"/>
<text text-anchor="middle" x="171" y="-127.6" font-family="Times,serif" font-size="14.00">DemoDataModule</text>
</g>
<!-- DemoDataGeneratingProgressDialogComponent&#45;&gt;DemoDataModule -->
<g id="edge1" class="edge">
<title>DemoDataGeneratingProgressDialogComponent&#45;&gt;DemoDataModule</title>
<path fill="none" stroke="black" d="M171,-84.91C171,-84.91 171,-103.79 171,-103.79"/>
<polygon fill="black" stroke="black" points="167.5,-103.79 171,-113.79 174.5,-103.79 167.5,-103.79"/>
</g>
<!-- DemoDataGeneratingProgressDialogComponent  -->
<g id="node3" class="node">
<title>DemoDataGeneratingProgressDialogComponent </title>
<polygon fill="#fb8072" stroke="black" points="317.97,-214.8 24.03,-214.8 24.03,-178.8 317.97,-178.8 317.97,-214.8"/>
<text text-anchor="middle" x="171" y="-192.6" font-family="Times,serif" font-size="14.00">DemoDataGeneratingProgressDialogComponent </text>
</g>
<!-- DemoDataModule&#45;&gt;DemoDataGeneratingProgressDialogComponent  -->
<g id="edge2" class="edge">
<title>DemoDataModule&#45;&gt;DemoDataGeneratingProgressDialogComponent </title>
<path fill="none" stroke="black" stroke-dasharray="5,2" d="M171,-149.91C171,-149.91 171,-168.79 171,-168.79"/>
<polygon fill="black" stroke="black" points="167.5,-168.79 171,-178.79 174.5,-168.79 167.5,-168.79"/>
</g>
</g>
</svg>
