<?xml version="1.0" encoding="UTF-8" standalone="no"?>
<!DOCTYPE svg PUBLIC "-//W3C//DTD SVG 1.1//EN"
 "http://www.w3.org/Graphics/SVG/1.1/DTD/svg11.dtd">
<!-- Generated by graphviz version 2.47.3 (20210619.1520)
 -->
<!-- Title: dependencies Pages: 1 -->
<svg width="442pt" height="247pt"
 viewBox="0.00 0.00 442.00 246.80" xmlns="http://www.w3.org/2000/svg" xmlns:xlink="http://www.w3.org/1999/xlink">
<g id="graph0" class="graph" transform="scale(1 1) rotate(0) translate(4 242.8)">
<title>dependencies</title>
<polygon fill="white" stroke="transparent" points="-4,4 -4,-242.8 438,-242.8 438,4 -4,4"/>
<text text-anchor="middle" x="217" y="-8.2" font-family="sans-serif" font-size="14.00">dependencies</text>
<g id="clust1" class="cluster">
<title>cluster_NavigationModule</title>
<polygon fill="none" stroke="black" stroke-dasharray="1,5" points="8,-32.8 8,-230.8 426,-230.8 426,-32.8 8,-32.8"/>
</g>
<g id="clust5" class="cluster">
<title>cluster_NavigationModule_exports</title>
<polygon fill="none" stroke="black" points="161,-170.8 161,-222.8 325,-222.8 325,-170.8 161,-170.8"/>
</g>
<g id="clust4" class="cluster">
<title>cluster_NavigationModule_imports</title>
<polygon fill="none" stroke="black" points="184,-40.8 184,-92.8 418,-92.8 418,-40.8 184,-40.8"/>
</g>
<g id="clust2" class="cluster">
<title>cluster_NavigationModule_declarations</title>
<polygon fill="none" stroke="black" points="16,-40.8 16,-92.8 176,-92.8 176,-40.8 16,-40.8"/>
</g>
<!-- NavigationComponent -->
<g id="node1" class="node">
<title>NavigationComponent</title>
<polygon fill="#ffffb3" stroke="black" points="167.54,-84.8 24.46,-84.8 24.46,-48.8 167.54,-48.8 167.54,-84.8"/>
<text text-anchor="middle" x="96" y="-62.6" font-family="Times,serif" font-size="14.00">NavigationComponent</text>
</g>
<!-- NavigationModule -->
<g id="node2" class="node">
<title>NavigationModule</title>
<polygon fill="#8dd3c7" stroke="black" points="303.76,-149.8 300.76,-153.8 279.76,-153.8 276.76,-149.8 182.24,-149.8 182.24,-113.8 303.76,-113.8 303.76,-149.8"/>
<text text-anchor="middle" x="243" y="-127.6" font-family="Times,serif" font-size="14.00">NavigationModule</text>
</g>
<!-- NavigationComponent&#45;&gt;NavigationModule -->
<g id="edge1" class="edge">
<title>NavigationComponent&#45;&gt;NavigationModule</title>
<path fill="none" stroke="black" d="M167.68,-66.8C178.96,-66.8 186.98,-66.8 186.98,-66.8 186.98,-66.8 186.98,-103.69 186.98,-103.69"/>
<polygon fill="black" stroke="black" points="183.48,-103.69 186.98,-113.69 190.48,-103.69 183.48,-103.69"/>
</g>
<!-- NavigationComponent  -->
<g id="node5" class="node">
<title>NavigationComponent </title>
<polygon fill="#fb8072" stroke="black" points="316.54,-214.8 169.46,-214.8 169.46,-178.8 316.54,-178.8 316.54,-214.8"/>
<text text-anchor="middle" x="243" y="-192.6" font-family="Times,serif" font-size="14.00">NavigationComponent </text>
</g>
<!-- NavigationModule&#45;&gt;NavigationComponent  -->
<g id="edge4" class="edge">
<title>NavigationModule&#45;&gt;NavigationComponent </title>
<path fill="none" stroke="black" stroke-dasharray="5,2" d="M243,-149.91C243,-149.91 243,-168.79 243,-168.79"/>
<polygon fill="black" stroke="black" points="239.5,-168.79 243,-178.79 246.5,-168.79 239.5,-168.79"/>
</g>
<!-- ConfigModule -->
<g id="node3" class="node">
<title>ConfigModule</title>
<polygon fill="#8dd3c7" stroke="black" points="410.44,-84.8 407.44,-88.8 386.44,-88.8 383.44,-84.8 311.56,-84.8 311.56,-48.8 410.44,-48.8 410.44,-84.8"/>
<text text-anchor="middle" x="361" y="-62.6" font-family="Times,serif" font-size="14.00">ConfigModule</text>
</g>
<!-- ConfigModule&#45;&gt;NavigationModule -->
<g id="edge2" class="edge">
<title>ConfigModule&#45;&gt;NavigationModule</title>
<path fill="none" stroke="black" d="M311.56,-66.8C304.2,-66.8 299.02,-66.8 299.02,-66.8 299.02,-66.8 299.02,-103.69 299.02,-103.69"/>
<polygon fill="black" stroke="black" points="295.52,-103.69 299.02,-113.69 302.52,-103.69 295.52,-103.69"/>
</g>
<!-- SessionModule -->
<g id="node4" class="node">
<title>SessionModule</title>
<polygon fill="#8dd3c7" stroke="black" points="294.33,-84.8 291.33,-88.8 270.33,-88.8 267.33,-84.8 191.67,-84.8 191.67,-48.8 294.33,-48.8 294.33,-84.8"/>
<text text-anchor="middle" x="243" y="-62.6" font-family="Times,serif" font-size="14.00">SessionModule</text>
</g>
<!-- SessionModule&#45;&gt;NavigationModule -->
<g id="edge3" class="edge">
<title>SessionModule&#45;&gt;NavigationModule</title>
<path fill="none" stroke="black" d="M243,-84.91C243,-84.91 243,-103.79 243,-103.79"/>
<polygon fill="black" stroke="black" points="239.5,-103.79 243,-113.79 246.5,-103.79 239.5,-103.79"/>
</g>
</g>
</svg>
