<?xml version="1.0" encoding="UTF-8" standalone="no"?>
<!DOCTYPE svg PUBLIC "-//W3C//DTD SVG 1.1//EN"
 "http://www.w3.org/Graphics/SVG/1.1/DTD/svg11.dtd">
<!-- Generated by graphviz version 2.47.3 (20210619.1520)
 -->
<!-- Title: dependencies Pages: 1 -->
<svg width="480pt" height="174pt"
 viewBox="0.00 0.00 480.00 173.80" xmlns="http://www.w3.org/2000/svg" xmlns:xlink="http://www.w3.org/1999/xlink">
<g id="graph0" class="graph" transform="scale(1 1) rotate(0) translate(4 169.8)">
<title>dependencies</title>
<polygon fill="white" stroke="transparent" points="-4,4 -4,-169.8 476,-169.8 476,4 -4,4"/>
<text text-anchor="middle" x="236" y="-8.2" font-family="sans-serif" font-size="14.00">dependencies</text>
<g id="clust1" class="cluster">
<title>cluster_ReportingModule</title>
<polygon fill="none" stroke="black" stroke-dasharray="1,5" points="8,-32.8 8,-157.8 464,-157.8 464,-32.8 8,-32.8"/>
</g>
<g id="clust2" class="cluster">
<title>cluster_ReportingModule_declarations</title>
<polygon fill="none" stroke="black" points="138,-40.8 138,-92.8 456,-92.8 456,-40.8 138,-40.8"/>
</g>
<g id="clust5" class="cluster">
<title>cluster_ReportingModule_imports</title>
<polygon fill="none" stroke="black" points="16,-40.8 16,-92.8 130,-92.8 130,-40.8 16,-40.8"/>
</g>
<!-- ReportRowComponent -->
<g id="node1" class="node">
<title>ReportRowComponent</title>
<polygon fill="#ffffb3" stroke="black" points="447.88,-84.8 302.12,-84.8 302.12,-48.8 447.88,-48.8 447.88,-84.8"/>
<text text-anchor="middle" x="375" y="-62.6" font-family="Times,serif" font-size="14.00">ReportRowComponent</text>
</g>
<!-- ReportingModule -->
<g id="node3" class="node">
<title>ReportingModule</title>
<polygon fill="#8dd3c7" stroke="black" points="272.54,-149.8 269.54,-153.8 248.54,-153.8 245.54,-149.8 157.46,-149.8 157.46,-113.8 272.54,-113.8 272.54,-149.8"/>
<text text-anchor="middle" x="215" y="-127.6" font-family="Times,serif" font-size="14.00">ReportingModule</text>
</g>
<!-- ReportRowComponent&#45;&gt;ReportingModule -->
<g id="edge1" class="edge">
<title>ReportRowComponent&#45;&gt;ReportingModule</title>
<path fill="none" stroke="black" d="M375,-84.91C375,-104.14 375,-131.8 375,-131.8 375,-131.8 282.76,-131.8 282.76,-131.8"/>
<polygon fill="black" stroke="black" points="282.76,-128.3 272.76,-131.8 282.76,-135.3 282.76,-128.3"/>
</g>
<!-- ReportingComponent -->
<g id="node2" class="node">
<title>ReportingComponent</title>
<polygon fill="#ffffb3" stroke="black" points="283.83,-84.8 146.17,-84.8 146.17,-48.8 283.83,-48.8 283.83,-84.8"/>
<text text-anchor="middle" x="215" y="-62.6" font-family="Times,serif" font-size="14.00">ReportingComponent</text>
</g>
<!-- ReportingComponent&#45;&gt;ReportingModule -->
<g id="edge2" class="edge">
<title>ReportingComponent&#45;&gt;ReportingModule</title>
<path fill="none" stroke="black" d="M215,-84.91C215,-84.91 215,-103.79 215,-103.79"/>
<polygon fill="black" stroke="black" points="211.5,-103.79 215,-113.79 218.5,-103.79 211.5,-103.79"/>
</g>
<!-- ExportModule -->
<g id="node4" class="node">
<title>ExportModule</title>
<polygon fill="#8dd3c7" stroke="black" points="121.65,-84.8 118.65,-88.8 97.65,-88.8 94.65,-84.8 24.35,-84.8 24.35,-48.8 121.65,-48.8 121.65,-84.8"/>
<text text-anchor="middle" x="73" y="-62.6" font-family="Times,serif" font-size="14.00">ExportModule</text>
</g>
<!-- ExportModule&#45;&gt;ReportingModule -->
<g id="edge3" class="edge">
<title>ExportModule&#45;&gt;ReportingModule</title>
<path fill="none" stroke="black" d="M73,-84.91C73,-104.14 73,-131.8 73,-131.8 73,-131.8 147.24,-131.8 147.24,-131.8"/>
<polygon fill="black" stroke="black" points="147.24,-135.3 157.24,-131.8 147.24,-128.3 147.24,-135.3"/>
</g>
</g>
</svg>
