<?xml version="1.0" encoding="UTF-8" standalone="no"?>
<!DOCTYPE svg PUBLIC "-//W3C//DTD SVG 1.1//EN"
 "http://www.w3.org/Graphics/SVG/1.1/DTD/svg11.dtd">
<!-- Generated by graphviz version 2.47.3 (20210619.1520)
 -->
<!-- Title: dependencies Pages: 1 -->
<svg width="1055pt" height="247pt"
 viewBox="0.00 0.00 1055.00 246.80" xmlns="http://www.w3.org/2000/svg" xmlns:xlink="http://www.w3.org/1999/xlink">
<g id="graph0" class="graph" transform="scale(1 1) rotate(0) translate(4 242.8)">
<title>dependencies</title>
<polygon fill="white" stroke="transparent" points="-4,4 -4,-242.8 1051,-242.8 1051,4 -4,4"/>
<text text-anchor="middle" x="523.5" y="-8.2" font-family="sans-serif" font-size="14.00">dependencies</text>
<g id="clust1" class="cluster">
<title>cluster_SchoolsModule</title>
<polygon fill="none" stroke="black" stroke-dasharray="1,5" points="8,-32.8 8,-230.8 1039,-230.8 1039,-32.8 8,-32.8"/>
</g>
<g id="clust2" class="cluster">
<title>cluster_SchoolsModule_declarations</title>
<polygon fill="none" stroke="black" points="491,-40.8 491,-92.8 1031,-92.8 1031,-40.8 491,-40.8"/>
</g>
<g id="clust6" class="cluster">
<title>cluster_SchoolsModule_imports</title>
<polygon fill="none" stroke="black" points="182,-40.8 182,-92.8 483,-92.8 483,-40.8 182,-40.8"/>
</g>
<g id="clust9" class="cluster">
<title>cluster_SchoolsModule_providers</title>
<polygon fill="none" stroke="black" points="16,-40.8 16,-92.8 174,-92.8 174,-40.8 16,-40.8"/>
</g>
<g id="clust7" class="cluster">
<title>cluster_SchoolsModule_exports</title>
<polygon fill="none" stroke="black" points="408,-170.8 408,-222.8 582,-222.8 582,-170.8 408,-170.8"/>
</g>
<!-- ChildrenOverviewComponent -->
<g id="node1" class="node">
<title>ChildrenOverviewComponent</title>
<polygon fill="#ffffb3" stroke="black" points="1022.52,-84.8 837.48,-84.8 837.48,-48.8 1022.52,-48.8 1022.52,-84.8"/>
<text text-anchor="middle" x="930" y="-62.6" font-family="Times,serif" font-size="14.00">ChildrenOverviewComponent</text>
</g>
<!-- SchoolsModule -->
<g id="node4" class="node">
<title>SchoolsModule</title>
<polygon fill="#8dd3c7" stroke="black" points="546.88,-149.8 543.88,-153.8 522.88,-153.8 519.88,-149.8 443.12,-149.8 443.12,-113.8 546.88,-113.8 546.88,-149.8"/>
<text text-anchor="middle" x="495" y="-127.6" font-family="Times,serif" font-size="14.00">SchoolsModule</text>
</g>
<!-- ChildrenOverviewComponent&#45;&gt;SchoolsModule -->
<g id="edge1" class="edge">
<title>ChildrenOverviewComponent&#45;&gt;SchoolsModule</title>
<path fill="none" stroke="black" d="M930,-85.08C930,-106.12 930,-137.8 930,-137.8 930,-137.8 557.04,-137.8 557.04,-137.8"/>
<polygon fill="black" stroke="black" points="557.04,-134.3 547.04,-137.8 557.04,-141.3 557.04,-134.3"/>
</g>
<!-- SchoolBlockComponent -->
<g id="node2" class="node">
<title>SchoolBlockComponent</title>
<polygon fill="#ffffb3" stroke="black" points="818.66,-84.8 665.34,-84.8 665.34,-48.8 818.66,-48.8 818.66,-84.8"/>
<text text-anchor="middle" x="742" y="-62.6" font-family="Times,serif" font-size="14.00">SchoolBlockComponent</text>
</g>
<!-- SchoolBlockComponent&#45;&gt;SchoolsModule -->
<g id="edge2" class="edge">
<title>SchoolBlockComponent&#45;&gt;SchoolsModule</title>
<path fill="none" stroke="black" d="M742,-84.82C742,-102.17 742,-125.8 742,-125.8 742,-125.8 557.08,-125.8 557.08,-125.8"/>
<polygon fill="black" stroke="black" points="557.08,-122.3 547.08,-125.8 557.08,-129.3 557.08,-122.3"/>
</g>
<!-- SchoolsListComponent -->
<g id="node3" class="node">
<title>SchoolsListComponent</title>
<polygon fill="#ffffb3" stroke="black" points="646.94,-84.8 499.06,-84.8 499.06,-48.8 646.94,-48.8 646.94,-84.8"/>
<text text-anchor="middle" x="573" y="-62.6" font-family="Times,serif" font-size="14.00">SchoolsListComponent</text>
</g>
<!-- SchoolsListComponent&#45;&gt;SchoolsModule -->
<g id="edge3" class="edge">
<title>SchoolsListComponent&#45;&gt;SchoolsModule</title>
<path fill="none" stroke="black" d="M523.11,-84.91C523.11,-84.91 523.11,-103.79 523.11,-103.79"/>
<polygon fill="black" stroke="black" points="519.61,-103.79 523.11,-113.79 526.61,-103.79 519.61,-103.79"/>
</g>
<!-- SchoolBlockComponent  -->
<g id="node7" class="node">
<title>SchoolBlockComponent </title>
<polygon fill="#fb8072" stroke="black" points="573.66,-214.8 416.34,-214.8 416.34,-178.8 573.66,-178.8 573.66,-214.8"/>
<text text-anchor="middle" x="495" y="-192.6" font-family="Times,serif" font-size="14.00">SchoolBlockComponent </text>
</g>
<!-- SchoolsModule&#45;&gt;SchoolBlockComponent  -->
<g id="edge6" class="edge">
<title>SchoolsModule&#45;&gt;SchoolBlockComponent </title>
<path fill="none" stroke="black" stroke-dasharray="5,2" d="M495,-149.91C495,-149.91 495,-168.79 495,-168.79"/>
<polygon fill="black" stroke="black" points="491.5,-168.79 495,-178.79 498.5,-168.79 491.5,-168.79"/>
</g>
<!-- EntityListModule -->
<g id="node5" class="node">
<title>EntityListModule</title>
<polygon fill="#8dd3c7" stroke="black" points="474.55,-84.8 471.55,-88.8 450.55,-88.8 447.55,-84.8 359.45,-84.8 359.45,-48.8 474.55,-48.8 474.55,-84.8"/>
<text text-anchor="middle" x="417" y="-62.6" font-family="Times,serif" font-size="14.00">EntityListModule</text>
</g>
<!-- EntityListModule&#45;&gt;SchoolsModule -->
<g id="edge4" class="edge">
<title>EntityListModule&#45;&gt;SchoolsModule</title>
<path fill="none" stroke="black" d="M458.92,-84.91C458.92,-84.91 458.92,-103.79 458.92,-103.79"/>
<polygon fill="black" stroke="black" points="455.42,-103.79 458.92,-113.79 462.42,-103.79 455.42,-103.79"/>
</g>
<!-- EntitySubrecordModule -->
<g id="node6" class="node">
<title>EntitySubrecordModule</title>
<polygon fill="#8dd3c7" stroke="black" points="341.81,-84.8 338.81,-88.8 317.81,-88.8 314.81,-84.8 190.19,-84.8 190.19,-48.8 341.81,-48.8 341.81,-84.8"/>
<text text-anchor="middle" x="266" y="-62.6" font-family="Times,serif" font-size="14.00">EntitySubrecordModule</text>
</g>
<!-- EntitySubrecordModule&#45;&gt;SchoolsModule -->
<g id="edge5" class="edge">
<title>EntitySubrecordModule&#45;&gt;SchoolsModule</title>
<path fill="none" stroke="black" d="M266,-84.82C266,-102.17 266,-125.8 266,-125.8 266,-125.8 433.04,-125.8 433.04,-125.8"/>
<polygon fill="black" stroke="black" points="433.04,-129.3 443.04,-125.8 433.04,-122.3 433.04,-129.3"/>
</g>
<!-- SchoolsService -->
<g id="node8" class="node">
<title>SchoolsService</title>
<ellipse fill="#fdb462" stroke="black" cx="95" cy="-66.8" rx="70.64" ry="18"/>
<text text-anchor="middle" x="95" y="-62.6" font-family="Times,serif" font-size="14.00">SchoolsService</text>
</g>
<!-- SchoolsService&#45;&gt;SchoolsModule -->
<g id="edge7" class="edge">
<title>SchoolsService&#45;&gt;SchoolsModule</title>
<path fill="none" stroke="black" d="M95,-85.08C95,-106.12 95,-137.8 95,-137.8 95,-137.8 433.12,-137.8 433.12,-137.8"/>
<polygon fill="black" stroke="black" points="433.12,-141.3 443.12,-137.8 433.12,-134.3 433.12,-141.3"/>
</g>
</g>
</svg>
