<?xml version="1.0" encoding="UTF-8" standalone="no"?>
<!DOCTYPE svg PUBLIC "-//W3C//DTD SVG 1.1//EN"
 "http://www.w3.org/Graphics/SVG/1.1/DTD/svg11.dtd">
<!-- Generated by graphviz version 2.47.3 (20210619.1520)
 -->
<!-- Title: dependencies Pages: 1 -->
<svg width="418pt" height="247pt"
 viewBox="0.00 0.00 418.00 246.80" xmlns="http://www.w3.org/2000/svg" xmlns:xlink="http://www.w3.org/1999/xlink">
<g id="graph0" class="graph" transform="scale(1 1) rotate(0) translate(4 242.8)">
<title>dependencies</title>
<polygon fill="white" stroke="transparent" points="-4,4 -4,-242.8 414,-242.8 414,4 -4,4"/>
<text text-anchor="middle" x="205" y="-8.2" font-family="sans-serif" font-size="14.00">dependencies</text>
<g id="clust1" class="cluster">
<title>cluster_TranslationModule</title>
<polygon fill="none" stroke="black" stroke-dasharray="1,5" points="8,-32.8 8,-230.8 402,-230.8 402,-32.8 8,-32.8"/>
</g>
<g id="clust7" class="cluster">
<title>cluster_TranslationModule_providers</title>
<polygon fill="none" stroke="black" points="210,-40.8 210,-92.8 394,-92.8 394,-40.8 210,-40.8"/>
</g>
<g id="clust5" class="cluster">
<title>cluster_TranslationModule_exports</title>
<polygon fill="none" stroke="black" points="110,-170.8 110,-222.8 300,-222.8 300,-170.8 110,-170.8"/>
</g>
<g id="clust2" class="cluster">
<title>cluster_TranslationModule_declarations</title>
<polygon fill="none" stroke="black" points="16,-40.8 16,-92.8 202,-92.8 202,-40.8 16,-40.8"/>
</g>
<!-- LanguageSelectComponent -->
<g id="node1" class="node">
<title>LanguageSelectComponent</title>
<polygon fill="#ffffb3" stroke="black" points="194.24,-84.8 23.76,-84.8 23.76,-48.8 194.24,-48.8 194.24,-84.8"/>
<text text-anchor="middle" x="109" y="-62.6" font-family="Times,serif" font-size="14.00">LanguageSelectComponent</text>
</g>
<!-- TranslationModule -->
<g id="node2" class="node">
<title>TranslationModule</title>
<polygon fill="#8dd3c7" stroke="black" points="266.81,-149.8 263.81,-153.8 242.81,-153.8 239.81,-149.8 143.19,-149.8 143.19,-113.8 266.81,-113.8 266.81,-149.8"/>
<text text-anchor="middle" x="205" y="-127.6" font-family="Times,serif" font-size="14.00">TranslationModule</text>
</g>
<!-- LanguageSelectComponent&#45;&gt;TranslationModule -->
<g id="edge1" class="edge">
<title>LanguageSelectComponent&#45;&gt;TranslationModule</title>
<path fill="none" stroke="black" d="M168.86,-84.91C168.86,-84.91 168.86,-103.79 168.86,-103.79"/>
<polygon fill="black" stroke="black" points="165.36,-103.79 168.86,-113.79 172.36,-103.79 165.36,-103.79"/>
</g>
<!-- LanguageSelectComponent  -->
<g id="node3" class="node">
<title>LanguageSelectComponent </title>
<polygon fill="#fb8072" stroke="black" points="292.24,-214.8 117.76,-214.8 117.76,-178.8 292.24,-178.8 292.24,-214.8"/>
<text text-anchor="middle" x="205" y="-192.6" font-family="Times,serif" font-size="14.00">LanguageSelectComponent </text>
</g>
<!-- TranslationModule&#45;&gt;LanguageSelectComponent  -->
<g id="edge2" class="edge">
<title>TranslationModule&#45;&gt;LanguageSelectComponent </title>
<path fill="none" stroke="black" stroke-dasharray="5,2" d="M205,-149.91C205,-149.91 205,-168.79 205,-168.79"/>
<polygon fill="black" stroke="black" points="201.5,-168.79 205,-178.79 208.5,-168.79 201.5,-168.79"/>
</g>
<!-- TranslationService -->
<g id="node4" class="node">
<title>TranslationService</title>
<ellipse fill="#fdb462" stroke="black" cx="302" cy="-66.8" rx="83.94" ry="18"/>
<text text-anchor="middle" x="302" y="-62.6" font-family="Times,serif" font-size="14.00">TranslationService</text>
</g>
<!-- TranslationService&#45;&gt;TranslationModule -->
<g id="edge3" class="edge">
<title>TranslationService&#45;&gt;TranslationModule</title>
<path fill="none" stroke="black" d="M242.34,-79.64C242.34,-79.64 242.34,-103.32 242.34,-103.32"/>
<polygon fill="black" stroke="black" points="238.84,-103.32 242.34,-113.32 245.84,-103.32 238.84,-103.32"/>
</g>
</g>
</svg>
