<?xml version="1.0" encoding="UTF-8" standalone="no"?>
<!DOCTYPE svg PUBLIC "-//W3C//DTD SVG 1.1//EN"
 "http://www.w3.org/Graphics/SVG/1.1/DTD/svg11.dtd">
<!-- Generated by graphviz version 2.47.3 (20210619.1520)
 -->
<!-- Title: dependencies Pages: 1 -->
<svg width="795pt" height="247pt"
 viewBox="0.00 0.00 795.00 246.80" xmlns="http://www.w3.org/2000/svg" xmlns:xlink="http://www.w3.org/1999/xlink">
<g id="graph0" class="graph" transform="scale(1 1) rotate(0) translate(4 242.8)">
<title>dependencies</title>
<polygon fill="white" stroke="transparent" points="-4,4 -4,-242.8 791,-242.8 791,4 -4,4"/>
<text text-anchor="middle" x="393.5" y="-8.2" font-family="sans-serif" font-size="14.00">dependencies</text>
<g id="clust1" class="cluster">
<title>cluster_FormDialogModule</title>
<polygon fill="none" stroke="black" stroke-dasharray="1,5" points="8,-32.8 8,-230.8 779,-230.8 779,-32.8 8,-32.8"/>
</g>
<g id="clust2" class="cluster">
<title>cluster_FormDialogModule_declarations</title>
<polygon fill="none" stroke="black" points="557,-40.8 557,-92.8 771,-92.8 771,-40.8 557,-40.8"/>
</g>
<g id="clust4" class="cluster">
<title>cluster_FormDialogModule_imports</title>
<polygon fill="none" stroke="black" points="214,-40.8 214,-92.8 549,-92.8 549,-40.8 214,-40.8"/>
</g>
<g id="clust7" class="cluster">
<title>cluster_FormDialogModule_providers</title>
<polygon fill="none" stroke="black" points="16,-40.8 16,-92.8 206,-92.8 206,-40.8 16,-40.8"/>
</g>
<g id="clust5" class="cluster">
<title>cluster_FormDialogModule_exports</title>
<polygon fill="none" stroke="black" points="261,-170.8 261,-222.8 479,-222.8 479,-170.8 261,-170.8"/>
</g>
<!-- FormDialogWrapperComponent -->
<g id="node1" class="node">
<title>FormDialogWrapperComponent</title>
<polygon fill="#ffffb3" stroke="black" points="763.23,-84.8 564.77,-84.8 564.77,-48.8 763.23,-48.8 763.23,-84.8"/>
<text text-anchor="middle" x="664" y="-62.6" font-family="Times,serif" font-size="14.00">FormDialogWrapperComponent</text>
</g>
<!-- FormDialogModule -->
<g id="node2" class="node">
<title>FormDialogModule</title>
<polygon fill="#8dd3c7" stroke="black" points="433.99,-149.8 430.99,-153.8 409.99,-153.8 406.99,-149.8 306.01,-149.8 306.01,-113.8 433.99,-113.8 433.99,-149.8"/>
<text text-anchor="middle" x="370" y="-127.6" font-family="Times,serif" font-size="14.00">FormDialogModule</text>
</g>
<!-- FormDialogWrapperComponent&#45;&gt;FormDialogModule -->
<g id="edge1" class="edge">
<title>FormDialogWrapperComponent&#45;&gt;FormDialogModule</title>
<path fill="none" stroke="black" d="M664,-84.91C664,-104.14 664,-131.8 664,-131.8 664,-131.8 444.16,-131.8 444.16,-131.8"/>
<polygon fill="black" stroke="black" points="444.16,-128.3 434.16,-131.8 444.16,-135.3 444.16,-128.3"/>
</g>
<!-- FormDialogWrapperComponent  -->
<g id="node5" class="node">
<title>FormDialogWrapperComponent </title>
<polygon fill="#fb8072" stroke="black" points="471.23,-214.8 268.77,-214.8 268.77,-178.8 471.23,-178.8 471.23,-214.8"/>
<text text-anchor="middle" x="370" y="-192.6" font-family="Times,serif" font-size="14.00">FormDialogWrapperComponent </text>
</g>
<!-- FormDialogModule&#45;&gt;FormDialogWrapperComponent  -->
<g id="edge4" class="edge">
<title>FormDialogModule&#45;&gt;FormDialogWrapperComponent </title>
<path fill="none" stroke="black" stroke-dasharray="5,2" d="M370,-149.91C370,-149.91 370,-168.79 370,-168.79"/>
<polygon fill="black" stroke="black" points="366.5,-168.79 370,-178.79 373.5,-168.79 366.5,-168.79"/>
</g>
<!-- ConfirmationDialogModule -->
<g id="node3" class="node">
<title>ConfirmationDialogModule</title>
<polygon fill="#8dd3c7" stroke="black" points="540.59,-84.8 537.59,-88.8 516.59,-88.8 513.59,-84.8 367.41,-84.8 367.41,-48.8 540.59,-48.8 540.59,-84.8"/>
<text text-anchor="middle" x="454" y="-62.6" font-family="Times,serif" font-size="14.00">ConfirmationDialogModule</text>
</g>
<!-- ConfirmationDialogModule&#45;&gt;FormDialogModule -->
<g id="edge2" class="edge">
<title>ConfirmationDialogModule&#45;&gt;FormDialogModule</title>
<path fill="none" stroke="black" d="M400.72,-84.91C400.72,-84.91 400.72,-103.79 400.72,-103.79"/>
<polygon fill="black" stroke="black" points="397.22,-103.79 400.72,-113.79 404.22,-103.79 397.22,-103.79"/>
</g>
<!-- PermissionsModule -->
<g id="node4" class="node">
<title>PermissionsModule</title>
<polygon fill="#8dd3c7" stroke="black" points="349.71,-84.8 346.71,-88.8 325.71,-88.8 322.71,-84.8 222.29,-84.8 222.29,-48.8 349.71,-48.8 349.71,-84.8"/>
<text text-anchor="middle" x="286" y="-62.6" font-family="Times,serif" font-size="14.00">PermissionsModule</text>
</g>
<!-- PermissionsModule&#45;&gt;FormDialogModule -->
<g id="edge3" class="edge">
<title>PermissionsModule&#45;&gt;FormDialogModule</title>
<path fill="none" stroke="black" d="M327.81,-84.91C327.81,-84.91 327.81,-103.79 327.81,-103.79"/>
<polygon fill="black" stroke="black" points="324.31,-103.79 327.81,-113.79 331.31,-103.79 324.31,-103.79"/>
</g>
<!-- FormDialogService -->
<g id="node6" class="node">
<title>FormDialogService</title>
<ellipse fill="#fdb462" stroke="black" cx="111" cy="-66.8" rx="87.4" ry="18"/>
<text text-anchor="middle" x="111" y="-62.6" font-family="Times,serif" font-size="14.00">FormDialogService</text>
</g>
<!-- FormDialogService&#45;&gt;FormDialogModule -->
<g id="edge5" class="edge">
<title>FormDialogService&#45;&gt;FormDialogModule</title>
<path fill="none" stroke="black" d="M111,-84.91C111,-104.14 111,-131.8 111,-131.8 111,-131.8 295.98,-131.8 295.98,-131.8"/>
<polygon fill="black" stroke="black" points="295.98,-135.3 305.98,-131.8 295.98,-128.3 295.98,-135.3"/>
</g>
</g>
</svg>
