<?xml version="1.0" encoding="UTF-8" standalone="no"?>
<!DOCTYPE svg PUBLIC "-//W3C//DTD SVG 1.1//EN"
 "http://www.w3.org/Graphics/SVG/1.1/DTD/svg11.dtd">
<!-- Generated by graphviz version 2.47.3 (20210619.1520)
 -->
<!-- Title: dependencies Pages: 1 -->
<svg width="1170pt" height="247pt"
 viewBox="0.00 0.00 1170.00 246.80" xmlns="http://www.w3.org/2000/svg" xmlns:xlink="http://www.w3.org/1999/xlink">
<g id="graph0" class="graph" transform="scale(1 1) rotate(0) translate(4 242.8)">
<title>dependencies</title>
<polygon fill="white" stroke="transparent" points="-4,4 -4,-242.8 1166,-242.8 1166,4 -4,4"/>
<text text-anchor="middle" x="581" y="-8.2" font-family="sans-serif" font-size="14.00">dependencies</text>
<g id="clust1" class="cluster">
<title>cluster_EntityListModule</title>
<polygon fill="none" stroke="black" stroke-dasharray="1,5" points="8,-32.8 8,-230.8 1154,-230.8 1154,-32.8 8,-32.8"/>
</g>
<g id="clust6" class="cluster">
<title>cluster_EntityListModule_exports</title>
<polygon fill="none" stroke="black" points="420,-170.8 420,-222.8 731,-222.8 731,-170.8 420,-170.8"/>
</g>
<g id="clust5" class="cluster">
<title>cluster_EntityListModule_imports</title>
<polygon fill="none" stroke="black" points="329,-40.8 329,-92.8 1146,-92.8 1146,-40.8 329,-40.8"/>
</g>
<g id="clust2" class="cluster">
<title>cluster_EntityListModule_declarations</title>
<polygon fill="none" stroke="black" points="16,-40.8 16,-92.8 321,-92.8 321,-40.8 16,-40.8"/>
</g>
<!-- EntityListComponent -->
<g id="node1" class="node">
<title>EntityListComponent</title>
<polygon fill="#ffffb3" stroke="black" points="312.84,-84.8 175.16,-84.8 175.16,-48.8 312.84,-48.8 312.84,-84.8"/>
<text text-anchor="middle" x="244" y="-62.6" font-family="Times,serif" font-size="14.00">EntityListComponent</text>
</g>
<!-- EntityListModule -->
<g id="node3" class="node">
<title>EntityListModule</title>
<polygon fill="#8dd3c7" stroke="black" points="631.55,-149.8 628.55,-153.8 607.55,-153.8 604.55,-149.8 516.45,-149.8 516.45,-113.8 631.55,-113.8 631.55,-149.8"/>
<text text-anchor="middle" x="574" y="-127.6" font-family="Times,serif" font-size="14.00">EntityListModule</text>
</g>
<!-- EntityListComponent&#45;&gt;EntityListModule -->
<g id="edge1" class="edge">
<title>EntityListComponent&#45;&gt;EntityListModule</title>
<path fill="none" stroke="black" d="M244,-84.91C244,-104.14 244,-131.8 244,-131.8 244,-131.8 506.14,-131.8 506.14,-131.8"/>
<polygon fill="black" stroke="black" points="506.14,-135.3 516.14,-131.8 506.14,-128.3 506.14,-135.3"/>
</g>
<!-- ListFilterComponent -->
<g id="node2" class="node">
<title>ListFilterComponent</title>
<polygon fill="#ffffb3" stroke="black" points="157.94,-84.8 24.06,-84.8 24.06,-48.8 157.94,-48.8 157.94,-84.8"/>
<text text-anchor="middle" x="91" y="-62.6" font-family="Times,serif" font-size="14.00">ListFilterComponent</text>
</g>
<!-- ListFilterComponent&#45;&gt;EntityListModule -->
<g id="edge2" class="edge">
<title>ListFilterComponent&#45;&gt;EntityListModule</title>
<path fill="none" stroke="black" d="M91,-85.09C91,-107.01 91,-140.8 91,-140.8 91,-140.8 506.22,-140.8 506.22,-140.8"/>
<polygon fill="black" stroke="black" points="506.22,-144.3 516.22,-140.8 506.22,-137.3 506.22,-144.3"/>
</g>
<!-- EntityListComponent  -->
<g id="node10" class="node">
<title>EntityListComponent </title>
<polygon fill="#fb8072" stroke="black" points="723.34,-214.8 582.66,-214.8 582.66,-178.8 723.34,-178.8 723.34,-214.8"/>
<text text-anchor="middle" x="653" y="-192.6" font-family="Times,serif" font-size="14.00">EntityListComponent </text>
</g>
<!-- EntityListModule&#45;&gt;EntityListComponent  -->
<g id="edge9" class="edge">
<title>EntityListModule&#45;&gt;EntityListComponent </title>
<path fill="none" stroke="black" stroke-dasharray="5,2" d="M607.18,-149.91C607.18,-149.91 607.18,-168.79 607.18,-168.79"/>
<polygon fill="black" stroke="black" points="603.68,-168.79 607.18,-178.79 610.68,-168.79 603.68,-168.79"/>
</g>
<!-- ListFilterComponent  -->
<g id="node11" class="node">
<title>ListFilterComponent </title>
<polygon fill="#fb8072" stroke="black" points="564.44,-214.8 427.56,-214.8 427.56,-178.8 564.44,-178.8 564.44,-214.8"/>
<text text-anchor="middle" x="496" y="-192.6" font-family="Times,serif" font-size="14.00">ListFilterComponent </text>
</g>
<!-- EntityListModule&#45;&gt;ListFilterComponent  -->
<g id="edge10" class="edge">
<title>EntityListModule&#45;&gt;ListFilterComponent </title>
<path fill="none" stroke="black" stroke-dasharray="5,2" d="M540.35,-149.91C540.35,-149.91 540.35,-168.79 540.35,-168.79"/>
<polygon fill="black" stroke="black" points="536.85,-168.79 540.35,-178.79 543.85,-168.79 536.85,-168.79"/>
</g>
<!-- EntityFormModule -->
<g id="node4" class="node">
<title>EntityFormModule</title>
<polygon fill="#8dd3c7" stroke="black" points="1138.11,-84.8 1135.11,-88.8 1114.11,-88.8 1111.11,-84.8 1013.89,-84.8 1013.89,-48.8 1138.11,-48.8 1138.11,-84.8"/>
<text text-anchor="middle" x="1076" y="-62.6" font-family="Times,serif" font-size="14.00">EntityFormModule</text>
</g>
<!-- EntityFormModule&#45;&gt;EntityListModule -->
<g id="edge3" class="edge">
<title>EntityFormModule&#45;&gt;EntityListModule</title>
<path fill="none" stroke="black" d="M1076,-85.09C1076,-107.01 1076,-140.8 1076,-140.8 1076,-140.8 641.59,-140.8 641.59,-140.8"/>
<polygon fill="black" stroke="black" points="641.59,-137.3 631.59,-140.8 641.59,-144.3 641.59,-137.3"/>
</g>
<!-- EntitySubrecordModule -->
<g id="node5" class="node">
<title>EntitySubrecordModule</title>
<polygon fill="#8dd3c7" stroke="black" points="995.81,-84.8 992.81,-88.8 971.81,-88.8 968.81,-84.8 844.19,-84.8 844.19,-48.8 995.81,-48.8 995.81,-84.8"/>
<text text-anchor="middle" x="920" y="-62.6" font-family="Times,serif" font-size="14.00">EntitySubrecordModule</text>
</g>
<!-- EntitySubrecordModule&#45;&gt;EntityListModule -->
<g id="edge4" class="edge">
<title>EntitySubrecordModule&#45;&gt;EntityListModule</title>
<path fill="none" stroke="black" d="M920,-84.91C920,-104.14 920,-131.8 920,-131.8 920,-131.8 641.91,-131.8 641.91,-131.8"/>
<polygon fill="black" stroke="black" points="641.91,-128.3 631.91,-131.8 641.91,-135.3 641.91,-128.3"/>
</g>
<!-- EntityUtilsModule -->
<g id="node6" class="node">
<title>EntityUtilsModule</title>
<polygon fill="#8dd3c7" stroke="black" points="826.5,-84.8 823.5,-88.8 802.5,-88.8 799.5,-84.8 705.5,-84.8 705.5,-48.8 826.5,-48.8 826.5,-84.8"/>
<text text-anchor="middle" x="766" y="-62.6" font-family="Times,serif" font-size="14.00">EntityUtilsModule</text>
</g>
<!-- EntityUtilsModule&#45;&gt;EntityListModule -->
<g id="edge5" class="edge">
<title>EntityUtilsModule&#45;&gt;EntityListModule</title>
<path fill="none" stroke="black" d="M714.46,-84.83C714.46,-101.2 714.46,-122.8 714.46,-122.8 714.46,-122.8 641.94,-122.8 641.94,-122.8"/>
<polygon fill="black" stroke="black" points="641.94,-119.3 631.94,-122.8 641.94,-126.3 641.94,-119.3"/>
</g>
<!-- ExportModule -->
<g id="node7" class="node">
<title>ExportModule</title>
<polygon fill="#8dd3c7" stroke="black" points="687.65,-84.8 684.65,-88.8 663.65,-88.8 660.65,-84.8 590.35,-84.8 590.35,-48.8 687.65,-48.8 687.65,-84.8"/>
<text text-anchor="middle" x="639" y="-62.6" font-family="Times,serif" font-size="14.00">ExportModule</text>
</g>
<!-- ExportModule&#45;&gt;EntityListModule -->
<g id="edge6" class="edge">
<title>ExportModule&#45;&gt;EntityListModule</title>
<path fill="none" stroke="black" d="M610.97,-84.91C610.97,-84.91 610.97,-103.79 610.97,-103.79"/>
<polygon fill="black" stroke="black" points="607.47,-103.79 610.97,-113.79 614.47,-103.79 607.47,-103.79"/>
</g>
<!-- PermissionsModule -->
<g id="node8" class="node">
<title>PermissionsModule</title>
<polygon fill="#8dd3c7" stroke="black" points="572.71,-84.8 569.71,-88.8 548.71,-88.8 545.71,-84.8 445.29,-84.8 445.29,-48.8 572.71,-48.8 572.71,-84.8"/>
<text text-anchor="middle" x="509" y="-62.6" font-family="Times,serif" font-size="14.00">PermissionsModule</text>
</g>
<!-- PermissionsModule&#45;&gt;EntityListModule -->
<g id="edge7" class="edge">
<title>PermissionsModule&#45;&gt;EntityListModule</title>
<path fill="none" stroke="black" d="M544.42,-84.91C544.42,-84.91 544.42,-103.79 544.42,-103.79"/>
<polygon fill="black" stroke="black" points="540.92,-103.79 544.42,-113.79 547.92,-103.79 540.92,-103.79"/>
</g>
<!-- ViewModule -->
<g id="node9" class="node">
<title>ViewModule</title>
<polygon fill="#8dd3c7" stroke="black" points="426.87,-84.8 423.87,-88.8 402.87,-88.8 399.87,-84.8 337.13,-84.8 337.13,-48.8 426.87,-48.8 426.87,-84.8"/>
<text text-anchor="middle" x="382" y="-62.6" font-family="Times,serif" font-size="14.00">ViewModule</text>
</g>
<!-- ViewModule&#45;&gt;EntityListModule -->
<g id="edge8" class="edge">
<title>ViewModule&#45;&gt;EntityListModule</title>
<path fill="none" stroke="black" d="M382,-84.83C382,-101.2 382,-122.8 382,-122.8 382,-122.8 506.39,-122.8 506.39,-122.8"/>
<polygon fill="black" stroke="black" points="506.39,-126.3 516.39,-122.8 506.39,-119.3 506.39,-126.3"/>
</g>
</g>
</svg>
