<?xml version="1.0" encoding="UTF-8" standalone="no"?>
<!DOCTYPE svg PUBLIC "-//W3C//DTD SVG 1.1//EN"
 "http://www.w3.org/Graphics/SVG/1.1/DTD/svg11.dtd">
<!-- Generated by graphviz version 2.47.3 (20210619.1520)
 -->
<!-- Title: dependencies Pages: 1 -->
<svg width="958pt" height="174pt"
 viewBox="0.00 0.00 958.00 173.80" xmlns="http://www.w3.org/2000/svg" xmlns:xlink="http://www.w3.org/1999/xlink">
<g id="graph0" class="graph" transform="scale(1 1) rotate(0) translate(4 169.8)">
<title>dependencies</title>
<polygon fill="white" stroke="transparent" points="-4,4 -4,-169.8 954,-169.8 954,4 -4,4"/>
<text text-anchor="middle" x="475" y="-8.2" font-family="sans-serif" font-size="14.00">dependencies</text>
<g id="clust1" class="cluster">
<title>cluster_AdminModule</title>
<polygon fill="none" stroke="black" stroke-dasharray="1,5" points="8,-32.8 8,-157.8 942,-157.8 942,-32.8 8,-32.8"/>
</g>
<g id="clust5" class="cluster">
<title>cluster_AdminModule_imports</title>
<polygon fill="none" stroke="black" points="712,-40.8 712,-92.8 934,-92.8 934,-40.8 712,-40.8"/>
</g>
<g id="clust2" class="cluster">
<title>cluster_AdminModule_declarations</title>
<polygon fill="none" stroke="black" points="420,-40.8 420,-92.8 704,-92.8 704,-40.8 420,-40.8"/>
</g>
<g id="clust8" class="cluster">
<title>cluster_AdminModule_providers</title>
<polygon fill="none" stroke="black" points="16,-40.8 16,-92.8 412,-92.8 412,-40.8 16,-40.8"/>
</g>
<!-- AdminComponent -->
<g id="node1" class="node">
<title>AdminComponent</title>
<polygon fill="#ffffb3" stroke="black" points="696.22,-84.8 575.78,-84.8 575.78,-48.8 696.22,-48.8 696.22,-84.8"/>
<text text-anchor="middle" x="636" y="-62.6" font-family="Times,serif" font-size="14.00">AdminComponent</text>
</g>
<!-- AdminModule -->
<g id="node3" class="node">
<title>AdminModule</title>
<polygon fill="#8dd3c7" stroke="black" points="613.44,-149.8 610.44,-153.8 589.44,-153.8 586.44,-149.8 514.56,-149.8 514.56,-113.8 613.44,-113.8 613.44,-149.8"/>
<text text-anchor="middle" x="564" y="-127.6" font-family="Times,serif" font-size="14.00">AdminModule</text>
</g>
<!-- AdminComponent&#45;&gt;AdminModule -->
<g id="edge1" class="edge">
<title>AdminComponent&#45;&gt;AdminModule</title>
<path fill="none" stroke="black" d="M594.55,-84.91C594.55,-84.91 594.55,-103.79 594.55,-103.79"/>
<polygon fill="black" stroke="black" points="591.05,-103.79 594.55,-113.79 598.05,-103.79 591.05,-103.79"/>
</g>
<!-- UserListComponent -->
<g id="node2" class="node">
<title>UserListComponent</title>
<polygon fill="#ffffb3" stroke="black" points="557.54,-84.8 428.46,-84.8 428.46,-48.8 557.54,-48.8 557.54,-84.8"/>
<text text-anchor="middle" x="493" y="-62.6" font-family="Times,serif" font-size="14.00">UserListComponent</text>
</g>
<!-- UserListComponent&#45;&gt;AdminModule -->
<g id="edge2" class="edge">
<title>UserListComponent&#45;&gt;AdminModule</title>
<path fill="none" stroke="black" d="M536.27,-84.91C536.27,-84.91 536.27,-103.79 536.27,-103.79"/>
<polygon fill="black" stroke="black" points="532.77,-103.79 536.27,-113.79 539.77,-103.79 532.77,-103.79"/>
</g>
<!-- AlertsModule -->
<g id="node4" class="node">
<title>AlertsModule</title>
<polygon fill="#8dd3c7" stroke="black" points="925.76,-84.8 922.76,-88.8 901.76,-88.8 898.76,-84.8 832.24,-84.8 832.24,-48.8 925.76,-48.8 925.76,-84.8"/>
<text text-anchor="middle" x="879" y="-62.6" font-family="Times,serif" font-size="14.00">AlertsModule</text>
</g>
<!-- AlertsModule&#45;&gt;AdminModule -->
<g id="edge3" class="edge">
<title>AlertsModule&#45;&gt;AdminModule</title>
<path fill="none" stroke="black" d="M879,-85.08C879,-106.12 879,-137.8 879,-137.8 879,-137.8 623.57,-137.8 623.57,-137.8"/>
<polygon fill="black" stroke="black" points="623.57,-134.3 613.57,-137.8 623.57,-141.3 623.57,-134.3"/>
</g>
<!-- EntityModule -->
<g id="node5" class="node">
<title>EntityModule</title>
<polygon fill="#8dd3c7" stroke="black" points="813.77,-84.8 810.77,-88.8 789.77,-88.8 786.77,-84.8 720.23,-84.8 720.23,-48.8 813.77,-48.8 813.77,-84.8"/>
<text text-anchor="middle" x="767" y="-62.6" font-family="Times,serif" font-size="14.00">EntityModule</text>
</g>
<!-- EntityModule&#45;&gt;AdminModule -->
<g id="edge4" class="edge">
<title>EntityModule&#45;&gt;AdminModule</title>
<path fill="none" stroke="black" d="M767,-84.82C767,-102.17 767,-125.8 767,-125.8 767,-125.8 623.4,-125.8 623.4,-125.8"/>
<polygon fill="black" stroke="black" points="623.4,-122.3 613.4,-125.8 623.4,-129.3 623.4,-122.3"/>
</g>
<!-- BackupService -->
<g id="node6" class="node">
<title>BackupService</title>
<ellipse fill="#fdb462" stroke="black" cx="335" cy="-66.8" rx="69.48" ry="18"/>
<text text-anchor="middle" x="335" y="-62.6" font-family="Times,serif" font-size="14.00">BackupService</text>
</g>
<!-- BackupService&#45;&gt;AdminModule -->
<g id="edge5" class="edge">
<title>BackupService&#45;&gt;AdminModule</title>
<path fill="none" stroke="black" d="M335,-84.82C335,-102.17 335,-125.8 335,-125.8 335,-125.8 504.59,-125.8 504.59,-125.8"/>
<polygon fill="black" stroke="black" points="504.59,-129.3 514.59,-125.8 504.59,-122.3 504.59,-129.3"/>
</g>
<!-- ChildPhotoUpdateService -->
<g id="node7" class="node">
<title>ChildPhotoUpdateService</title>
<ellipse fill="#fdb462" stroke="black" cx="136" cy="-66.8" rx="111.76" ry="18"/>
<text text-anchor="middle" x="136" y="-62.6" font-family="Times,serif" font-size="14.00">ChildPhotoUpdateService</text>
</g>
<!-- ChildPhotoUpdateService&#45;&gt;AdminModule -->
<g id="edge6" class="edge">
<title>ChildPhotoUpdateService&#45;&gt;AdminModule</title>
<path fill="none" stroke="black" d="M136,-85.08C136,-106.12 136,-137.8 136,-137.8 136,-137.8 504.48,-137.8 504.48,-137.8"/>
<polygon fill="black" stroke="black" points="504.48,-141.3 514.48,-137.8 504.48,-134.3 504.48,-141.3"/>
</g>
</g>
</svg>
