<?xml version="1.0" encoding="UTF-8" standalone="no"?>
<!DOCTYPE svg PUBLIC "-//W3C//DTD SVG 1.1//EN"
 "http://www.w3.org/Graphics/SVG/1.1/DTD/svg11.dtd">
<!-- Generated by graphviz version 2.47.3 (20210619.1520)
 -->
<!-- Title: dependencies Pages: 1 -->
<svg width="915pt" height="247pt"
 viewBox="0.00 0.00 915.00 246.80" xmlns="http://www.w3.org/2000/svg" xmlns:xlink="http://www.w3.org/1999/xlink">
<g id="graph0" class="graph" transform="scale(1 1) rotate(0) translate(4 242.8)">
<title>dependencies</title>
<polygon fill="white" stroke="transparent" points="-4,4 -4,-242.8 911,-242.8 911,4 -4,4"/>
<text text-anchor="middle" x="453.5" y="-8.2" font-family="sans-serif" font-size="14.00">dependencies</text>
<g id="clust1" class="cluster">
<title>cluster_SyncStatusModule</title>
<polygon fill="none" stroke="black" stroke-dasharray="1,5" points="8,-32.8 8,-230.8 899,-230.8 899,-32.8 8,-32.8"/>
</g>
<g id="clust7" class="cluster">
<title>cluster_SyncStatusModule_exports</title>
<polygon fill="none" stroke="black" points="433,-170.8 433,-222.8 597,-222.8 597,-170.8 433,-170.8"/>
</g>
<g id="clust6" class="cluster">
<title>cluster_SyncStatusModule_imports</title>
<polygon fill="none" stroke="black" points="661,-40.8 661,-92.8 891,-92.8 891,-40.8 661,-40.8"/>
</g>
<g id="clust2" class="cluster">
<title>cluster_SyncStatusModule_declarations</title>
<polygon fill="none" stroke="black" points="16,-40.8 16,-92.8 653,-92.8 653,-40.8 16,-40.8"/>
</g>
<!-- BackgroundProcessingIndicatorComponent -->
<g id="node1" class="node">
<title>BackgroundProcessingIndicatorComponent</title>
<polygon fill="#ffffb3" stroke="black" points="645.44,-84.8 384.56,-84.8 384.56,-48.8 645.44,-48.8 645.44,-84.8"/>
<text text-anchor="middle" x="515" y="-62.6" font-family="Times,serif" font-size="14.00">BackgroundProcessingIndicatorComponent</text>
</g>
<!-- SyncStatusModule -->
<g id="node4" class="node">
<title>SyncStatusModule</title>
<polygon fill="#8dd3c7" stroke="black" points="575.77,-149.8 572.77,-153.8 551.77,-153.8 548.77,-149.8 454.23,-149.8 454.23,-113.8 575.77,-113.8 575.77,-149.8"/>
<text text-anchor="middle" x="515" y="-127.6" font-family="Times,serif" font-size="14.00">SyncStatusModule</text>
</g>
<!-- BackgroundProcessingIndicatorComponent&#45;&gt;SyncStatusModule -->
<g id="edge1" class="edge">
<title>BackgroundProcessingIndicatorComponent&#45;&gt;SyncStatusModule</title>
<path fill="none" stroke="black" d="M515,-84.91C515,-84.91 515,-103.79 515,-103.79"/>
<polygon fill="black" stroke="black" points="511.5,-103.79 515,-113.79 518.5,-103.79 511.5,-103.79"/>
</g>
<!-- InitialSyncDialogComponent -->
<g id="node2" class="node">
<title>InitialSyncDialogComponent</title>
<polygon fill="#ffffb3" stroke="black" points="366.37,-84.8 185.63,-84.8 185.63,-48.8 366.37,-48.8 366.37,-84.8"/>
<text text-anchor="middle" x="276" y="-62.6" font-family="Times,serif" font-size="14.00">InitialSyncDialogComponent</text>
</g>
<!-- InitialSyncDialogComponent&#45;&gt;SyncStatusModule -->
<g id="edge2" class="edge">
<title>InitialSyncDialogComponent&#45;&gt;SyncStatusModule</title>
<path fill="none" stroke="black" d="M276,-84.82C276,-102.17 276,-125.8 276,-125.8 276,-125.8 444.07,-125.8 444.07,-125.8"/>
<polygon fill="black" stroke="black" points="444.07,-129.3 454.07,-125.8 444.07,-122.3 444.07,-129.3"/>
</g>
<!-- SyncStatusComponent -->
<g id="node3" class="node">
<title>SyncStatusComponent</title>
<polygon fill="#ffffb3" stroke="black" points="167.55,-84.8 24.45,-84.8 24.45,-48.8 167.55,-48.8 167.55,-84.8"/>
<text text-anchor="middle" x="96" y="-62.6" font-family="Times,serif" font-size="14.00">SyncStatusComponent</text>
</g>
<!-- SyncStatusComponent&#45;&gt;SyncStatusModule -->
<g id="edge3" class="edge">
<title>SyncStatusComponent&#45;&gt;SyncStatusModule</title>
<path fill="none" stroke="black" d="M96,-85.08C96,-106.12 96,-137.8 96,-137.8 96,-137.8 444.07,-137.8 444.07,-137.8"/>
<polygon fill="black" stroke="black" points="444.07,-141.3 454.07,-137.8 444.07,-134.3 444.07,-141.3"/>
</g>
<!-- SyncStatusComponent  -->
<g id="node7" class="node">
<title>SyncStatusComponent </title>
<polygon fill="#fb8072" stroke="black" points="588.55,-214.8 441.45,-214.8 441.45,-178.8 588.55,-178.8 588.55,-214.8"/>
<text text-anchor="middle" x="515" y="-192.6" font-family="Times,serif" font-size="14.00">SyncStatusComponent </text>
</g>
<!-- SyncStatusModule&#45;&gt;SyncStatusComponent  -->
<g id="edge6" class="edge">
<title>SyncStatusModule&#45;&gt;SyncStatusComponent </title>
<path fill="none" stroke="black" stroke-dasharray="5,2" d="M515,-149.91C515,-149.91 515,-168.79 515,-168.79"/>
<polygon fill="black" stroke="black" points="511.5,-168.79 515,-178.79 518.5,-168.79 511.5,-168.79"/>
</g>
<!-- AlertsModule -->
<g id="node5" class="node">
<title>AlertsModule</title>
<polygon fill="#8dd3c7" stroke="black" points="882.76,-84.8 879.76,-88.8 858.76,-88.8 855.76,-84.8 789.24,-84.8 789.24,-48.8 882.76,-48.8 882.76,-84.8"/>
<text text-anchor="middle" x="836" y="-62.6" font-family="Times,serif" font-size="14.00">AlertsModule</text>
</g>
<!-- AlertsModule&#45;&gt;SyncStatusModule -->
<g id="edge4" class="edge">
<title>AlertsModule&#45;&gt;SyncStatusModule</title>
<path fill="none" stroke="black" d="M836,-85.08C836,-106.12 836,-137.8 836,-137.8 836,-137.8 586.13,-137.8 586.13,-137.8"/>
<polygon fill="black" stroke="black" points="586.13,-134.3 576.13,-137.8 586.13,-141.3 586.13,-134.3"/>
</g>
<!-- SessionModule -->
<g id="node6" class="node">
<title>SessionModule</title>
<polygon fill="#8dd3c7" stroke="black" points="771.33,-84.8 768.33,-88.8 747.33,-88.8 744.33,-84.8 668.67,-84.8 668.67,-48.8 771.33,-48.8 771.33,-84.8"/>
<text text-anchor="middle" x="720" y="-62.6" font-family="Times,serif" font-size="14.00">SessionModule</text>
</g>
<!-- SessionModule&#45;&gt;SyncStatusModule -->
<g id="edge5" class="edge">
<title>SessionModule&#45;&gt;SyncStatusModule</title>
<path fill="none" stroke="black" d="M720,-84.82C720,-102.17 720,-125.8 720,-125.8 720,-125.8 585.95,-125.8 585.95,-125.8"/>
<polygon fill="black" stroke="black" points="585.95,-122.3 575.95,-125.8 585.95,-129.3 585.95,-122.3"/>
</g>
</g>
</svg>
