<?xml version="1.0" encoding="UTF-8" standalone="no"?>
<!DOCTYPE svg PUBLIC "-//W3C//DTD SVG 1.1//EN"
 "http://www.w3.org/Graphics/SVG/1.1/DTD/svg11.dtd">
<!-- Generated by graphviz version 2.47.3 (20210619.1520)
 -->
<!-- Title: dependencies Pages: 1 -->
<svg width="1313pt" height="247pt"
 viewBox="0.00 0.00 1313.00 246.80" xmlns="http://www.w3.org/2000/svg" xmlns:xlink="http://www.w3.org/1999/xlink">
<g id="graph0" class="graph" transform="scale(1 1) rotate(0) translate(4 242.8)">
<title>dependencies</title>
<polygon fill="white" stroke="transparent" points="-4,4 -4,-242.8 1309,-242.8 1309,4 -4,4"/>
<text text-anchor="middle" x="652.5" y="-8.2" font-family="sans-serif" font-size="14.00">dependencies</text>
<g id="clust1" class="cluster">
<title>cluster_EntitySubrecordModule</title>
<polygon fill="none" stroke="black" stroke-dasharray="1,5" points="8,-32.8 8,-230.8 1297,-230.8 1297,-32.8 8,-32.8"/>
</g>
<g id="clust6" class="cluster">
<title>cluster_EntitySubrecordModule_imports</title>
<polygon fill="none" stroke="black" points="475,-40.8 475,-92.8 1289,-92.8 1289,-40.8 475,-40.8"/>
</g>
<g id="clust7" class="cluster">
<title>cluster_EntitySubrecordModule_exports</title>
<polygon fill="none" stroke="black" points="521,-170.8 521,-222.8 805,-222.8 805,-170.8 521,-170.8"/>
</g>
<g id="clust2" class="cluster">
<title>cluster_EntitySubrecordModule_declarations</title>
<polygon fill="none" stroke="black" points="16,-40.8 16,-92.8 467,-92.8 467,-40.8 16,-40.8"/>
</g>
<!-- EntitySubrecordComponent -->
<g id="node1" class="node">
<title>EntitySubrecordComponent</title>
<polygon fill="#ffffb3" stroke="black" points="458.59,-84.8 285.41,-84.8 285.41,-48.8 458.59,-48.8 458.59,-84.8"/>
<text text-anchor="middle" x="372" y="-62.6" font-family="Times,serif" font-size="14.00">EntitySubrecordComponent</text>
</g>
<!-- EntitySubrecordModule -->
<g id="node4" class="node">
<title>EntitySubrecordModule</title>
<polygon fill="#8dd3c7" stroke="black" points="713.81,-149.8 710.81,-153.8 689.81,-153.8 686.81,-149.8 562.19,-149.8 562.19,-113.8 713.81,-113.8 713.81,-149.8"/>
<text text-anchor="middle" x="638" y="-127.6" font-family="Times,serif" font-size="14.00">EntitySubrecordModule</text>
</g>
<!-- EntitySubrecordComponent&#45;&gt;EntitySubrecordModule -->
<g id="edge1" class="edge">
<title>EntitySubrecordComponent&#45;&gt;EntitySubrecordModule</title>
<path fill="none" stroke="black" d="M372,-84.83C372,-101.2 372,-122.8 372,-122.8 372,-122.8 552.13,-122.8 552.13,-122.8"/>
<polygon fill="black" stroke="black" points="552.13,-126.3 562.13,-122.8 552.13,-119.3 552.13,-126.3"/>
</g>
<!-- KeysPipe -->
<g id="node2" class="node">
<title>KeysPipe</title>
<polygon fill="#ffffb3" stroke="black" points="267.65,-84.8 198.35,-84.8 198.35,-48.8 267.65,-48.8 267.65,-84.8"/>
<text text-anchor="middle" x="233" y="-62.6" font-family="Times,serif" font-size="14.00">KeysPipe</text>
</g>
<!-- KeysPipe&#45;&gt;EntitySubrecordModule -->
<g id="edge2" class="edge">
<title>KeysPipe&#45;&gt;EntitySubrecordModule</title>
<path fill="none" stroke="black" d="M233,-84.91C233,-104.14 233,-131.8 233,-131.8 233,-131.8 552.3,-131.8 552.3,-131.8"/>
<polygon fill="black" stroke="black" points="552.3,-135.3 562.3,-131.8 552.3,-128.3 552.3,-135.3"/>
</g>
<!-- ListPaginatorComponent -->
<g id="node3" class="node">
<title>ListPaginatorComponent</title>
<polygon fill="#ffffb3" stroke="black" points="180.26,-84.8 23.74,-84.8 23.74,-48.8 180.26,-48.8 180.26,-84.8"/>
<text text-anchor="middle" x="102" y="-62.6" font-family="Times,serif" font-size="14.00">ListPaginatorComponent</text>
</g>
<!-- ListPaginatorComponent&#45;&gt;EntitySubrecordModule -->
<g id="edge3" class="edge">
<title>ListPaginatorComponent&#45;&gt;EntitySubrecordModule</title>
<path fill="none" stroke="black" d="M102,-85.09C102,-107.01 102,-140.8 102,-140.8 102,-140.8 552.34,-140.8 552.34,-140.8"/>
<polygon fill="black" stroke="black" points="552.34,-144.3 562.34,-140.8 552.34,-137.3 552.34,-144.3"/>
</g>
<!-- EntitySubrecordComponent  -->
<g id="node11" class="node">
<title>EntitySubrecordComponent </title>
<polygon fill="#fb8072" stroke="black" points="797.09,-214.8 620.91,-214.8 620.91,-178.8 797.09,-178.8 797.09,-214.8"/>
<text text-anchor="middle" x="709" y="-192.6" font-family="Times,serif" font-size="14.00">EntitySubrecordComponent </text>
</g>
<!-- EntitySubrecordModule&#45;&gt;EntitySubrecordComponent  -->
<g id="edge10" class="edge">
<title>EntitySubrecordModule&#45;&gt;EntitySubrecordComponent </title>
<path fill="none" stroke="black" stroke-dasharray="5,2" d="M667.18,-149.91C667.18,-149.91 667.18,-168.79 667.18,-168.79"/>
<polygon fill="black" stroke="black" points="663.68,-168.79 667.18,-178.79 670.68,-168.79 663.68,-168.79"/>
</g>
<!-- KeysPipe  -->
<g id="node12" class="node">
<title>KeysPipe </title>
<polygon fill="#fb8072" stroke="black" points="602.65,-214.8 529.35,-214.8 529.35,-178.8 602.65,-178.8 602.65,-214.8"/>
<text text-anchor="middle" x="566" y="-192.6" font-family="Times,serif" font-size="14.00">KeysPipe </text>
</g>
<!-- EntitySubrecordModule&#45;&gt;KeysPipe  -->
<g id="edge11" class="edge">
<title>EntitySubrecordModule&#45;&gt;KeysPipe </title>
<path fill="none" stroke="black" stroke-dasharray="5,2" d="M582.46,-149.91C582.46,-149.91 582.46,-168.79 582.46,-168.79"/>
<polygon fill="black" stroke="black" points="578.96,-168.79 582.46,-178.79 585.96,-168.79 578.96,-168.79"/>
</g>
<!-- AlertsModule -->
<g id="node5" class="node">
<title>AlertsModule</title>
<polygon fill="#8dd3c7" stroke="black" points="1280.76,-84.8 1277.76,-88.8 1256.76,-88.8 1253.76,-84.8 1187.24,-84.8 1187.24,-48.8 1280.76,-48.8 1280.76,-84.8"/>
<text text-anchor="middle" x="1234" y="-62.6" font-family="Times,serif" font-size="14.00">AlertsModule</text>
</g>
<!-- AlertsModule&#45;&gt;EntitySubrecordModule -->
<g id="edge4" class="edge">
<title>AlertsModule&#45;&gt;EntitySubrecordModule</title>
<path fill="none" stroke="black" d="M1234,-85.09C1234,-107.01 1234,-140.8 1234,-140.8 1234,-140.8 723.79,-140.8 723.79,-140.8"/>
<polygon fill="black" stroke="black" points="723.79,-137.3 713.79,-140.8 723.79,-144.3 723.79,-137.3"/>
</g>
<!-- ConfirmationDialogModule -->
<g id="node6" class="node">
<title>ConfirmationDialogModule</title>
<polygon fill="#8dd3c7" stroke="black" points="1169.59,-84.8 1166.59,-88.8 1145.59,-88.8 1142.59,-84.8 996.41,-84.8 996.41,-48.8 1169.59,-48.8 1169.59,-84.8"/>
<text text-anchor="middle" x="1083" y="-62.6" font-family="Times,serif" font-size="14.00">ConfirmationDialogModule</text>
</g>
<!-- ConfirmationDialogModule&#45;&gt;EntitySubrecordModule -->
<g id="edge5" class="edge">
<title>ConfirmationDialogModule&#45;&gt;EntitySubrecordModule</title>
<path fill="none" stroke="black" d="M1083,-84.91C1083,-104.14 1083,-131.8 1083,-131.8 1083,-131.8 723.74,-131.8 723.74,-131.8"/>
<polygon fill="black" stroke="black" points="723.74,-128.3 713.74,-131.8 723.74,-135.3 723.74,-128.3"/>
</g>
<!-- EntityDetailsModule -->
<g id="node7" class="node">
<title>EntityDetailsModule</title>
<polygon fill="#8dd3c7" stroke="black" points="978.93,-84.8 975.93,-88.8 954.93,-88.8 951.93,-84.8 845.07,-84.8 845.07,-48.8 978.93,-48.8 978.93,-84.8"/>
<text text-anchor="middle" x="912" y="-62.6" font-family="Times,serif" font-size="14.00">EntityDetailsModule</text>
</g>
<!-- EntityDetailsModule&#45;&gt;EntitySubrecordModule -->
<g id="edge6" class="edge">
<title>EntityDetailsModule&#45;&gt;EntitySubrecordModule</title>
<path fill="none" stroke="black" d="M912,-84.83C912,-101.2 912,-122.8 912,-122.8 912,-122.8 723.96,-122.8 723.96,-122.8"/>
<polygon fill="black" stroke="black" points="723.96,-119.3 713.96,-122.8 723.96,-126.3 723.96,-119.3"/>
</g>
<!-- EntityFormModule -->
<g id="node8" class="node">
<title>EntityFormModule</title>
<polygon fill="#8dd3c7" stroke="black" points="827.11,-84.8 824.11,-88.8 803.11,-88.8 800.11,-84.8 702.89,-84.8 702.89,-48.8 827.11,-48.8 827.11,-84.8"/>
<text text-anchor="middle" x="765" y="-62.6" font-family="Times,serif" font-size="14.00">EntityFormModule</text>
</g>
<!-- EntityFormModule&#45;&gt;EntitySubrecordModule -->
<g id="edge7" class="edge">
<title>EntityFormModule&#45;&gt;EntitySubrecordModule</title>
<path fill="none" stroke="black" d="M708.3,-84.91C708.3,-84.91 708.3,-103.79 708.3,-103.79"/>
<polygon fill="black" stroke="black" points="704.8,-103.79 708.3,-113.79 711.8,-103.79 704.8,-103.79"/>
</g>
<!-- EntityModule -->
<g id="node9" class="node">
<title>EntityModule</title>
<polygon fill="#8dd3c7" stroke="black" points="684.77,-84.8 681.77,-88.8 660.77,-88.8 657.77,-84.8 591.23,-84.8 591.23,-48.8 684.77,-48.8 684.77,-84.8"/>
<text text-anchor="middle" x="638" y="-62.6" font-family="Times,serif" font-size="14.00">EntityModule</text>
</g>
<!-- EntityModule&#45;&gt;EntitySubrecordModule -->
<g id="edge8" class="edge">
<title>EntityModule&#45;&gt;EntitySubrecordModule</title>
<path fill="none" stroke="black" d="M638,-84.91C638,-84.91 638,-103.79 638,-103.79"/>
<polygon fill="black" stroke="black" points="634.5,-103.79 638,-113.79 641.5,-103.79 634.5,-103.79"/>
</g>
<!-- ViewModule -->
<g id="node10" class="node">
<title>ViewModule</title>
<polygon fill="#8dd3c7" stroke="black" points="572.87,-84.8 569.87,-88.8 548.87,-88.8 545.87,-84.8 483.13,-84.8 483.13,-48.8 572.87,-48.8 572.87,-84.8"/>
<text text-anchor="middle" x="528" y="-62.6" font-family="Times,serif" font-size="14.00">ViewModule</text>
</g>
<!-- ViewModule&#45;&gt;EntitySubrecordModule -->
<g id="edge9" class="edge">
<title>ViewModule&#45;&gt;EntitySubrecordModule</title>
<path fill="none" stroke="black" d="M567.64,-84.91C567.64,-84.91 567.64,-103.79 567.64,-103.79"/>
<polygon fill="black" stroke="black" points="564.14,-103.79 567.64,-113.79 571.14,-103.79 564.14,-103.79"/>
</g>
</g>
</svg>
