<?xml version="1.0" encoding="UTF-8" standalone="no"?>
<!DOCTYPE svg PUBLIC "-//W3C//DTD SVG 1.1//EN"
 "http://www.w3.org/Graphics/SVG/1.1/DTD/svg11.dtd">
<!-- Generated by graphviz version 2.47.3 (20210619.1520)
 -->
<!-- Title: dependencies Pages: 1 -->
<svg width="966pt" height="174pt"
 viewBox="0.00 0.00 966.00 173.80" xmlns="http://www.w3.org/2000/svg" xmlns:xlink="http://www.w3.org/1999/xlink">
<g id="graph0" class="graph" transform="scale(1 1) rotate(0) translate(4 169.8)">
<title>dependencies</title>
<polygon fill="white" stroke="transparent" points="-4,4 -4,-169.8 962,-169.8 962,4 -4,4"/>
<text text-anchor="middle" x="479" y="-8.2" font-family="sans-serif" font-size="14.00">dependencies</text>
<g id="clust1" class="cluster">
<title>cluster_EntityDetailsModule</title>
<polygon fill="none" stroke="black" stroke-dasharray="1,5" points="8,-32.8 8,-157.8 950,-157.8 950,-32.8 8,-32.8"/>
</g>
<g id="clust2" class="cluster">
<title>cluster_EntityDetailsModule_declarations</title>
<polygon fill="none" stroke="black" points="641,-40.8 641,-92.8 942,-92.8 942,-40.8 641,-40.8"/>
</g>
<g id="clust5" class="cluster">
<title>cluster_EntityDetailsModule_imports</title>
<polygon fill="none" stroke="black" points="16,-40.8 16,-92.8 633,-92.8 633,-40.8 16,-40.8"/>
</g>
<!-- EntityDetailsComponent -->
<g id="node1" class="node">
<title>EntityDetailsComponent</title>
<polygon fill="#ffffb3" stroke="black" points="933.71,-84.8 778.29,-84.8 778.29,-48.8 933.71,-48.8 933.71,-84.8"/>
<text text-anchor="middle" x="856" y="-62.6" font-family="Times,serif" font-size="14.00">EntityDetailsComponent</text>
</g>
<!-- EntityDetailsModule -->
<g id="node3" class="node">
<title>EntityDetailsModule</title>
<polygon fill="#8dd3c7" stroke="black" points="517.93,-149.8 514.93,-153.8 493.93,-153.8 490.93,-149.8 384.07,-149.8 384.07,-113.8 517.93,-113.8 517.93,-149.8"/>
<text text-anchor="middle" x="451" y="-127.6" font-family="Times,serif" font-size="14.00">EntityDetailsModule</text>
</g>
<!-- EntityDetailsComponent&#45;&gt;EntityDetailsModule -->
<g id="edge1" class="edge">
<title>EntityDetailsComponent&#45;&gt;EntityDetailsModule</title>
<path fill="none" stroke="black" d="M856,-85.09C856,-107.01 856,-140.8 856,-140.8 856,-140.8 527.88,-140.8 527.88,-140.8"/>
<polygon fill="black" stroke="black" points="527.88,-137.3 517.88,-140.8 527.88,-144.3 527.88,-137.3"/>
</g>
<!-- FormComponent -->
<g id="node2" class="node">
<title>FormComponent</title>
<polygon fill="#ffffb3" stroke="black" points="760.67,-84.8 649.33,-84.8 649.33,-48.8 760.67,-48.8 760.67,-84.8"/>
<text text-anchor="middle" x="705" y="-62.6" font-family="Times,serif" font-size="14.00">FormComponent</text>
</g>
<!-- FormComponent&#45;&gt;EntityDetailsModule -->
<g id="edge2" class="edge">
<title>FormComponent&#45;&gt;EntityDetailsModule</title>
<path fill="none" stroke="black" d="M705,-84.91C705,-104.14 705,-131.8 705,-131.8 705,-131.8 527.74,-131.8 527.74,-131.8"/>
<polygon fill="black" stroke="black" points="527.74,-128.3 517.74,-131.8 527.74,-135.3 527.74,-128.3"/>
</g>
<!-- AlertsModule -->
<g id="node4" class="node">
<title>AlertsModule</title>
<polygon fill="#8dd3c7" stroke="black" points="624.76,-84.8 621.76,-88.8 600.76,-88.8 597.76,-84.8 531.24,-84.8 531.24,-48.8 624.76,-48.8 624.76,-84.8"/>
<text text-anchor="middle" x="578" y="-62.6" font-family="Times,serif" font-size="14.00">AlertsModule</text>
</g>
<!-- AlertsModule&#45;&gt;EntityDetailsModule -->
<g id="edge3" class="edge">
<title>AlertsModule&#45;&gt;EntityDetailsModule</title>
<path fill="none" stroke="black" d="M578,-84.83C578,-101.2 578,-122.8 578,-122.8 578,-122.8 527.85,-122.8 527.85,-122.8"/>
<polygon fill="black" stroke="black" points="527.85,-119.3 517.85,-122.8 527.85,-126.3 527.85,-119.3"/>
</g>
<!-- EntityFormModule -->
<g id="node5" class="node">
<title>EntityFormModule</title>
<polygon fill="#8dd3c7" stroke="black" points="513.11,-84.8 510.11,-88.8 489.11,-88.8 486.11,-84.8 388.89,-84.8 388.89,-48.8 513.11,-48.8 513.11,-84.8"/>
<text text-anchor="middle" x="451" y="-62.6" font-family="Times,serif" font-size="14.00">EntityFormModule</text>
</g>
<!-- EntityFormModule&#45;&gt;EntityDetailsModule -->
<g id="edge4" class="edge">
<title>EntityFormModule&#45;&gt;EntityDetailsModule</title>
<path fill="none" stroke="black" d="M451,-84.91C451,-84.91 451,-103.79 451,-103.79"/>
<polygon fill="black" stroke="black" points="447.5,-103.79 451,-113.79 454.5,-103.79 447.5,-103.79"/>
</g>
<!-- EntityModule -->
<g id="node6" class="node">
<title>EntityModule</title>
<polygon fill="#8dd3c7" stroke="black" points="370.77,-84.8 367.77,-88.8 346.77,-88.8 343.77,-84.8 277.23,-84.8 277.23,-48.8 370.77,-48.8 370.77,-84.8"/>
<text text-anchor="middle" x="324" y="-62.6" font-family="Times,serif" font-size="14.00">EntityModule</text>
</g>
<!-- EntityModule&#45;&gt;EntityDetailsModule -->
<g id="edge5" class="edge">
<title>EntityModule&#45;&gt;EntityDetailsModule</title>
<path fill="none" stroke="black" d="M324,-84.83C324,-101.2 324,-122.8 324,-122.8 324,-122.8 374.15,-122.8 374.15,-122.8"/>
<polygon fill="black" stroke="black" points="374.15,-126.3 384.15,-122.8 374.15,-119.3 374.15,-126.3"/>
</g>
<!-- PermissionsModule -->
<g id="node7" class="node">
<title>PermissionsModule</title>
<polygon fill="#8dd3c7" stroke="black" points="259.71,-84.8 256.71,-88.8 235.71,-88.8 232.71,-84.8 132.29,-84.8 132.29,-48.8 259.71,-48.8 259.71,-84.8"/>
<text text-anchor="middle" x="196" y="-62.6" font-family="Times,serif" font-size="14.00">PermissionsModule</text>
</g>
<!-- PermissionsModule&#45;&gt;EntityDetailsModule -->
<g id="edge6" class="edge">
<title>PermissionsModule&#45;&gt;EntityDetailsModule</title>
<path fill="none" stroke="black" d="M196,-84.91C196,-104.14 196,-131.8 196,-131.8 196,-131.8 374,-131.8 374,-131.8"/>
<polygon fill="black" stroke="black" points="374,-135.3 384,-131.8 374,-128.3 374,-135.3"/>
</g>
<!-- ViewModule -->
<g id="node8" class="node">
<title>ViewModule</title>
<polygon fill="#8dd3c7" stroke="black" points="113.87,-84.8 110.87,-88.8 89.87,-88.8 86.87,-84.8 24.13,-84.8 24.13,-48.8 113.87,-48.8 113.87,-84.8"/>
<text text-anchor="middle" x="69" y="-62.6" font-family="Times,serif" font-size="14.00">ViewModule</text>
</g>
<!-- ViewModule&#45;&gt;EntityDetailsModule -->
<g id="edge7" class="edge">
<title>ViewModule&#45;&gt;EntityDetailsModule</title>
<path fill="none" stroke="black" d="M69,-85.09C69,-107.01 69,-140.8 69,-140.8 69,-140.8 374.02,-140.8 374.02,-140.8"/>
<polygon fill="black" stroke="black" points="374.02,-144.3 384.02,-140.8 374.02,-137.3 374.02,-144.3"/>
</g>
</g>
</svg>
