<?xml version="1.0" encoding="UTF-8" standalone="no"?>
<!DOCTYPE svg PUBLIC "-//W3C//DTD SVG 1.1//EN"
 "http://www.w3.org/Graphics/SVG/1.1/DTD/svg11.dtd">
<!-- Generated by graphviz version 2.47.3 (20210619.1520)
 -->
<!-- Title: dependencies Pages: 1 -->
<svg width="2271pt" height="174pt"
 viewBox="0.00 0.00 2271.00 173.80" xmlns="http://www.w3.org/2000/svg" xmlns:xlink="http://www.w3.org/1999/xlink">
<g id="graph0" class="graph" transform="scale(1 1) rotate(0) translate(4 169.8)">
<title>dependencies</title>
<polygon fill="white" stroke="transparent" points="-4,4 -4,-169.8 2267,-169.8 2267,4 -4,4"/>
<text text-anchor="middle" x="1131.5" y="-8.2" font-family="sans-serif" font-size="14.00">dependencies</text>
<g id="clust1" class="cluster">
<title>cluster_NotesModule</title>
<polygon fill="none" stroke="black" stroke-dasharray="1,5" points="8,-32.8 8,-157.8 2255,-157.8 2255,-32.8 8,-32.8"/>
</g>
<g id="clust7" class="cluster">
<title>cluster_NotesModule_imports</title>
<polygon fill="none" stroke="black" points="896,-40.8 896,-92.8 2247,-92.8 2247,-40.8 896,-40.8"/>
</g>
<g id="clust2" class="cluster">
<title>cluster_NotesModule_declarations</title>
<polygon fill="none" stroke="black" points="16,-40.8 16,-92.8 888,-92.8 888,-40.8 16,-40.8"/>
</g>
<!-- ChildMeetingNoteAttendanceComponent -->
<g id="node1" class="node">
<title>ChildMeetingNoteAttendanceComponent</title>
<polygon fill="#ffffb3" stroke="black" points="880.06,-84.8 629.94,-84.8 629.94,-48.8 880.06,-48.8 880.06,-84.8"/>
<text text-anchor="middle" x="755" y="-62.6" font-family="Times,serif" font-size="14.00">ChildMeetingNoteAttendanceComponent</text>
</g>
<!-- NotesModule -->
<g id="node5" class="node">
<title>NotesModule</title>
<polygon fill="#8dd3c7" stroke="black" points="1278.21,-149.8 1275.21,-153.8 1254.21,-153.8 1251.21,-149.8 1185.79,-149.8 1185.79,-113.8 1278.21,-113.8 1278.21,-149.8"/>
<text text-anchor="middle" x="1232" y="-127.6" font-family="Times,serif" font-size="14.00">NotesModule</text>
</g>
<!-- ChildMeetingNoteAttendanceComponent&#45;&gt;NotesModule -->
<g id="edge1" class="edge">
<title>ChildMeetingNoteAttendanceComponent&#45;&gt;NotesModule</title>
<path fill="none" stroke="black" d="M755,-85.02C755,-103.63 755,-129.8 755,-129.8 755,-129.8 1175.83,-129.8 1175.83,-129.8"/>
<polygon fill="black" stroke="black" points="1175.83,-133.3 1185.83,-129.8 1175.83,-126.3 1175.83,-133.3"/>
</g>
<!-- NoteAttendanceCountBlockComponent -->
<g id="node2" class="node">
<title>NoteAttendanceCountBlockComponent</title>
<polygon fill="#ffffb3" stroke="black" points="611.96,-84.8 372.04,-84.8 372.04,-48.8 611.96,-48.8 611.96,-84.8"/>
<text text-anchor="middle" x="492" y="-62.6" font-family="Times,serif" font-size="14.00">NoteAttendanceCountBlockComponent</text>
</g>
<!-- NoteAttendanceCountBlockComponent&#45;&gt;NotesModule -->
<g id="edge2" class="edge">
<title>NoteAttendanceCountBlockComponent&#45;&gt;NotesModule</title>
<path fill="none" stroke="black" d="M492,-85.02C492,-105.17 492,-134.8 492,-134.8 492,-134.8 1175.71,-134.8 1175.71,-134.8"/>
<polygon fill="black" stroke="black" points="1175.71,-138.3 1185.71,-134.8 1175.71,-131.3 1175.71,-138.3"/>
</g>
<!-- NoteDetailsComponent -->
<g id="node3" class="node">
<title>NoteDetailsComponent</title>
<polygon fill="#ffffb3" stroke="black" points="354.2,-84.8 205.8,-84.8 205.8,-48.8 354.2,-48.8 354.2,-84.8"/>
<text text-anchor="middle" x="280" y="-62.6" font-family="Times,serif" font-size="14.00">NoteDetailsComponent</text>
</g>
<!-- NoteDetailsComponent&#45;&gt;NotesModule -->
<g id="edge3" class="edge">
<title>NoteDetailsComponent&#45;&gt;NotesModule</title>
<path fill="none" stroke="black" d="M280,-84.84C280,-106.46 280,-139.8 280,-139.8 280,-139.8 1175.76,-139.8 1175.76,-139.8"/>
<polygon fill="black" stroke="black" points="1175.76,-143.3 1185.76,-139.8 1175.76,-136.3 1175.76,-143.3"/>
</g>
<!-- NotesManagerComponent -->
<g id="node4" class="node">
<title>NotesManagerComponent</title>
<polygon fill="#ffffb3" stroke="black" points="187.74,-84.8 24.26,-84.8 24.26,-48.8 187.74,-48.8 187.74,-84.8"/>
<text text-anchor="middle" x="106" y="-62.6" font-family="Times,serif" font-size="14.00">NotesManagerComponent</text>
</g>
<!-- NotesManagerComponent&#45;&gt;NotesModule -->
<g id="edge4" class="edge">
<title>NotesManagerComponent&#45;&gt;NotesModule</title>
<path fill="none" stroke="black" d="M106,-84.89C106,-107.93 106,-144.8 106,-144.8 106,-144.8 1175.76,-144.8 1175.76,-144.8"/>
<polygon fill="black" stroke="black" points="1175.76,-148.3 1185.76,-144.8 1175.76,-141.3 1175.76,-148.3"/>
</g>
<!-- AttendanceModule -->
<g id="node6" class="node">
<title>AttendanceModule</title>
<polygon fill="#8dd3c7" stroke="black" points="2238.8,-84.8 2235.8,-88.8 2214.8,-88.8 2211.8,-84.8 2115.2,-84.8 2115.2,-48.8 2238.8,-48.8 2238.8,-84.8"/>
<text text-anchor="middle" x="2177" y="-62.6" font-family="Times,serif" font-size="14.00">AttendanceModule</text>
</g>
<!-- AttendanceModule&#45;&gt;NotesModule -->
<g id="edge5" class="edge">
<title>AttendanceModule&#45;&gt;NotesModule</title>
<path fill="none" stroke="black" d="M2177,-84.89C2177,-107.93 2177,-144.8 2177,-144.8 2177,-144.8 1288.22,-144.8 1288.22,-144.8"/>
<polygon fill="black" stroke="black" points="1288.22,-141.3 1278.22,-144.8 1288.22,-148.3 1288.22,-141.3"/>
</g>
<!-- ChildrenModule -->
<g id="node7" class="node">
<title>ChildrenModule</title>
<polygon fill="#8dd3c7" stroke="black" points="2097.04,-84.8 2094.04,-88.8 2073.04,-88.8 2070.04,-84.8 1988.96,-84.8 1988.96,-48.8 2097.04,-48.8 2097.04,-84.8"/>
<text text-anchor="middle" x="2043" y="-62.6" font-family="Times,serif" font-size="14.00">ChildrenModule</text>
</g>
<!-- ChildrenModule&#45;&gt;NotesModule -->
<g id="edge6" class="edge">
<title>ChildrenModule&#45;&gt;NotesModule</title>
<path fill="none" stroke="black" d="M2043,-84.84C2043,-106.46 2043,-139.8 2043,-139.8 2043,-139.8 1288.22,-139.8 1288.22,-139.8"/>
<polygon fill="black" stroke="black" points="1288.22,-136.3 1278.22,-139.8 1288.22,-143.3 1288.22,-136.3"/>
</g>
<!-- ConfigurableEnumModule -->
<g id="node8" class="node">
<title>ConfigurableEnumModule</title>
<polygon fill="#8dd3c7" stroke="black" points="1970.36,-84.8 1967.36,-88.8 1946.36,-88.8 1943.36,-84.8 1803.64,-84.8 1803.64,-48.8 1970.36,-48.8 1970.36,-84.8"/>
<text text-anchor="middle" x="1887" y="-62.6" font-family="Times,serif" font-size="14.00">ConfigurableEnumModule</text>
</g>
<!-- ConfigurableEnumModule&#45;&gt;NotesModule -->
<g id="edge7" class="edge">
<title>ConfigurableEnumModule&#45;&gt;NotesModule</title>
<path fill="none" stroke="black" d="M1887,-85.02C1887,-105.17 1887,-134.8 1887,-134.8 1887,-134.8 1288.32,-134.8 1288.32,-134.8"/>
<polygon fill="black" stroke="black" points="1288.32,-131.3 1278.32,-134.8 1288.32,-138.3 1288.32,-131.3"/>
</g>
<!-- ConfirmationDialogModule -->
<g id="node9" class="node">
<title>ConfirmationDialogModule</title>
<polygon fill="#8dd3c7" stroke="black" points="1785.59,-84.8 1782.59,-88.8 1761.59,-88.8 1758.59,-84.8 1612.41,-84.8 1612.41,-48.8 1785.59,-48.8 1785.59,-84.8"/>
<text text-anchor="middle" x="1699" y="-62.6" font-family="Times,serif" font-size="14.00">ConfirmationDialogModule</text>
</g>
<!-- ConfirmationDialogModule&#45;&gt;NotesModule -->
<g id="edge8" class="edge">
<title>ConfirmationDialogModule&#45;&gt;NotesModule</title>
<path fill="none" stroke="black" d="M1699,-85.02C1699,-103.63 1699,-129.8 1699,-129.8 1699,-129.8 1288.49,-129.8 1288.49,-129.8"/>
<polygon fill="black" stroke="black" points="1288.49,-126.3 1278.49,-129.8 1288.49,-133.3 1288.49,-126.3"/>
</g>
<!-- EntityListModule -->
<g id="node10" class="node">
<title>EntityListModule</title>
<polygon fill="#8dd3c7" stroke="black" points="1594.55,-84.8 1591.55,-88.8 1570.55,-88.8 1567.55,-84.8 1479.45,-84.8 1479.45,-48.8 1594.55,-48.8 1594.55,-84.8"/>
<text text-anchor="middle" x="1537" y="-62.6" font-family="Times,serif" font-size="14.00">EntityListModule</text>
</g>
<!-- EntityListModule&#45;&gt;NotesModule -->
<g id="edge9" class="edge">
<title>EntityListModule&#45;&gt;NotesModule</title>
<path fill="none" stroke="black" d="M1537,-84.83C1537,-101.86 1537,-124.8 1537,-124.8 1537,-124.8 1288.32,-124.8 1288.32,-124.8"/>
<polygon fill="black" stroke="black" points="1288.32,-121.3 1278.32,-124.8 1288.32,-128.3 1288.32,-121.3"/>
</g>
<!-- EntitySubrecordModule -->
<g id="node11" class="node">
<title>EntitySubrecordModule</title>
<polygon fill="#8dd3c7" stroke="black" points="1461.81,-84.8 1458.81,-88.8 1437.81,-88.8 1434.81,-84.8 1310.19,-84.8 1310.19,-48.8 1461.81,-48.8 1461.81,-84.8"/>
<text text-anchor="middle" x="1386" y="-62.6" font-family="Times,serif" font-size="14.00">EntitySubrecordModule</text>
</g>
<!-- EntitySubrecordModule&#45;&gt;NotesModule -->
<g id="edge10" class="edge">
<title>EntitySubrecordModule&#45;&gt;NotesModule</title>
<path fill="none" stroke="black" d="M1386,-85.04C1386,-100.37 1386,-119.8 1386,-119.8 1386,-119.8 1288.21,-119.8 1288.21,-119.8"/>
<polygon fill="black" stroke="black" points="1288.21,-116.3 1278.21,-119.8 1288.21,-123.3 1288.21,-116.3"/>
</g>
<!-- EntityUtilsModule -->
<g id="node12" class="node">
<title>EntityUtilsModule</title>
<polygon fill="#8dd3c7" stroke="black" points="1292.5,-84.8 1289.5,-88.8 1268.5,-88.8 1265.5,-84.8 1171.5,-84.8 1171.5,-48.8 1292.5,-48.8 1292.5,-84.8"/>
<text text-anchor="middle" x="1232" y="-62.6" font-family="Times,serif" font-size="14.00">EntityUtilsModule</text>
</g>
<!-- EntityUtilsModule&#45;&gt;NotesModule -->
<g id="edge11" class="edge">
<title>EntityUtilsModule&#45;&gt;NotesModule</title>
<path fill="none" stroke="black" d="M1232,-84.91C1232,-84.91 1232,-103.79 1232,-103.79"/>
<polygon fill="black" stroke="black" points="1228.5,-103.79 1232,-113.79 1235.5,-103.79 1228.5,-103.79"/>
</g>
<!-- FormDialogModule -->
<g id="node13" class="node">
<title>FormDialogModule</title>
<polygon fill="#8dd3c7" stroke="black" points="1153.99,-84.8 1150.99,-88.8 1129.99,-88.8 1126.99,-84.8 1026.01,-84.8 1026.01,-48.8 1153.99,-48.8 1153.99,-84.8"/>
<text text-anchor="middle" x="1090" y="-62.6" font-family="Times,serif" font-size="14.00">FormDialogModule</text>
</g>
<!-- FormDialogModule&#45;&gt;NotesModule -->
<g id="edge12" class="edge">
<title>FormDialogModule&#45;&gt;NotesModule</title>
<path fill="none" stroke="black" d="M1090,-85.04C1090,-100.37 1090,-119.8 1090,-119.8 1090,-119.8 1175.9,-119.8 1175.9,-119.8"/>
<polygon fill="black" stroke="black" points="1175.9,-123.3 1185.9,-119.8 1175.9,-116.3 1175.9,-123.3"/>
</g>
<!-- SchoolsModule -->
<g id="node14" class="node">
<title>SchoolsModule</title>
<polygon fill="#8dd3c7" stroke="black" points="1007.88,-84.8 1004.88,-88.8 983.88,-88.8 980.88,-84.8 904.12,-84.8 904.12,-48.8 1007.88,-48.8 1007.88,-84.8"/>
<text text-anchor="middle" x="956" y="-62.6" font-family="Times,serif" font-size="14.00">SchoolsModule</text>
</g>
<!-- SchoolsModule&#45;&gt;NotesModule -->
<g id="edge13" class="edge">
<title>SchoolsModule&#45;&gt;NotesModule</title>
<path fill="none" stroke="black" d="M956,-84.83C956,-101.86 956,-124.8 956,-124.8 956,-124.8 1175.8,-124.8 1175.8,-124.8"/>
<polygon fill="black" stroke="black" points="1175.8,-128.3 1185.8,-124.8 1175.8,-121.3 1175.8,-128.3"/>
</g>
</g>
</svg>
