<?xml version="1.0" encoding="UTF-8" standalone="no"?>
<!DOCTYPE svg PUBLIC "-//W3C//DTD SVG 1.1//EN"
 "http://www.w3.org/Graphics/SVG/1.1/DTD/svg11.dtd">
<!-- Generated by graphviz version 2.47.3 (20210619.1520)
 -->
<!-- Title: dependencies Pages: 1 -->
<svg width="4694pt" height="247pt"
 viewBox="0.00 0.00 4694.00 246.80" xmlns="http://www.w3.org/2000/svg" xmlns:xlink="http://www.w3.org/1999/xlink">
<g id="graph0" class="graph" transform="scale(1 1) rotate(0) translate(4 242.8)">
<title>dependencies</title>
<polygon fill="white" stroke="transparent" points="-4,4 -4,-242.8 4690,-242.8 4690,4 -4,4"/>
<text text-anchor="middle" x="2343" y="-8.2" font-family="sans-serif" font-size="14.00">dependencies</text>
<g id="clust1" class="cluster">
<title>cluster_AppModule</title>
<polygon fill="none" stroke="black" stroke-dasharray="1,5" points="8,-32.8 8,-230.8 4678,-230.8 4678,-32.8 8,-32.8"/>
</g>
<g id="clust2" class="cluster">
<title>cluster_AppModule_declarations</title>
<polygon fill="none" stroke="black" points="4548,-40.8 4548,-92.8 4670,-92.8 4670,-40.8 4548,-40.8"/>
</g>
<g id="clust4" class="cluster">
<title>cluster_AppModule_imports</title>
<polygon fill="none" stroke="black" points="194,-40.8 194,-92.8 4540,-92.8 4540,-40.8 194,-40.8"/>
</g>
<g id="clust7" class="cluster">
<title>cluster_AppModule_providers</title>
<polygon fill="none" stroke="black" points="16,-40.8 16,-92.8 186,-92.8 186,-40.8 16,-40.8"/>
</g>
<g id="clust6" class="cluster">
<title>cluster_AppModule_bootstrap</title>
<polygon fill="none" stroke="black" points="2287,-170.8 2287,-222.8 2411,-222.8 2411,-170.8 2287,-170.8"/>
</g>
<!-- AppComponent -->
<g id="node1" class="node">
<title>AppComponent</title>
<polygon fill="#ffffb3" stroke="black" points="4661.94,-84.8 4556.06,-84.8 4556.06,-48.8 4661.94,-48.8 4661.94,-84.8"/>
<text text-anchor="middle" x="4609" y="-62.6" font-family="Times,serif" font-size="14.00">AppComponent</text>
</g>
<!-- AppModule -->
<g id="node2" class="node">
<title>AppModule</title>
<polygon fill="#8dd3c7" stroke="black" points="2390.66,-149.8 2387.66,-153.8 2366.66,-153.8 2363.66,-149.8 2307.34,-149.8 2307.34,-113.8 2390.66,-113.8 2390.66,-149.8"/>
<text text-anchor="middle" x="2349" y="-127.6" font-family="Times,serif" font-size="14.00">AppModule</text>
</g>
<!-- AppComponent&#45;&gt;AppModule -->
<g id="edge1" class="edge">
<title>AppComponent&#45;&gt;AppModule</title>
<path fill="none" stroke="black" d="M4609,-85.18C4609,-109.08 4609,-147.8 4609,-147.8 4609,-147.8 2401.14,-147.8 2401.14,-147.8"/>
<polygon fill="black" stroke="black" points="2401.14,-144.3 2391.14,-147.8 2401.14,-151.3 2401.14,-144.3"/>
</g>
<!-- AppComponent  -->
<g id="node33" class="node">
<title>AppComponent </title>
<polygon fill="#80b1d3" stroke="black" points="2403.44,-214.8 2294.56,-214.8 2294.56,-178.8 2403.44,-178.8 2403.44,-214.8"/>
<text text-anchor="middle" x="2349" y="-192.6" font-family="Times,serif" font-size="14.00">AppComponent </text>
</g>
<!-- AppModule&#45;&gt;AppComponent  -->
<g id="edge32" class="edge">
<title>AppModule&#45;&gt;AppComponent </title>
<path fill="none" stroke="black" stroke-dasharray="1,5" d="M2349,-149.91C2349,-149.91 2349,-168.79 2349,-168.79"/>
<polygon fill="black" stroke="black" points="2345.5,-168.79 2349,-178.79 2352.5,-168.79 2345.5,-168.79"/>
</g>
<!-- AdminModule -->
<g id="node3" class="node">
<title>AdminModule</title>
<polygon fill="#8dd3c7" stroke="black" points="4532.44,-84.8 4529.44,-88.8 4508.44,-88.8 4505.44,-84.8 4433.56,-84.8 4433.56,-48.8 4532.44,-48.8 4532.44,-84.8"/>
<text text-anchor="middle" x="4483" y="-62.6" font-family="Times,serif" font-size="14.00">AdminModule</text>
</g>
<!-- AdminModule&#45;&gt;AppModule -->
<g id="edge2" class="edge">
<title>AdminModule&#45;&gt;AppModule</title>
<path fill="none" stroke="black" d="M4483,-85.12C4483,-108.46 4483,-145.8 4483,-145.8 4483,-145.8 2400.67,-145.8 2400.67,-145.8"/>
<polygon fill="black" stroke="black" points="2400.67,-142.3 2390.67,-145.8 2400.67,-149.3 2400.67,-142.3"/>
</g>
<!-- AlertsModule -->
<g id="node4" class="node">
<title>AlertsModule</title>
<polygon fill="#8dd3c7" stroke="black" points="4415.76,-84.8 4412.76,-88.8 4391.76,-88.8 4388.76,-84.8 4322.24,-84.8 4322.24,-48.8 4415.76,-48.8 4415.76,-84.8"/>
<text text-anchor="middle" x="4369" y="-62.6" font-family="Times,serif" font-size="14.00">AlertsModule</text>
</g>
<!-- AlertsModule&#45;&gt;AppModule -->
<g id="edge3" class="edge">
<title>AlertsModule&#45;&gt;AppModule</title>
<path fill="none" stroke="black" d="M4369,-85.05C4369,-107.82 4369,-143.8 4369,-143.8 4369,-143.8 2400.73,-143.8 2400.73,-143.8"/>
<polygon fill="black" stroke="black" points="2400.73,-140.3 2390.73,-143.8 2400.73,-147.3 2400.73,-140.3"/>
</g>
<!-- AppConfigModule -->
<g id="node5" class="node">
<title>AppConfigModule</title>
<polygon fill="#8dd3c7" stroke="black" points="4304.05,-84.8 4301.05,-88.8 4280.05,-88.8 4277.05,-84.8 4181.95,-84.8 4181.95,-48.8 4304.05,-48.8 4304.05,-84.8"/>
<text text-anchor="middle" x="4243" y="-62.6" font-family="Times,serif" font-size="14.00">AppConfigModule</text>
</g>
<!-- AppConfigModule&#45;&gt;AppModule -->
<g id="edge4" class="edge">
<title>AppConfigModule&#45;&gt;AppModule</title>
<path fill="none" stroke="black" d="M4243,-85.09C4243,-107.01 4243,-140.8 4243,-140.8 4243,-140.8 2400.77,-140.8 2400.77,-140.8"/>
<polygon fill="black" stroke="black" points="2400.77,-137.3 2390.77,-140.8 2400.77,-144.3 2400.77,-137.3"/>
</g>
<!-- AttendanceModule -->
<g id="node6" class="node">
<title>AttendanceModule</title>
<polygon fill="#8dd3c7" stroke="black" points="4163.8,-84.8 4160.8,-88.8 4139.8,-88.8 4136.8,-84.8 4040.2,-84.8 4040.2,-48.8 4163.8,-48.8 4163.8,-84.8"/>
<text text-anchor="middle" x="4102" y="-62.6" font-family="Times,serif" font-size="14.00">AttendanceModule</text>
</g>
<!-- AttendanceModule&#45;&gt;AppModule -->
<g id="edge5" class="edge">
<title>AttendanceModule&#45;&gt;AppModule</title>
<path fill="none" stroke="black" d="M4102,-84.97C4102,-106.3 4102,-138.8 4102,-138.8 4102,-138.8 2401.03,-138.8 2401.03,-138.8"/>
<polygon fill="black" stroke="black" points="2401.03,-135.3 2391.03,-138.8 2401.03,-142.3 2401.03,-135.3"/>
</g>
<!-- ChildrenModule -->
<g id="node7" class="node">
<title>ChildrenModule</title>
<polygon fill="#8dd3c7" stroke="black" points="4022.04,-84.8 4019.04,-88.8 3998.04,-88.8 3995.04,-84.8 3913.96,-84.8 3913.96,-48.8 4022.04,-48.8 4022.04,-84.8"/>
<text text-anchor="middle" x="3968" y="-62.6" font-family="Times,serif" font-size="14.00">ChildrenModule</text>
</g>
<!-- ChildrenModule&#45;&gt;AppModule -->
<g id="edge6" class="edge">
<title>ChildrenModule&#45;&gt;AppModule</title>
<path fill="none" stroke="black" d="M3968,-84.83C3968,-105.57 3968,-136.8 3968,-136.8 3968,-136.8 2401.06,-136.8 2401.06,-136.8"/>
<polygon fill="black" stroke="black" points="2401.06,-133.3 2391.06,-136.8 2401.06,-140.3 2401.06,-133.3"/>
</g>
<!-- ConfigModule -->
<g id="node8" class="node">
<title>ConfigModule</title>
<polygon fill="#8dd3c7" stroke="black" points="3896.44,-84.8 3893.44,-88.8 3872.44,-88.8 3869.44,-84.8 3797.56,-84.8 3797.56,-48.8 3896.44,-48.8 3896.44,-84.8"/>
<text text-anchor="middle" x="3847" y="-62.6" font-family="Times,serif" font-size="14.00">ConfigModule</text>
</g>
<!-- ConfigModule&#45;&gt;AppModule -->
<g id="edge7" class="edge">
<title>ConfigModule&#45;&gt;AppModule</title>
<path fill="none" stroke="black" d="M3847,-85.02C3847,-105.17 3847,-134.8 3847,-134.8 3847,-134.8 2401.02,-134.8 2401.02,-134.8"/>
<polygon fill="black" stroke="black" points="2401.02,-131.3 2391.02,-134.8 2401.02,-138.3 2401.02,-131.3"/>
</g>
<!-- ConfigurableEnumModule -->
<g id="node9" class="node">
<title>ConfigurableEnumModule</title>
<polygon fill="#8dd3c7" stroke="black" points="3779.36,-84.8 3776.36,-88.8 3755.36,-88.8 3752.36,-84.8 3612.64,-84.8 3612.64,-48.8 3779.36,-48.8 3779.36,-84.8"/>
<text text-anchor="middle" x="3696" y="-62.6" font-family="Times,serif" font-size="14.00">ConfigurableEnumModule</text>
</g>
<!-- ConfigurableEnumModule&#45;&gt;AppModule -->
<g id="edge8" class="edge">
<title>ConfigurableEnumModule&#45;&gt;AppModule</title>
<path fill="none" stroke="black" d="M3696,-84.91C3696,-104.14 3696,-131.8 3696,-131.8 3696,-131.8 2400.79,-131.8 2400.79,-131.8"/>
<polygon fill="black" stroke="black" points="2400.79,-128.3 2390.79,-131.8 2400.79,-135.3 2400.79,-128.3"/>
</g>
<!-- ConfirmationDialogModule -->
<g id="node10" class="node">
<title>ConfirmationDialogModule</title>
<polygon fill="#8dd3c7" stroke="black" points="3594.59,-84.8 3591.59,-88.8 3570.59,-88.8 3567.59,-84.8 3421.41,-84.8 3421.41,-48.8 3594.59,-48.8 3594.59,-84.8"/>
<text text-anchor="middle" x="3508" y="-62.6" font-family="Times,serif" font-size="14.00">ConfirmationDialogModule</text>
</g>
<!-- ConfirmationDialogModule&#45;&gt;AppModule -->
<g id="edge9" class="edge">
<title>ConfirmationDialogModule&#45;&gt;AppModule</title>
<path fill="none" stroke="black" d="M3508,-85.02C3508,-103.63 3508,-129.8 3508,-129.8 3508,-129.8 2400.93,-129.8 2400.93,-129.8"/>
<polygon fill="black" stroke="black" points="2400.93,-126.3 2390.93,-129.8 2400.93,-133.3 2400.93,-126.3"/>
</g>
<!-- DashboardModule -->
<g id="node11" class="node">
<title>DashboardModule</title>
<polygon fill="#8dd3c7" stroke="black" points="3403.19,-84.8 3400.19,-88.8 3379.19,-88.8 3376.19,-84.8 3282.81,-84.8 3282.81,-48.8 3403.19,-48.8 3403.19,-84.8"/>
<text text-anchor="middle" x="3343" y="-62.6" font-family="Times,serif" font-size="14.00">DashboardModule</text>
</g>
<!-- DashboardModule&#45;&gt;AppModule -->
<g id="edge10" class="edge">
<title>DashboardModule&#45;&gt;AppModule</title>
<path fill="none" stroke="black" d="M3343,-85.1C3343,-103.07 3343,-127.8 3343,-127.8 3343,-127.8 2400.76,-127.8 2400.76,-127.8"/>
<polygon fill="black" stroke="black" points="2400.76,-124.3 2390.76,-127.8 2400.76,-131.3 2400.76,-124.3"/>
</g>
<!-- DashboardShortcutWidgetModule -->
<g id="node12" class="node">
<title>DashboardShortcutWidgetModule</title>
<polygon fill="#8dd3c7" stroke="black" points="3264.34,-84.8 3261.34,-88.8 3240.34,-88.8 3237.34,-84.8 3055.66,-84.8 3055.66,-48.8 3264.34,-48.8 3264.34,-84.8"/>
<text text-anchor="middle" x="3160" y="-62.6" font-family="Times,serif" font-size="14.00">DashboardShortcutWidgetModule</text>
</g>
<!-- DashboardShortcutWidgetModule&#45;&gt;AppModule -->
<g id="edge11" class="edge">
<title>DashboardShortcutWidgetModule&#45;&gt;AppModule</title>
<path fill="none" stroke="black" d="M3160,-84.82C3160,-102.17 3160,-125.8 3160,-125.8 3160,-125.8 2400.9,-125.8 2400.9,-125.8"/>
<polygon fill="black" stroke="black" points="2400.9,-122.3 2390.9,-125.8 2400.9,-129.3 2400.9,-122.3"/>
</g>
<!-- DemoDataModule -->
<g id="node13" class="node">
<title>DemoDataModule</title>
<polygon fill="#8dd3c7" stroke="black" points="3037.19,-84.8 3034.19,-88.8 3013.19,-88.8 3010.19,-84.8 2916.81,-84.8 2916.81,-48.8 3037.19,-48.8 3037.19,-84.8"/>
<text text-anchor="middle" x="2977" y="-62.6" font-family="Times,serif" font-size="14.00">DemoDataModule</text>
</g>
<!-- DemoDataModule&#45;&gt;AppModule -->
<g id="edge12" class="edge">
<title>DemoDataModule&#45;&gt;AppModule</title>
<path fill="none" stroke="black" d="M2977,-84.83C2977,-101.2 2977,-122.8 2977,-122.8 2977,-122.8 2400.69,-122.8 2400.69,-122.8"/>
<polygon fill="black" stroke="black" points="2400.69,-119.3 2390.69,-122.8 2400.69,-126.3 2400.69,-119.3"/>
</g>
<!-- EntityDetailsModule -->
<g id="node14" class="node">
<title>EntityDetailsModule</title>
<polygon fill="#8dd3c7" stroke="black" points="2898.93,-84.8 2895.93,-88.8 2874.93,-88.8 2871.93,-84.8 2765.07,-84.8 2765.07,-48.8 2898.93,-48.8 2898.93,-84.8"/>
<text text-anchor="middle" x="2832" y="-62.6" font-family="Times,serif" font-size="14.00">EntityDetailsModule</text>
</g>
<!-- EntityDetailsModule&#45;&gt;AppModule -->
<g id="edge13" class="edge">
<title>EntityDetailsModule&#45;&gt;AppModule</title>
<path fill="none" stroke="black" d="M2832,-85.08C2832,-100.75 2832,-120.8 2832,-120.8 2832,-120.8 2401.02,-120.8 2401.02,-120.8"/>
<polygon fill="black" stroke="black" points="2401.02,-117.3 2391.02,-120.8 2401.02,-124.3 2401.02,-117.3"/>
</g>
<!-- EntityListModule -->
<g id="node15" class="node">
<title>EntityListModule</title>
<polygon fill="#8dd3c7" stroke="black" points="2747.55,-84.8 2744.55,-88.8 2723.55,-88.8 2720.55,-84.8 2632.45,-84.8 2632.45,-48.8 2747.55,-48.8 2747.55,-84.8"/>
<text text-anchor="middle" x="2690" y="-62.6" font-family="Times,serif" font-size="14.00">EntityListModule</text>
</g>
<!-- EntityListModule&#45;&gt;AppModule -->
<g id="edge14" class="edge">
<title>EntityListModule&#45;&gt;AppModule</title>
<path fill="none" stroke="black" d="M2690,-84.99C2690,-99.98 2690,-118.8 2690,-118.8 2690,-118.8 2400.81,-118.8 2400.81,-118.8"/>
<polygon fill="black" stroke="black" points="2400.81,-115.3 2390.81,-118.8 2400.81,-122.3 2400.81,-115.3"/>
</g>
<!-- EntityModule -->
<g id="node16" class="node">
<title>EntityModule</title>
<polygon fill="#8dd3c7" stroke="black" points="2613.77,-84.8 2610.77,-88.8 2589.77,-88.8 2586.77,-84.8 2520.23,-84.8 2520.23,-48.8 2613.77,-48.8 2613.77,-84.8"/>
<text text-anchor="middle" x="2567" y="-62.6" font-family="Times,serif" font-size="14.00">EntityModule</text>
</g>
<!-- EntityModule&#45;&gt;AppModule -->
<g id="edge15" class="edge">
<title>EntityModule&#45;&gt;AppModule</title>
<path fill="none" stroke="black" d="M2567,-84.85C2567,-99.17 2567,-116.8 2567,-116.8 2567,-116.8 2400.77,-116.8 2400.77,-116.8"/>
<polygon fill="black" stroke="black" points="2400.77,-113.3 2390.77,-116.8 2400.77,-120.3 2400.77,-113.3"/>
</g>
<!-- EntitySubrecordModule -->
<g id="node17" class="node">
<title>EntitySubrecordModule</title>
<polygon fill="#8dd3c7" stroke="black" points="2501.81,-84.8 2498.81,-88.8 2477.81,-88.8 2474.81,-84.8 2350.19,-84.8 2350.19,-48.8 2501.81,-48.8 2501.81,-84.8"/>
<text text-anchor="middle" x="2426" y="-62.6" font-family="Times,serif" font-size="14.00">EntitySubrecordModule</text>
</g>
<!-- EntitySubrecordModule&#45;&gt;AppModule -->
<g id="edge16" class="edge">
<title>EntitySubrecordModule&#45;&gt;AppModule</title>
<path fill="none" stroke="black" d="M2370.59,-84.91C2370.59,-84.91 2370.59,-103.79 2370.59,-103.79"/>
<polygon fill="black" stroke="black" points="2367.09,-103.79 2370.59,-113.79 2374.09,-103.79 2367.09,-103.79"/>
</g>
<!-- EntityUtilsModule -->
<g id="node18" class="node">
<title>EntityUtilsModule</title>
<polygon fill="#8dd3c7" stroke="black" points="2332.5,-84.8 2329.5,-88.8 2308.5,-88.8 2305.5,-84.8 2211.5,-84.8 2211.5,-48.8 2332.5,-48.8 2332.5,-84.8"/>
<text text-anchor="middle" x="2272" y="-62.6" font-family="Times,serif" font-size="14.00">EntityUtilsModule</text>
</g>
<!-- EntityUtilsModule&#45;&gt;AppModule -->
<g id="edge17" class="edge">
<title>EntityUtilsModule&#45;&gt;AppModule</title>
<path fill="none" stroke="black" d="M2319.84,-84.91C2319.84,-84.91 2319.84,-103.79 2319.84,-103.79"/>
<polygon fill="black" stroke="black" points="2316.34,-103.79 2319.84,-113.79 2323.34,-103.79 2316.34,-103.79"/>
</g>
<!-- FontAwesomeIconsModule -->
<g id="node19" class="node">
<title>FontAwesomeIconsModule</title>
<polygon fill="#8dd3c7" stroke="black" points="2193.52,-84.8 2190.52,-88.8 2169.52,-88.8 2166.52,-84.8 2022.48,-84.8 2022.48,-48.8 2193.52,-48.8 2193.52,-84.8"/>
<text text-anchor="middle" x="2108" y="-62.6" font-family="Times,serif" font-size="14.00">FontAwesomeIconsModule</text>
</g>
<!-- FontAwesomeIconsModule&#45;&gt;AppModule -->
<g id="edge18" class="edge">
<title>FontAwesomeIconsModule&#45;&gt;AppModule</title>
<path fill="none" stroke="black" d="M2108,-84.85C2108,-99.17 2108,-116.8 2108,-116.8 2108,-116.8 2297.3,-116.8 2297.3,-116.8"/>
<polygon fill="black" stroke="black" points="2297.3,-120.3 2307.3,-116.8 2297.3,-113.3 2297.3,-120.3"/>
</g>
<!-- FormDialogModule -->
<g id="node20" class="node">
<title>FormDialogModule</title>
<polygon fill="#8dd3c7" stroke="black" points="2003.99,-84.8 2000.99,-88.8 1979.99,-88.8 1976.99,-84.8 1876.01,-84.8 1876.01,-48.8 2003.99,-48.8 2003.99,-84.8"/>
<text text-anchor="middle" x="1940" y="-62.6" font-family="Times,serif" font-size="14.00">FormDialogModule</text>
</g>
<!-- FormDialogModule&#45;&gt;AppModule -->
<g id="edge19" class="edge">
<title>FormDialogModule&#45;&gt;AppModule</title>
<path fill="none" stroke="black" d="M1940,-84.99C1940,-99.98 1940,-118.8 1940,-118.8 1940,-118.8 2297.15,-118.8 2297.15,-118.8"/>
<polygon fill="black" stroke="black" points="2297.15,-122.3 2307.15,-118.8 2297.15,-115.3 2297.15,-122.3"/>
</g>
<!-- HistoricalDataModule -->
<g id="node21" class="node">
<title>HistoricalDataModule</title>
<polygon fill="#8dd3c7" stroke="black" points="1857.68,-84.8 1854.68,-88.8 1833.68,-88.8 1830.68,-84.8 1716.32,-84.8 1716.32,-48.8 1857.68,-48.8 1857.68,-84.8"/>
<text text-anchor="middle" x="1787" y="-62.6" font-family="Times,serif" font-size="14.00">HistoricalDataModule</text>
</g>
<!-- HistoricalDataModule&#45;&gt;AppModule -->
<g id="edge20" class="edge">
<title>HistoricalDataModule&#45;&gt;AppModule</title>
<path fill="none" stroke="black" d="M1787,-85.08C1787,-100.75 1787,-120.8 1787,-120.8 1787,-120.8 2297.22,-120.8 2297.22,-120.8"/>
<polygon fill="black" stroke="black" points="2297.22,-124.3 2307.22,-120.8 2297.22,-117.3 2297.22,-124.3"/>
</g>
<!-- LatestChangesModule -->
<g id="node22" class="node">
<title>LatestChangesModule</title>
<polygon fill="#8dd3c7" stroke="black" points="1697.97,-84.8 1694.97,-88.8 1673.97,-88.8 1670.97,-84.8 1556.03,-84.8 1556.03,-48.8 1697.97,-48.8 1697.97,-84.8"/>
<text text-anchor="middle" x="1627" y="-62.6" font-family="Times,serif" font-size="14.00">LatestChangesModule</text>
</g>
<!-- LatestChangesModule&#45;&gt;AppModule -->
<g id="edge21" class="edge">
<title>LatestChangesModule&#45;&gt;AppModule</title>
<path fill="none" stroke="black" d="M1627,-84.83C1627,-101.2 1627,-122.8 1627,-122.8 1627,-122.8 2297.33,-122.8 2297.33,-122.8"/>
<polygon fill="black" stroke="black" points="2297.33,-126.3 2307.33,-122.8 2297.33,-119.3 2297.33,-126.3"/>
</g>
<!-- MarkdownPageModule -->
<g id="node23" class="node">
<title>MarkdownPageModule</title>
<polygon fill="#8dd3c7" stroke="black" points="1538.19,-84.8 1535.19,-88.8 1514.19,-88.8 1511.19,-84.8 1389.81,-84.8 1389.81,-48.8 1538.19,-48.8 1538.19,-84.8"/>
<text text-anchor="middle" x="1464" y="-62.6" font-family="Times,serif" font-size="14.00">MarkdownPageModule</text>
</g>
<!-- MarkdownPageModule&#45;&gt;AppModule -->
<g id="edge22" class="edge">
<title>MarkdownPageModule&#45;&gt;AppModule</title>
<path fill="none" stroke="black" d="M1464,-84.82C1464,-102.17 1464,-125.8 1464,-125.8 1464,-125.8 2297.21,-125.8 2297.21,-125.8"/>
<polygon fill="black" stroke="black" points="2297.21,-129.3 2307.21,-125.8 2297.21,-122.3 2297.21,-129.3"/>
</g>
<!-- NavigationModule -->
<g id="node24" class="node">
<title>NavigationModule</title>
<polygon fill="#8dd3c7" stroke="black" points="1371.76,-84.8 1368.76,-88.8 1347.76,-88.8 1344.76,-84.8 1250.24,-84.8 1250.24,-48.8 1371.76,-48.8 1371.76,-84.8"/>
<text text-anchor="middle" x="1311" y="-62.6" font-family="Times,serif" font-size="14.00">NavigationModule</text>
</g>
<!-- NavigationModule&#45;&gt;AppModule -->
<g id="edge23" class="edge">
<title>NavigationModule&#45;&gt;AppModule</title>
<path fill="none" stroke="black" d="M1311,-85.1C1311,-103.07 1311,-127.8 1311,-127.8 1311,-127.8 2297.02,-127.8 2297.02,-127.8"/>
<polygon fill="black" stroke="black" points="2297.02,-131.3 2307.02,-127.8 2297.02,-124.3 2297.02,-131.3"/>
</g>
<!-- ProgressDashboardWidgetModule -->
<g id="node25" class="node">
<title>ProgressDashboardWidgetModule</title>
<polygon fill="#8dd3c7" stroke="black" points="1231.61,-84.8 1228.61,-88.8 1207.61,-88.8 1204.61,-84.8 1022.39,-84.8 1022.39,-48.8 1231.61,-48.8 1231.61,-84.8"/>
<text text-anchor="middle" x="1127" y="-62.6" font-family="Times,serif" font-size="14.00">ProgressDashboardWidgetModule</text>
</g>
<!-- ProgressDashboardWidgetModule&#45;&gt;AppModule -->
<g id="edge24" class="edge">
<title>ProgressDashboardWidgetModule&#45;&gt;AppModule</title>
<path fill="none" stroke="black" d="M1127,-85.02C1127,-103.63 1127,-129.8 1127,-129.8 1127,-129.8 2297.29,-129.8 2297.29,-129.8"/>
<polygon fill="black" stroke="black" points="2297.29,-133.3 2307.29,-129.8 2297.29,-126.3 2297.29,-133.3"/>
</g>
<!-- ReportingModule -->
<g id="node26" class="node">
<title>ReportingModule</title>
<polygon fill="#8dd3c7" stroke="black" points="1003.54,-84.8 1000.54,-88.8 979.54,-88.8 976.54,-84.8 888.46,-84.8 888.46,-48.8 1003.54,-48.8 1003.54,-84.8"/>
<text text-anchor="middle" x="946" y="-62.6" font-family="Times,serif" font-size="14.00">ReportingModule</text>
</g>
<!-- ReportingModule&#45;&gt;AppModule -->
<g id="edge25" class="edge">
<title>ReportingModule&#45;&gt;AppModule</title>
<path fill="none" stroke="black" d="M946,-84.91C946,-104.14 946,-131.8 946,-131.8 946,-131.8 2297.01,-131.8 2297.01,-131.8"/>
<polygon fill="black" stroke="black" points="2297.01,-135.3 2307.01,-131.8 2297.01,-128.3 2297.01,-135.3"/>
</g>
<!-- SchoolsModule -->
<g id="node27" class="node">
<title>SchoolsModule</title>
<polygon fill="#8dd3c7" stroke="black" points="869.88,-84.8 866.88,-88.8 845.88,-88.8 842.88,-84.8 766.12,-84.8 766.12,-48.8 869.88,-48.8 869.88,-84.8"/>
<text text-anchor="middle" x="818" y="-62.6" font-family="Times,serif" font-size="14.00">SchoolsModule</text>
</g>
<!-- SchoolsModule&#45;&gt;AppModule -->
<g id="edge26" class="edge">
<title>SchoolsModule&#45;&gt;AppModule</title>
<path fill="none" stroke="black" d="M818,-85.02C818,-105.17 818,-134.8 818,-134.8 818,-134.8 2297.26,-134.8 2297.26,-134.8"/>
<polygon fill="black" stroke="black" points="2297.26,-138.3 2307.26,-134.8 2297.26,-131.3 2297.26,-138.3"/>
</g>
<!-- SessionModule -->
<g id="node28" class="node">
<title>SessionModule</title>
<polygon fill="#8dd3c7" stroke="black" points="748.33,-84.8 745.33,-88.8 724.33,-88.8 721.33,-84.8 645.67,-84.8 645.67,-48.8 748.33,-48.8 748.33,-84.8"/>
<text text-anchor="middle" x="697" y="-62.6" font-family="Times,serif" font-size="14.00">SessionModule</text>
</g>
<!-- SessionModule&#45;&gt;AppModule -->
<g id="edge27" class="edge">
<title>SessionModule&#45;&gt;AppModule</title>
<path fill="none" stroke="black" d="M697,-84.83C697,-105.57 697,-136.8 697,-136.8 697,-136.8 2297.34,-136.8 2297.34,-136.8"/>
<polygon fill="black" stroke="black" points="2297.34,-140.3 2307.34,-136.8 2297.34,-133.3 2297.34,-140.3"/>
</g>
<!-- SyncStatusModule -->
<g id="node29" class="node">
<title>SyncStatusModule</title>
<polygon fill="#8dd3c7" stroke="black" points="627.77,-84.8 624.77,-88.8 603.77,-88.8 600.77,-84.8 506.23,-84.8 506.23,-48.8 627.77,-48.8 627.77,-84.8"/>
<text text-anchor="middle" x="567" y="-62.6" font-family="Times,serif" font-size="14.00">SyncStatusModule</text>
</g>
<!-- SyncStatusModule&#45;&gt;AppModule -->
<g id="edge28" class="edge">
<title>SyncStatusModule&#45;&gt;AppModule</title>
<path fill="none" stroke="black" d="M567,-84.97C567,-106.3 567,-138.8 567,-138.8 567,-138.8 2297.14,-138.8 2297.14,-138.8"/>
<polygon fill="black" stroke="black" points="2297.14,-142.3 2307.14,-138.8 2297.14,-135.3 2297.14,-142.3"/>
</g>
<!-- UiModule -->
<g id="node30" class="node">
<title>UiModule</title>
<polygon fill="#8dd3c7" stroke="black" points="487.55,-84.8 484.55,-88.8 463.55,-88.8 460.55,-84.8 414.45,-84.8 414.45,-48.8 487.55,-48.8 487.55,-84.8"/>
<text text-anchor="middle" x="451" y="-62.6" font-family="Times,serif" font-size="14.00">UiModule</text>
</g>
<!-- UiModule&#45;&gt;AppModule -->
<g id="edge29" class="edge">
<title>UiModule&#45;&gt;AppModule</title>
<path fill="none" stroke="black" d="M451,-85.09C451,-107.01 451,-140.8 451,-140.8 451,-140.8 2297.15,-140.8 2297.15,-140.8"/>
<polygon fill="black" stroke="black" points="2297.15,-144.3 2307.15,-140.8 2297.15,-137.3 2297.15,-144.3"/>
</g>
<!-- UserModule -->
<g id="node31" class="node">
<title>UserModule</title>
<polygon fill="#8dd3c7" stroke="black" points="395.98,-84.8 392.98,-88.8 371.98,-88.8 368.98,-84.8 310.02,-84.8 310.02,-48.8 395.98,-48.8 395.98,-84.8"/>
<text text-anchor="middle" x="353" y="-62.6" font-family="Times,serif" font-size="14.00">UserModule</text>
</g>
<!-- UserModule&#45;&gt;AppModule -->
<g id="edge30" class="edge">
<title>UserModule&#45;&gt;AppModule</title>
<path fill="none" stroke="black" d="M353,-85.05C353,-107.82 353,-143.8 353,-143.8 353,-143.8 2297.31,-143.8 2297.31,-143.8"/>
<polygon fill="black" stroke="black" points="2297.31,-147.3 2307.31,-143.8 2297.31,-140.3 2297.31,-147.3"/>
</g>
<!-- ViewModule -->
<g id="node32" class="node">
<title>ViewModule</title>
<polygon fill="#8dd3c7" stroke="black" points="291.87,-84.8 288.87,-88.8 267.87,-88.8 264.87,-84.8 202.13,-84.8 202.13,-48.8 291.87,-48.8 291.87,-84.8"/>
<text text-anchor="middle" x="247" y="-62.6" font-family="Times,serif" font-size="14.00">ViewModule</text>
</g>
<!-- ViewModule&#45;&gt;AppModule -->
<g id="edge31" class="edge">
<title>ViewModule&#45;&gt;AppModule</title>
<path fill="none" stroke="black" d="M247,-85.12C247,-108.46 247,-145.8 247,-145.8 247,-145.8 2297.01,-145.8 2297.01,-145.8"/>
<polygon fill="black" stroke="black" points="2297.01,-149.3 2307.01,-145.8 2297.01,-142.3 2297.01,-149.3"/>
</g>
<!-- AnalyticsService -->
<g id="node34" class="node">
<title>AnalyticsService</title>
<ellipse fill="#fdb462" stroke="black" cx="101" cy="-66.8" rx="77" ry="18"/>
<text text-anchor="middle" x="101" y="-62.6" font-family="Times,serif" font-size="14.00">AnalyticsService</text>
</g>
<!-- AnalyticsService&#45;&gt;AppModule -->
<g id="edge33" class="edge">
<title>AnalyticsService&#45;&gt;AppModule</title>
<path fill="none" stroke="black" d="M101,-85.18C101,-109.08 101,-147.8 101,-147.8 101,-147.8 2297.09,-147.8 2297.09,-147.8"/>
<polygon fill="black" stroke="black" points="2297.09,-151.3 2307.09,-147.8 2297.09,-144.3 2297.09,-151.3"/>
</g>
</g>
</svg>
