<?xml version="1.0" encoding="UTF-8" standalone="no"?>
<!DOCTYPE svg PUBLIC "-//W3C//DTD SVG 1.1//EN"
 "http://www.w3.org/Graphics/SVG/1.1/DTD/svg11.dtd">
<!-- Generated by graphviz version 2.47.3 (20210619.1520)
 -->
<!-- Title: dependencies Pages: 1 -->
<svg width="488pt" height="247pt"
 viewBox="0.00 0.00 488.00 246.80" xmlns="http://www.w3.org/2000/svg" xmlns:xlink="http://www.w3.org/1999/xlink">
<g id="graph0" class="graph" transform="scale(1 1) rotate(0) translate(4 242.8)">
<title>dependencies</title>
<polygon fill="white" stroke="transparent" points="-4,4 -4,-242.8 484,-242.8 484,4 -4,4"/>
<text text-anchor="middle" x="240" y="-8.2" font-family="sans-serif" font-size="14.00">dependencies</text>
<g id="clust1" class="cluster">
<title>cluster_WebdavModule</title>
<polygon fill="none" stroke="black" stroke-dasharray="1,5" points="8,-32.8 8,-230.8 472,-230.8 472,-32.8 8,-32.8"/>
</g>
<g id="clust5" class="cluster">
<title>cluster_WebdavModule_exports</title>
<polygon fill="none" stroke="black" points="105,-170.8 105,-222.8 375,-222.8 375,-170.8 105,-170.8"/>
</g>
<g id="clust7" class="cluster">
<title>cluster_WebdavModule_providers</title>
<polygon fill="none" stroke="black" points="290,-40.8 290,-92.8 464,-92.8 464,-40.8 290,-40.8"/>
</g>
<g id="clust2" class="cluster">
<title>cluster_WebdavModule_declarations</title>
<polygon fill="none" stroke="black" points="16,-40.8 16,-92.8 282,-92.8 282,-40.8 16,-40.8"/>
</g>
<!-- CloudFileServiceUserSettingsComponent -->
<g id="node1" class="node">
<title>CloudFileServiceUserSettingsComponent</title>
<polygon fill="#ffffb3" stroke="black" points="274.36,-84.8 23.64,-84.8 23.64,-48.8 274.36,-48.8 274.36,-84.8"/>
<text text-anchor="middle" x="149" y="-62.6" font-family="Times,serif" font-size="14.00">CloudFileServiceUserSettingsComponent</text>
</g>
<!-- WebdavModule -->
<g id="node2" class="node">
<title>WebdavModule</title>
<polygon fill="#8dd3c7" stroke="black" points="293.19,-149.8 290.19,-153.8 269.19,-153.8 266.19,-149.8 186.81,-149.8 186.81,-113.8 293.19,-113.8 293.19,-149.8"/>
<text text-anchor="middle" x="240" y="-127.6" font-family="Times,serif" font-size="14.00">WebdavModule</text>
</g>
<!-- CloudFileServiceUserSettingsComponent&#45;&gt;WebdavModule -->
<g id="edge1" class="edge">
<title>CloudFileServiceUserSettingsComponent&#45;&gt;WebdavModule</title>
<path fill="none" stroke="black" d="M230.67,-84.91C230.67,-84.91 230.67,-103.79 230.67,-103.79"/>
<polygon fill="black" stroke="black" points="227.17,-103.79 230.67,-113.79 234.17,-103.79 227.17,-103.79"/>
</g>
<!-- CloudFileServiceUserSettingsComponent  -->
<g id="node3" class="node">
<title>CloudFileServiceUserSettingsComponent </title>
<polygon fill="#fb8072" stroke="black" points="367.36,-214.8 112.64,-214.8 112.64,-178.8 367.36,-178.8 367.36,-214.8"/>
<text text-anchor="middle" x="240" y="-192.6" font-family="Times,serif" font-size="14.00">CloudFileServiceUserSettingsComponent </text>
</g>
<!-- WebdavModule&#45;&gt;CloudFileServiceUserSettingsComponent  -->
<g id="edge2" class="edge">
<title>WebdavModule&#45;&gt;CloudFileServiceUserSettingsComponent </title>
<path fill="none" stroke="black" stroke-dasharray="5,2" d="M240,-149.91C240,-149.91 240,-168.79 240,-168.79"/>
<polygon fill="black" stroke="black" points="236.5,-168.79 240,-178.79 243.5,-168.79 236.5,-168.79"/>
</g>
<!-- CloudFileService -->
<g id="node4" class="node">
<title>CloudFileService</title>
<ellipse fill="#fdb462" stroke="black" cx="377" cy="-66.8" rx="78.75" ry="18"/>
<text text-anchor="middle" x="377" y="-62.6" font-family="Times,serif" font-size="14.00">CloudFileService</text>
</g>
<!-- CloudFileService&#45;&gt;WebdavModule -->
<g id="edge3" class="edge">
<title>CloudFileService&#45;&gt;WebdavModule</title>
<path fill="none" stroke="black" d="M298.33,-66.8C289.59,-66.8 283.76,-66.8 283.76,-66.8 283.76,-66.8 283.76,-103.69 283.76,-103.69"/>
<polygon fill="black" stroke="black" points="280.26,-103.69 283.76,-113.69 287.26,-103.69 280.26,-103.69"/>
</g>
</g>
</svg>
