<?xml version="1.0" encoding="UTF-8" standalone="no"?>
<!DOCTYPE svg PUBLIC "-//W3C//DTD SVG 1.1//EN"
 "http://www.w3.org/Graphics/SVG/1.1/DTD/svg11.dtd">
<!-- Generated by graphviz version 2.47.3 (20210619.1520)
 -->
<!-- Title: dependencies Pages: 1 -->
<svg width="532pt" height="247pt"
 viewBox="0.00 0.00 532.00 246.80" xmlns="http://www.w3.org/2000/svg" xmlns:xlink="http://www.w3.org/1999/xlink">
<g id="graph0" class="graph" transform="scale(1 1) rotate(0) translate(4 242.8)">
<title>dependencies</title>
<polygon fill="white" stroke="transparent" points="-4,4 -4,-242.8 528,-242.8 528,4 -4,4"/>
<text text-anchor="middle" x="262" y="-8.2" font-family="sans-serif" font-size="14.00">dependencies</text>
<g id="clust1" class="cluster">
<title>cluster_HistoricalDataModule</title>
<polygon fill="none" stroke="black" stroke-dasharray="1,5" points="8,-32.8 8,-230.8 516,-230.8 516,-32.8 8,-32.8"/>
</g>
<g id="clust4" class="cluster">
<title>cluster_HistoricalDataModule_imports</title>
<polygon fill="none" stroke="black" points="202,-40.8 202,-92.8 508,-92.8 508,-40.8 202,-40.8"/>
</g>
<g id="clust2" class="cluster">
<title>cluster_HistoricalDataModule_declarations</title>
<polygon fill="none" stroke="black" points="16,-40.8 16,-92.8 194,-92.8 194,-40.8 16,-40.8"/>
</g>
<g id="clust5" class="cluster">
<title>cluster_HistoricalDataModule_exports</title>
<polygon fill="none" stroke="black" points="179,-170.8 179,-222.8 361,-222.8 361,-170.8 179,-170.8"/>
</g>
<!-- HistoricalDataComponent -->
<g id="node1" class="node">
<title>HistoricalDataComponent</title>
<polygon fill="#ffffb3" stroke="black" points="186.46,-84.8 23.54,-84.8 23.54,-48.8 186.46,-48.8 186.46,-84.8"/>
<text text-anchor="middle" x="105" y="-62.6" font-family="Times,serif" font-size="14.00">HistoricalDataComponent</text>
</g>
<!-- HistoricalDataModule -->
<g id="node2" class="node">
<title>HistoricalDataModule</title>
<polygon fill="#8dd3c7" stroke="black" points="340.68,-149.8 337.68,-153.8 316.68,-153.8 313.68,-149.8 199.32,-149.8 199.32,-113.8 340.68,-113.8 340.68,-149.8"/>
<text text-anchor="middle" x="270" y="-127.6" font-family="Times,serif" font-size="14.00">HistoricalDataModule</text>
</g>
<!-- HistoricalDataComponent&#45;&gt;HistoricalDataModule -->
<g id="edge1" class="edge">
<title>HistoricalDataComponent&#45;&gt;HistoricalDataModule</title>
<path fill="none" stroke="black" d="M186.68,-66.8C197.23,-66.8 204.46,-66.8 204.46,-66.8 204.46,-66.8 204.46,-103.69 204.46,-103.69"/>
<polygon fill="black" stroke="black" points="200.96,-103.69 204.46,-113.69 207.96,-103.69 200.96,-103.69"/>
</g>
<!-- HistoricalDataComponent  -->
<g id="node5" class="node">
<title>HistoricalDataComponent </title>
<polygon fill="#fb8072" stroke="black" points="353.46,-214.8 186.54,-214.8 186.54,-178.8 353.46,-178.8 353.46,-214.8"/>
<text text-anchor="middle" x="270" y="-192.6" font-family="Times,serif" font-size="14.00">HistoricalDataComponent </text>
</g>
<!-- HistoricalDataModule&#45;&gt;HistoricalDataComponent  -->
<g id="edge4" class="edge">
<title>HistoricalDataModule&#45;&gt;HistoricalDataComponent </title>
<path fill="none" stroke="black" stroke-dasharray="5,2" d="M270,-149.91C270,-149.91 270,-168.79 270,-168.79"/>
<polygon fill="black" stroke="black" points="266.5,-168.79 270,-178.79 273.5,-168.79 266.5,-168.79"/>
</g>
<!-- EntitySubrecordModule -->
<g id="node3" class="node">
<title>EntitySubrecordModule</title>
<polygon fill="#8dd3c7" stroke="black" points="499.81,-84.8 496.81,-88.8 475.81,-88.8 472.81,-84.8 348.19,-84.8 348.19,-48.8 499.81,-48.8 499.81,-84.8"/>
<text text-anchor="middle" x="424" y="-62.6" font-family="Times,serif" font-size="14.00">EntitySubrecordModule</text>
</g>
<!-- EntitySubrecordModule&#45;&gt;HistoricalDataModule -->
<g id="edge2" class="edge">
<title>EntitySubrecordModule&#45;&gt;HistoricalDataModule</title>
<path fill="none" stroke="black" d="M348.22,-66.8C340.57,-66.8 335.54,-66.8 335.54,-66.8 335.54,-66.8 335.54,-103.69 335.54,-103.69"/>
<polygon fill="black" stroke="black" points="332.04,-103.69 335.54,-113.69 339.04,-103.69 332.04,-103.69"/>
</g>
<!-- EntityUtilsModule -->
<g id="node4" class="node">
<title>EntityUtilsModule</title>
<polygon fill="#8dd3c7" stroke="black" points="330.5,-84.8 327.5,-88.8 306.5,-88.8 303.5,-84.8 209.5,-84.8 209.5,-48.8 330.5,-48.8 330.5,-84.8"/>
<text text-anchor="middle" x="270" y="-62.6" font-family="Times,serif" font-size="14.00">EntityUtilsModule</text>
</g>
<!-- EntityUtilsModule&#45;&gt;HistoricalDataModule -->
<g id="edge3" class="edge">
<title>EntityUtilsModule&#45;&gt;HistoricalDataModule</title>
<path fill="none" stroke="black" d="M270,-84.91C270,-84.91 270,-103.79 270,-103.79"/>
<polygon fill="black" stroke="black" points="266.5,-103.79 270,-113.79 273.5,-103.79 266.5,-103.79"/>
</g>
</g>
</svg>
