<?xml version="1.0" encoding="UTF-8" standalone="no"?>
<!DOCTYPE svg PUBLIC "-//W3C//DTD SVG 1.1//EN"
 "http://www.w3.org/Graphics/SVG/1.1/DTD/svg11.dtd">
<!-- Generated by graphviz version 2.47.3 (20210619.1520)
 -->
<!-- Title: dependencies Pages: 1 -->
<svg width="308pt" height="174pt"
 viewBox="0.00 0.00 308.00 173.80" xmlns="http://www.w3.org/2000/svg" xmlns:xlink="http://www.w3.org/1999/xlink">
<g id="graph0" class="graph" transform="scale(1 1) rotate(0) translate(4 169.8)">
<title>dependencies</title>
<polygon fill="white" stroke="transparent" points="-4,4 -4,-169.8 304,-169.8 304,4 -4,4"/>
<text text-anchor="middle" x="150" y="-8.2" font-family="sans-serif" font-size="14.00">dependencies</text>
<g id="clust1" class="cluster">
<title>cluster_ConfigModule</title>
<polygon fill="none" stroke="black" stroke-dasharray="1,5" points="8,-32.8 8,-157.8 292,-157.8 292,-32.8 8,-32.8"/>
</g>
<g id="clust6" class="cluster">
<title>cluster_ConfigModule_providers</title>
<polygon fill="none" stroke="black" points="134,-40.8 134,-92.8 284,-92.8 284,-40.8 134,-40.8"/>
</g>
<g id="clust3" class="cluster">
<title>cluster_ConfigModule_imports</title>
<polygon fill="none" stroke="black" points="16,-40.8 16,-92.8 126,-92.8 126,-40.8 16,-40.8"/>
</g>
<!-- EntityModule -->
<g id="node1" class="node">
<title>EntityModule</title>
<polygon fill="#8dd3c7" stroke="black" points="117.77,-84.8 114.77,-88.8 93.77,-88.8 90.77,-84.8 24.23,-84.8 24.23,-48.8 117.77,-48.8 117.77,-84.8"/>
<text text-anchor="middle" x="71" y="-62.6" font-family="Times,serif" font-size="14.00">EntityModule</text>
</g>
<!-- ConfigModule -->
<g id="node2" class="node">
<title>ConfigModule</title>
<polygon fill="#8dd3c7" stroke="black" points="189.44,-149.8 186.44,-153.8 165.44,-153.8 162.44,-149.8 90.56,-149.8 90.56,-113.8 189.44,-113.8 189.44,-149.8"/>
<text text-anchor="middle" x="140" y="-127.6" font-family="Times,serif" font-size="14.00">ConfigModule</text>
</g>
<!-- EntityModule&#45;&gt;ConfigModule -->
<g id="edge1" class="edge">
<title>EntityModule&#45;&gt;ConfigModule</title>
<path fill="none" stroke="black" d="M104.33,-84.91C104.33,-84.91 104.33,-103.79 104.33,-103.79"/>
<polygon fill="black" stroke="black" points="100.83,-103.79 104.33,-113.79 107.83,-103.79 100.83,-103.79"/>
</g>
<!-- ConfigService -->
<g id="node3" class="node">
<title>ConfigService</title>
<ellipse fill="#fdb462" stroke="black" cx="209" cy="-66.8" rx="66.63" ry="18"/>
<text text-anchor="middle" x="209" y="-62.6" font-family="Times,serif" font-size="14.00">ConfigService</text>
</g>
<!-- ConfigService&#45;&gt;ConfigModule -->
<g id="edge2" class="edge">
<title>ConfigService&#45;&gt;ConfigModule</title>
<path fill="none" stroke="black" d="M165.7,-80.58C165.7,-80.58 165.7,-103.35 165.7,-103.35"/>
<polygon fill="black" stroke="black" points="162.2,-103.35 165.7,-113.35 169.2,-103.35 162.2,-103.35"/>
</g>
</g>
</svg>
