<?xml version="1.0" encoding="UTF-8" standalone="no"?>
<!DOCTYPE svg PUBLIC "-//W3C//DTD SVG 1.1//EN"
 "http://www.w3.org/Graphics/SVG/1.1/DTD/svg11.dtd">
<!-- Generated by graphviz version 2.47.3 (20210619.1520)
 -->
<!-- Title: dependencies Pages: 1 -->
<svg width="456pt" height="247pt"
 viewBox="0.00 0.00 456.00 246.80" xmlns="http://www.w3.org/2000/svg" xmlns:xlink="http://www.w3.org/1999/xlink">
<g id="graph0" class="graph" transform="scale(1 1) rotate(0) translate(4 242.8)">
<title>dependencies</title>
<polygon fill="white" stroke="transparent" points="-4,4 -4,-242.8 452,-242.8 452,4 -4,4"/>
<text text-anchor="middle" x="224" y="-8.2" font-family="sans-serif" font-size="14.00">dependencies</text>
<g id="clust1" class="cluster">
<title>cluster_PermissionsModule</title>
<polygon fill="none" stroke="black" stroke-dasharray="1,5" points="8,-32.8 8,-230.8 440,-230.8 440,-32.8 8,-32.8"/>
</g>
<g id="clust6" class="cluster">
<title>cluster_PermissionsModule_exports</title>
<polygon fill="none" stroke="black" points="114,-170.8 114,-222.8 334,-222.8 334,-170.8 114,-170.8"/>
</g>
<g id="clust2" class="cluster">
<title>cluster_PermissionsModule_declarations</title>
<polygon fill="none" stroke="black" points="16,-40.8 16,-92.8 432,-92.8 432,-40.8 16,-40.8"/>
</g>
<!-- DisableEntityOperationDirective -->
<g id="node1" class="node">
<title>DisableEntityOperationDirective</title>
<polygon fill="#ffffb3" stroke="black" points="423.55,-84.8 222.45,-84.8 222.45,-48.8 423.55,-48.8 423.55,-84.8"/>
<text text-anchor="middle" x="323" y="-62.6" font-family="Times,serif" font-size="14.00">DisableEntityOperationDirective</text>
</g>
<!-- PermissionsModule -->
<g id="node3" class="node">
<title>PermissionsModule</title>
<polygon fill="#8dd3c7" stroke="black" points="287.71,-149.8 284.71,-153.8 263.71,-153.8 260.71,-149.8 160.29,-149.8 160.29,-113.8 287.71,-113.8 287.71,-149.8"/>
<text text-anchor="middle" x="224" y="-127.6" font-family="Times,serif" font-size="14.00">PermissionsModule</text>
</g>
<!-- DisableEntityOperationDirective&#45;&gt;PermissionsModule -->
<g id="edge1" class="edge">
<title>DisableEntityOperationDirective&#45;&gt;PermissionsModule</title>
<path fill="none" stroke="black" d="M255.04,-84.91C255.04,-84.91 255.04,-103.79 255.04,-103.79"/>
<polygon fill="black" stroke="black" points="251.54,-103.79 255.04,-113.79 258.54,-103.79 251.54,-103.79"/>
</g>
<!-- DisabledWrapperComponent -->
<g id="node2" class="node">
<title>DisabledWrapperComponent</title>
<polygon fill="#ffffb3" stroke="black" points="204.06,-84.8 23.94,-84.8 23.94,-48.8 204.06,-48.8 204.06,-84.8"/>
<text text-anchor="middle" x="114" y="-62.6" font-family="Times,serif" font-size="14.00">DisabledWrapperComponent</text>
</g>
<!-- DisabledWrapperComponent&#45;&gt;PermissionsModule -->
<g id="edge2" class="edge">
<title>DisabledWrapperComponent&#45;&gt;PermissionsModule</title>
<path fill="none" stroke="black" d="M182.21,-84.91C182.21,-84.91 182.21,-103.79 182.21,-103.79"/>
<polygon fill="black" stroke="black" points="178.71,-103.79 182.21,-113.79 185.71,-103.79 178.71,-103.79"/>
</g>
<!-- DisableEntityOperationDirective  -->
<g id="node4" class="node">
<title>DisableEntityOperationDirective </title>
<polygon fill="#fb8072" stroke="black" points="326.05,-214.8 121.95,-214.8 121.95,-178.8 326.05,-178.8 326.05,-214.8"/>
<text text-anchor="middle" x="224" y="-192.6" font-family="Times,serif" font-size="14.00">DisableEntityOperationDirective </text>
</g>
<!-- PermissionsModule&#45;&gt;DisableEntityOperationDirective  -->
<g id="edge3" class="edge">
<title>PermissionsModule&#45;&gt;DisableEntityOperationDirective </title>
<path fill="none" stroke="black" stroke-dasharray="5,2" d="M224,-149.91C224,-149.91 224,-168.79 224,-168.79"/>
<polygon fill="black" stroke="black" points="220.5,-168.79 224,-178.79 227.5,-168.79 220.5,-168.79"/>
</g>
</g>
</svg>
