<?xml version="1.0" encoding="UTF-8" standalone="no"?>
<!DOCTYPE svg PUBLIC "-//W3C//DTD SVG 1.1//EN"
 "http://www.w3.org/Graphics/SVG/1.1/DTD/svg11.dtd">
<!-- Generated by graphviz version 2.47.3 (20210619.1520)
 -->
<!-- Title: dependencies Pages: 1 -->
<svg width="3691pt" height="247pt"
 viewBox="0.00 0.00 3691.00 246.80" xmlns="http://www.w3.org/2000/svg" xmlns:xlink="http://www.w3.org/1999/xlink">
<g id="graph0" class="graph" transform="scale(1 1) rotate(0) translate(4 242.8)">
<title>dependencies</title>
<polygon fill="white" stroke="transparent" points="-4,4 -4,-242.8 3687,-242.8 3687,4 -4,4"/>
<text text-anchor="middle" x="1841.5" y="-8.2" font-family="sans-serif" font-size="14.00">dependencies</text>
<g id="clust1" class="cluster">
<title>cluster_ChildrenModule</title>
<polygon fill="none" stroke="black" stroke-dasharray="1,5" points="8,-32.8 8,-230.8 3675,-230.8 3675,-32.8 8,-32.8"/>
</g>
<g id="clust2" class="cluster">
<title>cluster_ChildrenModule_declarations</title>
<polygon fill="none" stroke="black" points="1326,-40.8 1326,-92.8 3667,-92.8 3667,-40.8 1326,-40.8"/>
</g>
<g id="clust18" class="cluster">
<title>cluster_ChildrenModule_providers</title>
<polygon fill="none" stroke="black" points="1154,-40.8 1154,-92.8 1318,-92.8 1318,-40.8 1154,-40.8"/>
</g>
<g id="clust15" class="cluster">
<title>cluster_ChildrenModule_imports</title>
<polygon fill="none" stroke="black" points="16,-40.8 16,-92.8 1146,-92.8 1146,-40.8 16,-40.8"/>
</g>
<g id="clust16" class="cluster">
<title>cluster_ChildrenModule_exports</title>
<polygon fill="none" stroke="black" points="1043,-170.8 1043,-222.8 2103,-222.8 2103,-170.8 1043,-170.8"/>
</g>
<!-- AserComponent -->
<g id="node1" class="node">
<title>AserComponent</title>
<polygon fill="#ffffb3" stroke="black" points="3658.76,-84.8 3551.24,-84.8 3551.24,-48.8 3658.76,-48.8 3658.76,-84.8"/>
<text text-anchor="middle" x="3605" y="-62.6" font-family="Times,serif" font-size="14.00">AserComponent</text>
</g>
<!-- ChildrenModule -->
<g id="node13" class="node">
<title>ChildrenModule</title>
<polygon fill="#8dd3c7" stroke="black" points="1707.04,-149.8 1704.04,-153.8 1683.04,-153.8 1680.04,-149.8 1598.96,-149.8 1598.96,-113.8 1707.04,-113.8 1707.04,-149.8"/>
<text text-anchor="middle" x="1653" y="-127.6" font-family="Times,serif" font-size="14.00">ChildrenModule</text>
</g>
<!-- AserComponent&#45;&gt;ChildrenModule -->
<g id="edge1" class="edge">
<title>AserComponent&#45;&gt;ChildrenModule</title>
<path fill="none" stroke="black" d="M3605,-84.96C3605,-107.15 3605,-141.8 3605,-141.8 3605,-141.8 1717.24,-141.8 1717.24,-141.8"/>
<polygon fill="black" stroke="black" points="1717.25,-138.3 1707.24,-141.8 1717.24,-145.3 1717.25,-138.3"/>
</g>
<!-- BmiBlockComponent -->
<g id="node2" class="node">
<title>BmiBlockComponent</title>
<polygon fill="#ffffb3" stroke="black" points="3533.39,-84.8 3394.61,-84.8 3394.61,-48.8 3533.39,-48.8 3533.39,-84.8"/>
<text text-anchor="middle" x="3464" y="-62.6" font-family="Times,serif" font-size="14.00">BmiBlockComponent</text>
</g>
<!-- BmiBlockComponent&#45;&gt;ChildrenModule -->
<g id="edge2" class="edge">
<title>BmiBlockComponent&#45;&gt;ChildrenModule</title>
<path fill="none" stroke="black" d="M3464,-84.97C3464,-106.3 3464,-138.8 3464,-138.8 3464,-138.8 1717.2,-138.8 1717.2,-138.8"/>
<polygon fill="black" stroke="black" points="1717.2,-135.3 1707.2,-138.8 1717.2,-142.3 1717.2,-135.3"/>
</g>
<!-- ChildBlockComponent -->
<g id="node3" class="node">
<title>ChildBlockComponent</title>
<polygon fill="#ffffb3" stroke="black" points="3376.89,-84.8 3231.11,-84.8 3231.11,-48.8 3376.89,-48.8 3376.89,-84.8"/>
<text text-anchor="middle" x="3304" y="-62.6" font-family="Times,serif" font-size="14.00">ChildBlockComponent</text>
</g>
<!-- ChildBlockComponent&#45;&gt;ChildrenModule -->
<g id="edge3" class="edge">
<title>ChildBlockComponent&#45;&gt;ChildrenModule</title>
<path fill="none" stroke="black" d="M3304,-84.83C3304,-105.57 3304,-136.8 3304,-136.8 3304,-136.8 1717.46,-136.8 1717.46,-136.8"/>
<polygon fill="black" stroke="black" points="1717.46,-133.3 1707.46,-136.8 1717.46,-140.3 1717.46,-133.3"/>
</g>
<!-- ChildrenBmiDashboardComponent -->
<g id="node4" class="node">
<title>ChildrenBmiDashboardComponent</title>
<polygon fill="#ffffb3" stroke="black" points="3213.58,-84.8 2998.42,-84.8 2998.42,-48.8 3213.58,-48.8 3213.58,-84.8"/>
<text text-anchor="middle" x="3106" y="-62.6" font-family="Times,serif" font-size="14.00">ChildrenBmiDashboardComponent</text>
</g>
<!-- ChildrenBmiDashboardComponent&#45;&gt;ChildrenModule -->
<g id="edge4" class="edge">
<title>ChildrenBmiDashboardComponent&#45;&gt;ChildrenModule</title>
<path fill="none" stroke="black" d="M3106,-85.11C3106,-104.95 3106,-133.8 3106,-133.8 3106,-133.8 1717.31,-133.8 1717.31,-133.8"/>
<polygon fill="black" stroke="black" points="1717.31,-130.3 1707.31,-133.8 1717.31,-137.3 1717.31,-130.3"/>
</g>
<!-- ChildrenCountDashboardComponent -->
<g id="node5" class="node">
<title>ChildrenCountDashboardComponent</title>
<polygon fill="#ffffb3" stroke="black" points="2980.69,-84.8 2755.31,-84.8 2755.31,-48.8 2980.69,-48.8 2980.69,-84.8"/>
<text text-anchor="middle" x="2868" y="-62.6" font-family="Times,serif" font-size="14.00">ChildrenCountDashboardComponent</text>
</g>
<!-- ChildrenCountDashboardComponent&#45;&gt;ChildrenModule -->
<g id="edge5" class="edge">
<title>ChildrenCountDashboardComponent&#45;&gt;ChildrenModule</title>
<path fill="none" stroke="black" d="M2868,-84.97C2868,-103.89 2868,-130.8 2868,-130.8 2868,-130.8 1717.17,-130.8 1717.17,-130.8"/>
<polygon fill="black" stroke="black" points="1717.17,-127.3 1707.17,-130.8 1717.17,-134.3 1717.17,-127.3"/>
</g>
<!-- ChildrenListComponent -->
<g id="node6" class="node">
<title>ChildrenListComponent</title>
<polygon fill="#ffffb3" stroke="black" points="2737.1,-84.8 2584.9,-84.8 2584.9,-48.8 2737.1,-48.8 2737.1,-84.8"/>
<text text-anchor="middle" x="2661" y="-62.6" font-family="Times,serif" font-size="14.00">ChildrenListComponent</text>
</g>
<!-- ChildrenListComponent&#45;&gt;ChildrenModule -->
<g id="edge6" class="edge">
<title>ChildrenListComponent&#45;&gt;ChildrenModule</title>
<path fill="none" stroke="black" d="M2661,-85.1C2661,-103.07 2661,-127.8 2661,-127.8 2661,-127.8 1717.19,-127.8 1717.19,-127.8"/>
<polygon fill="black" stroke="black" points="1717.19,-124.3 1707.19,-127.8 1717.19,-131.3 1717.19,-124.3"/>
</g>
<!-- EducationalMaterialComponent -->
<g id="node7" class="node">
<title>EducationalMaterialComponent</title>
<polygon fill="#ffffb3" stroke="black" points="2566.62,-84.8 2371.38,-84.8 2371.38,-48.8 2566.62,-48.8 2566.62,-84.8"/>
<text text-anchor="middle" x="2469" y="-62.6" font-family="Times,serif" font-size="14.00">EducationalMaterialComponent</text>
</g>
<!-- EducationalMaterialComponent&#45;&gt;ChildrenModule -->
<g id="edge7" class="edge">
<title>EducationalMaterialComponent&#45;&gt;ChildrenModule</title>
<path fill="none" stroke="black" d="M2469,-84.82C2469,-102.17 2469,-125.8 2469,-125.8 2469,-125.8 1717.17,-125.8 1717.17,-125.8"/>
<polygon fill="black" stroke="black" points="1717.17,-122.3 1707.17,-125.8 1717.17,-129.3 1717.17,-122.3"/>
</g>
<!-- HealthCheckupComponent -->
<g id="node8" class="node">
<title>HealthCheckupComponent</title>
<polygon fill="#ffffb3" stroke="black" points="2353.42,-84.8 2184.58,-84.8 2184.58,-48.8 2353.42,-48.8 2353.42,-84.8"/>
<text text-anchor="middle" x="2269" y="-62.6" font-family="Times,serif" font-size="14.00">HealthCheckupComponent</text>
</g>
<!-- HealthCheckupComponent&#45;&gt;ChildrenModule -->
<g id="edge8" class="edge">
<title>HealthCheckupComponent&#45;&gt;ChildrenModule</title>
<path fill="none" stroke="black" d="M2269,-84.83C2269,-101.2 2269,-122.8 2269,-122.8 2269,-122.8 1717.13,-122.8 1717.13,-122.8"/>
<polygon fill="black" stroke="black" points="1717.13,-119.3 1707.13,-122.8 1717.13,-126.3 1717.13,-119.3"/>
</g>
<!-- NoRecentNotesDashboardComponent -->
<g id="node9" class="node">
<title>NoRecentNotesDashboardComponent</title>
<polygon fill="#ffffb3" stroke="black" points="2166.11,-84.8 1935.89,-84.8 1935.89,-48.8 2166.11,-48.8 2166.11,-84.8"/>
<text text-anchor="middle" x="2051" y="-62.6" font-family="Times,serif" font-size="14.00">NoRecentNotesDashboardComponent</text>
</g>
<!-- NoRecentNotesDashboardComponent&#45;&gt;ChildrenModule -->
<g id="edge9" class="edge">
<title>NoRecentNotesDashboardComponent&#45;&gt;ChildrenModule</title>
<path fill="none" stroke="black" d="M1944.25,-85.04C1944.25,-100.37 1944.25,-119.8 1944.25,-119.8 1944.25,-119.8 1717.1,-119.8 1717.1,-119.8"/>
<polygon fill="black" stroke="black" points="1717.1,-116.3 1707.1,-119.8 1717.1,-123.3 1717.1,-116.3"/>
</g>
<!-- NotesOfChildComponent -->
<g id="node10" class="node">
<title>NotesOfChildComponent</title>
<polygon fill="#ffffb3" stroke="black" points="1917.87,-84.8 1758.13,-84.8 1758.13,-48.8 1917.87,-48.8 1917.87,-84.8"/>
<text text-anchor="middle" x="1838" y="-62.6" font-family="Times,serif" font-size="14.00">NotesOfChildComponent</text>
</g>
<!-- NotesOfChildComponent&#45;&gt;ChildrenModule -->
<g id="edge10" class="edge">
<title>NotesOfChildComponent&#45;&gt;ChildrenModule</title>
<path fill="none" stroke="black" d="M1762.7,-84.85C1762.7,-99.17 1762.7,-116.8 1762.7,-116.8 1762.7,-116.8 1717.21,-116.8 1717.21,-116.8"/>
<polygon fill="black" stroke="black" points="1717.21,-113.3 1707.21,-116.8 1717.21,-120.3 1717.21,-113.3"/>
</g>
<!-- PreviousSchoolsComponent -->
<g id="node11" class="node">
<title>PreviousSchoolsComponent</title>
<polygon fill="#ffffb3" stroke="black" points="1740.16,-84.8 1565.84,-84.8 1565.84,-48.8 1740.16,-48.8 1740.16,-84.8"/>
<text text-anchor="middle" x="1653" y="-62.6" font-family="Times,serif" font-size="14.00">PreviousSchoolsComponent</text>
</g>
<!-- PreviousSchoolsComponent&#45;&gt;ChildrenModule -->
<g id="edge11" class="edge">
<title>PreviousSchoolsComponent&#45;&gt;ChildrenModule</title>
<path fill="none" stroke="black" d="M1653,-84.91C1653,-84.91 1653,-103.79 1653,-103.79"/>
<polygon fill="black" stroke="black" points="1649.5,-103.79 1653,-113.79 1656.5,-103.79 1649.5,-103.79"/>
</g>
<!-- RecentNotesDashboardComponent -->
<g id="node12" class="node">
<title>RecentNotesDashboardComponent</title>
<polygon fill="#ffffb3" stroke="black" points="1547.5,-84.8 1334.5,-84.8 1334.5,-48.8 1547.5,-48.8 1547.5,-84.8"/>
<text text-anchor="middle" x="1441" y="-62.6" font-family="Times,serif" font-size="14.00">RecentNotesDashboardComponent</text>
</g>
<!-- RecentNotesDashboardComponent&#45;&gt;ChildrenModule -->
<g id="edge12" class="edge">
<title>RecentNotesDashboardComponent&#45;&gt;ChildrenModule</title>
<path fill="none" stroke="black" d="M1543.2,-84.85C1543.2,-99.17 1543.2,-116.8 1543.2,-116.8 1543.2,-116.8 1588.74,-116.8 1588.74,-116.8"/>
<polygon fill="black" stroke="black" points="1588.74,-120.3 1598.74,-116.8 1588.74,-113.3 1588.74,-120.3"/>
</g>
<!-- BmiBlockComponent  -->
<g id="node22" class="node">
<title>BmiBlockComponent </title>
<polygon fill="#fb8072" stroke="black" points="2095.39,-214.8 1952.61,-214.8 1952.61,-178.8 2095.39,-178.8 2095.39,-214.8"/>
<text text-anchor="middle" x="2024" y="-192.6" font-family="Times,serif" font-size="14.00">BmiBlockComponent </text>
</g>
<!-- ChildrenModule&#45;&gt;BmiBlockComponent  -->
<g id="edge21" class="edge">
<title>ChildrenModule&#45;&gt;BmiBlockComponent </title>
<path fill="none" stroke="black" stroke-dasharray="5,2" d="M1707.34,-144.8C1810.39,-144.8 2024,-144.8 2024,-144.8 2024,-144.8 2024,-168.61 2024,-168.61"/>
<polygon fill="black" stroke="black" points="2020.5,-168.61 2024,-178.61 2027.5,-168.61 2020.5,-168.61"/>
</g>
<!-- ChildBlockComponent  -->
<g id="node23" class="node">
<title>ChildBlockComponent </title>
<polygon fill="#fb8072" stroke="black" points="1934.89,-214.8 1785.11,-214.8 1785.11,-178.8 1934.89,-178.8 1934.89,-214.8"/>
<text text-anchor="middle" x="1860" y="-192.6" font-family="Times,serif" font-size="14.00">ChildBlockComponent </text>
</g>
<!-- ChildrenModule&#45;&gt;ChildBlockComponent  -->
<g id="edge22" class="edge">
<title>ChildrenModule&#45;&gt;ChildBlockComponent </title>
<path fill="none" stroke="black" stroke-dasharray="5,2" d="M1707.27,-147.8C1766.08,-147.8 1851.62,-147.8 1851.62,-147.8 1851.62,-147.8 1851.62,-168.55 1851.62,-168.55"/>
<polygon fill="black" stroke="black" points="1848.12,-168.55 1851.62,-178.55 1855.12,-168.55 1848.12,-168.55"/>
</g>
<!-- ChildrenCountDashboardComponent  -->
<g id="node24" class="node">
<title>ChildrenCountDashboardComponent </title>
<polygon fill="#fb8072" stroke="black" points="1767.19,-214.8 1538.81,-214.8 1538.81,-178.8 1767.19,-178.8 1767.19,-214.8"/>
<text text-anchor="middle" x="1653" y="-192.6" font-family="Times,serif" font-size="14.00">ChildrenCountDashboardComponent </text>
</g>
<!-- ChildrenModule&#45;&gt;ChildrenCountDashboardComponent  -->
<g id="edge23" class="edge">
<title>ChildrenModule&#45;&gt;ChildrenCountDashboardComponent </title>
<path fill="none" stroke="black" stroke-dasharray="5,2" d="M1653,-149.91C1653,-149.91 1653,-168.79 1653,-168.79"/>
<polygon fill="black" stroke="black" points="1649.5,-168.79 1653,-178.79 1656.5,-168.79 1649.5,-168.79"/>
</g>
<!-- NoRecentNotesDashboardComponent  -->
<g id="node25" class="node">
<title>NoRecentNotesDashboardComponent </title>
<polygon fill="#fb8072" stroke="black" points="1521.11,-214.8 1286.89,-214.8 1286.89,-178.8 1521.11,-178.8 1521.11,-214.8"/>
<text text-anchor="middle" x="1404" y="-192.6" font-family="Times,serif" font-size="14.00">NoRecentNotesDashboardComponent </text>
</g>
<!-- ChildrenModule&#45;&gt;NoRecentNotesDashboardComponent  -->
<g id="edge24" class="edge">
<title>ChildrenModule&#45;&gt;NoRecentNotesDashboardComponent </title>
<path fill="none" stroke="black" stroke-dasharray="5,2" d="M1598.74,-147.8C1532.06,-147.8 1427.65,-147.8 1427.65,-147.8 1427.65,-147.8 1427.65,-168.55 1427.65,-168.55"/>
<polygon fill="black" stroke="black" points="1424.15,-168.55 1427.65,-178.55 1431.15,-168.55 1424.15,-168.55"/>
</g>
<!-- RecentNotesDashboardComponent  -->
<g id="node26" class="node">
<title>RecentNotesDashboardComponent </title>
<polygon fill="#fb8072" stroke="black" points="1268.5,-214.8 1051.5,-214.8 1051.5,-178.8 1268.5,-178.8 1268.5,-214.8"/>
<text text-anchor="middle" x="1160" y="-192.6" font-family="Times,serif" font-size="14.00">RecentNotesDashboardComponent </text>
</g>
<!-- ChildrenModule&#45;&gt;RecentNotesDashboardComponent  -->
<g id="edge25" class="edge">
<title>ChildrenModule&#45;&gt;RecentNotesDashboardComponent </title>
<path fill="none" stroke="black" stroke-dasharray="5,2" d="M1598.9,-144.8C1481.81,-144.8 1215.36,-144.8 1215.36,-144.8 1215.36,-144.8 1215.36,-168.61 1215.36,-168.61"/>
<polygon fill="black" stroke="black" points="1211.86,-168.61 1215.36,-178.61 1218.86,-168.61 1211.86,-168.61"/>
</g>
<!-- ConfirmationDialogModule -->
<g id="node14" class="node">
<title>ConfirmationDialogModule</title>
<polygon fill="#8dd3c7" stroke="black" points="1137.59,-84.8 1134.59,-88.8 1113.59,-88.8 1110.59,-84.8 964.41,-84.8 964.41,-48.8 1137.59,-48.8 1137.59,-84.8"/>
<text text-anchor="middle" x="1051" y="-62.6" font-family="Times,serif" font-size="14.00">ConfirmationDialogModule</text>
</g>
<!-- ConfirmationDialogModule&#45;&gt;ChildrenModule -->
<g id="edge13" class="edge">
<title>ConfirmationDialogModule&#45;&gt;ChildrenModule</title>
<path fill="none" stroke="black" d="M1094.52,-84.83C1094.52,-101.2 1094.52,-122.8 1094.52,-122.8 1094.52,-122.8 1588.94,-122.8 1588.94,-122.8"/>
<polygon fill="black" stroke="black" points="1588.94,-126.3 1598.94,-122.8 1588.94,-119.3 1588.94,-126.3"/>
</g>
<!-- EntityListModule -->
<g id="node15" class="node">
<title>EntityListModule</title>
<polygon fill="#8dd3c7" stroke="black" points="946.55,-84.8 943.55,-88.8 922.55,-88.8 919.55,-84.8 831.45,-84.8 831.45,-48.8 946.55,-48.8 946.55,-84.8"/>
<text text-anchor="middle" x="889" y="-62.6" font-family="Times,serif" font-size="14.00">EntityListModule</text>
</g>
<!-- EntityListModule&#45;&gt;ChildrenModule -->
<g id="edge14" class="edge">
<title>EntityListModule&#45;&gt;ChildrenModule</title>
<path fill="none" stroke="black" d="M889,-84.82C889,-102.17 889,-125.8 889,-125.8 889,-125.8 1588.67,-125.8 1588.67,-125.8"/>
<polygon fill="black" stroke="black" points="1588.67,-129.3 1598.67,-125.8 1588.67,-122.3 1588.67,-129.3"/>
</g>
<!-- EntitySubrecordModule -->
<g id="node16" class="node">
<title>EntitySubrecordModule</title>
<polygon fill="#8dd3c7" stroke="black" points="813.81,-84.8 810.81,-88.8 789.81,-88.8 786.81,-84.8 662.19,-84.8 662.19,-48.8 813.81,-48.8 813.81,-84.8"/>
<text text-anchor="middle" x="738" y="-62.6" font-family="Times,serif" font-size="14.00">EntitySubrecordModule</text>
</g>
<!-- EntitySubrecordModule&#45;&gt;ChildrenModule -->
<g id="edge15" class="edge">
<title>EntitySubrecordModule&#45;&gt;ChildrenModule</title>
<path fill="none" stroke="black" d="M738,-85.1C738,-103.07 738,-127.8 738,-127.8 738,-127.8 1588.84,-127.8 1588.84,-127.8"/>
<polygon fill="black" stroke="black" points="1588.84,-131.3 1598.84,-127.8 1588.84,-124.3 1588.84,-131.3"/>
</g>
<!-- EntityUtilsModule -->
<g id="node17" class="node">
<title>EntityUtilsModule</title>
<polygon fill="#8dd3c7" stroke="black" points="644.5,-84.8 641.5,-88.8 620.5,-88.8 617.5,-84.8 523.5,-84.8 523.5,-48.8 644.5,-48.8 644.5,-84.8"/>
<text text-anchor="middle" x="584" y="-62.6" font-family="Times,serif" font-size="14.00">EntityUtilsModule</text>
</g>
<!-- EntityUtilsModule&#45;&gt;ChildrenModule -->
<g id="edge16" class="edge">
<title>EntityUtilsModule&#45;&gt;ChildrenModule</title>
<path fill="none" stroke="black" d="M584,-84.97C584,-103.89 584,-130.8 584,-130.8 584,-130.8 1588.89,-130.8 1588.89,-130.8"/>
<polygon fill="black" stroke="black" points="1588.89,-134.3 1598.89,-130.8 1588.89,-127.3 1588.89,-134.3"/>
</g>
<!-- FormDialogModule -->
<g id="node18" class="node">
<title>FormDialogModule</title>
<polygon fill="#8dd3c7" stroke="black" points="505.99,-84.8 502.99,-88.8 481.99,-88.8 478.99,-84.8 378.01,-84.8 378.01,-48.8 505.99,-48.8 505.99,-84.8"/>
<text text-anchor="middle" x="442" y="-62.6" font-family="Times,serif" font-size="14.00">FormDialogModule</text>
</g>
<!-- FormDialogModule&#45;&gt;ChildrenModule -->
<g id="edge17" class="edge">
<title>FormDialogModule&#45;&gt;ChildrenModule</title>
<path fill="none" stroke="black" d="M442,-85.11C442,-104.95 442,-133.8 442,-133.8 442,-133.8 1588.61,-133.8 1588.61,-133.8"/>
<polygon fill="black" stroke="black" points="1588.61,-137.3 1598.61,-133.8 1588.61,-130.3 1588.61,-137.3"/>
</g>
<!-- SchoolsModule -->
<g id="node19" class="node">
<title>SchoolsModule</title>
<polygon fill="#8dd3c7" stroke="black" points="359.88,-84.8 356.88,-88.8 335.88,-88.8 332.88,-84.8 256.12,-84.8 256.12,-48.8 359.88,-48.8 359.88,-84.8"/>
<text text-anchor="middle" x="308" y="-62.6" font-family="Times,serif" font-size="14.00">SchoolsModule</text>
</g>
<!-- SchoolsModule&#45;&gt;ChildrenModule -->
<g id="edge18" class="edge">
<title>SchoolsModule&#45;&gt;ChildrenModule</title>
<path fill="none" stroke="black" d="M308,-84.83C308,-105.57 308,-136.8 308,-136.8 308,-136.8 1588.61,-136.8 1588.61,-136.8"/>
<polygon fill="black" stroke="black" points="1588.61,-140.3 1598.61,-136.8 1588.61,-133.3 1588.61,-140.3"/>
</g>
<!-- ViewModule -->
<g id="node20" class="node">
<title>ViewModule</title>
<polygon fill="#8dd3c7" stroke="black" points="237.87,-84.8 234.87,-88.8 213.87,-88.8 210.87,-84.8 148.13,-84.8 148.13,-48.8 237.87,-48.8 237.87,-84.8"/>
<text text-anchor="middle" x="193" y="-62.6" font-family="Times,serif" font-size="14.00">ViewModule</text>
</g>
<!-- ViewModule&#45;&gt;ChildrenModule -->
<g id="edge19" class="edge">
<title>ViewModule&#45;&gt;ChildrenModule</title>
<path fill="none" stroke="black" d="M193,-84.97C193,-106.3 193,-138.8 193,-138.8 193,-138.8 1588.87,-138.8 1588.87,-138.8"/>
<polygon fill="black" stroke="black" points="1588.87,-142.3 1598.87,-138.8 1588.87,-135.3 1588.87,-142.3"/>
</g>
<!-- WebdavModule -->
<g id="node21" class="node">
<title>WebdavModule</title>
<polygon fill="#8dd3c7" stroke="black" points="130.19,-84.8 127.19,-88.8 106.19,-88.8 103.19,-84.8 23.81,-84.8 23.81,-48.8 130.19,-48.8 130.19,-84.8"/>
<text text-anchor="middle" x="77" y="-62.6" font-family="Times,serif" font-size="14.00">WebdavModule</text>
</g>
<!-- WebdavModule&#45;&gt;ChildrenModule -->
<g id="edge20" class="edge">
<title>WebdavModule&#45;&gt;ChildrenModule</title>
<path fill="none" stroke="black" d="M77,-84.96C77,-107.15 77,-141.8 77,-141.8 77,-141.8 1588.75,-141.8 1588.75,-141.8"/>
<polygon fill="black" stroke="black" points="1588.75,-145.3 1598.75,-141.8 1588.75,-138.3 1588.75,-145.3"/>
</g>
<!-- ChildrenService -->
<g id="node27" class="node">
<title>ChildrenService</title>
<ellipse fill="#fdb462" stroke="black" cx="1236" cy="-66.8" rx="73.57" ry="18"/>
<text text-anchor="middle" x="1236" y="-62.6" font-family="Times,serif" font-size="14.00">ChildrenService</text>
</g>
<!-- ChildrenService&#45;&gt;ChildrenModule -->
<g id="edge26" class="edge">
<title>ChildrenService&#45;&gt;ChildrenModule</title>
<path fill="none" stroke="black" d="M1298.37,-76.52C1298.37,-91.82 1298.37,-119.8 1298.37,-119.8 1298.37,-119.8 1588.75,-119.8 1588.75,-119.8"/>
<polygon fill="black" stroke="black" points="1588.75,-123.3 1598.75,-119.8 1588.75,-116.3 1588.75,-123.3"/>
</g>
</g>
</svg>
