<?xml version="1.0" encoding="UTF-8" standalone="no"?>
<!DOCTYPE svg PUBLIC "-//W3C//DTD SVG 1.1//EN"
 "http://www.w3.org/Graphics/SVG/1.1/DTD/svg11.dtd">
<!-- Generated by graphviz version 2.47.3 (20210619.1520)
 -->
<!-- Title: dependencies Pages: 1 -->
<svg width="504pt" height="247pt"
 viewBox="0.00 0.00 504.00 246.80" xmlns="http://www.w3.org/2000/svg" xmlns:xlink="http://www.w3.org/1999/xlink">
<g id="graph0" class="graph" transform="scale(1 1) rotate(0) translate(4 242.8)">
<title>dependencies</title>
<polygon fill="white" stroke="transparent" points="-4,4 -4,-242.8 500,-242.8 500,4 -4,4"/>
<text text-anchor="middle" x="248" y="-8.2" font-family="sans-serif" font-size="14.00">dependencies</text>
<g id="clust1" class="cluster">
<title>cluster_SessionModule</title>
<polygon fill="none" stroke="black" stroke-dasharray="1,5" points="8,-32.8 8,-230.8 488,-230.8 488,-32.8 8,-32.8"/>
</g>
<g id="clust4" class="cluster">
<title>cluster_SessionModule_imports</title>
<polygon fill="none" stroke="black" points="154,-40.8 154,-92.8 480,-92.8 480,-40.8 154,-40.8"/>
</g>
<g id="clust2" class="cluster">
<title>cluster_SessionModule_declarations</title>
<polygon fill="none" stroke="black" points="16,-40.8 16,-92.8 146,-92.8 146,-40.8 16,-40.8"/>
</g>
<g id="clust5" class="cluster">
<title>cluster_SessionModule_exports</title>
<polygon fill="none" stroke="black" points="192,-170.8 192,-222.8 326,-222.8 326,-170.8 192,-170.8"/>
</g>
<!-- LoginComponent -->
<g id="node1" class="node">
<title>LoginComponent</title>
<polygon fill="#ffffb3" stroke="black" points="138.28,-84.8 23.72,-84.8 23.72,-48.8 138.28,-48.8 138.28,-84.8"/>
<text text-anchor="middle" x="81" y="-62.6" font-family="Times,serif" font-size="14.00">LoginComponent</text>
</g>
<!-- SessionModule -->
<g id="node2" class="node">
<title>SessionModule</title>
<polygon fill="#8dd3c7" stroke="black" points="310.33,-149.8 307.33,-153.8 286.33,-153.8 283.33,-149.8 207.67,-149.8 207.67,-113.8 310.33,-113.8 310.33,-149.8"/>
<text text-anchor="middle" x="259" y="-127.6" font-family="Times,serif" font-size="14.00">SessionModule</text>
</g>
<!-- LoginComponent&#45;&gt;SessionModule -->
<g id="edge1" class="edge">
<title>LoginComponent&#45;&gt;SessionModule</title>
<path fill="none" stroke="black" d="M81,-84.91C81,-104.14 81,-131.8 81,-131.8 81,-131.8 197.52,-131.8 197.52,-131.8"/>
<polygon fill="black" stroke="black" points="197.52,-135.3 207.52,-131.8 197.51,-128.3 197.52,-135.3"/>
</g>
<!-- LoginComponent  -->
<g id="node6" class="node">
<title>LoginComponent </title>
<polygon fill="#fb8072" stroke="black" points="318.28,-214.8 199.72,-214.8 199.72,-178.8 318.28,-178.8 318.28,-214.8"/>
<text text-anchor="middle" x="259" y="-192.6" font-family="Times,serif" font-size="14.00">LoginComponent </text>
</g>
<!-- SessionModule&#45;&gt;LoginComponent  -->
<g id="edge5" class="edge">
<title>SessionModule&#45;&gt;LoginComponent </title>
<path fill="none" stroke="black" stroke-dasharray="5,2" d="M259,-149.91C259,-149.91 259,-168.79 259,-168.79"/>
<polygon fill="black" stroke="black" points="255.5,-168.79 259,-178.79 262.5,-168.79 255.5,-168.79"/>
</g>
<!-- AlertsModule -->
<g id="node3" class="node">
<title>AlertsModule</title>
<polygon fill="#8dd3c7" stroke="black" points="471.76,-84.8 468.76,-88.8 447.76,-88.8 444.76,-84.8 378.24,-84.8 378.24,-48.8 471.76,-48.8 471.76,-84.8"/>
<text text-anchor="middle" x="425" y="-62.6" font-family="Times,serif" font-size="14.00">AlertsModule</text>
</g>
<!-- AlertsModule&#45;&gt;SessionModule -->
<g id="edge2" class="edge">
<title>AlertsModule&#45;&gt;SessionModule</title>
<path fill="none" stroke="black" d="M425,-84.91C425,-104.14 425,-131.8 425,-131.8 425,-131.8 320.61,-131.8 320.61,-131.8"/>
<polygon fill="black" stroke="black" points="320.61,-128.3 310.61,-131.8 320.61,-135.3 320.61,-128.3"/>
</g>
<!-- EntityModule -->
<g id="node4" class="node">
<title>EntityModule</title>
<polygon fill="#8dd3c7" stroke="black" points="359.77,-84.8 356.77,-88.8 335.77,-88.8 332.77,-84.8 266.23,-84.8 266.23,-48.8 359.77,-48.8 359.77,-84.8"/>
<text text-anchor="middle" x="313" y="-62.6" font-family="Times,serif" font-size="14.00">EntityModule</text>
</g>
<!-- EntityModule&#45;&gt;SessionModule -->
<g id="edge3" class="edge">
<title>EntityModule&#45;&gt;SessionModule</title>
<path fill="none" stroke="black" d="M288.14,-84.91C288.14,-84.91 288.14,-103.79 288.14,-103.79"/>
<polygon fill="black" stroke="black" points="284.64,-103.79 288.14,-113.79 291.64,-103.79 284.64,-103.79"/>
</g>
<!-- UserModule -->
<g id="node5" class="node">
<title>UserModule</title>
<polygon fill="#8dd3c7" stroke="black" points="247.98,-84.8 244.98,-88.8 223.98,-88.8 220.98,-84.8 162.02,-84.8 162.02,-48.8 247.98,-48.8 247.98,-84.8"/>
<text text-anchor="middle" x="205" y="-62.6" font-family="Times,serif" font-size="14.00">UserModule</text>
</g>
<!-- UserModule&#45;&gt;SessionModule -->
<g id="edge4" class="edge">
<title>UserModule&#45;&gt;SessionModule</title>
<path fill="none" stroke="black" d="M227.91,-84.91C227.91,-84.91 227.91,-103.79 227.91,-103.79"/>
<polygon fill="black" stroke="black" points="224.41,-103.79 227.91,-113.79 231.41,-103.79 224.41,-103.79"/>
</g>
</g>
</svg>
